<svg width="1363" height="163" viewBox="0 0 1363 163" fill="none" xmlns="http://www.w3.org/2000/svg">
<path d="M0 15C0 6.71573 6.71573 0 15 0H37V163H15C6.71573 163 0 156.284 0 148V15Z" fill="#0F8EEA"/>
<rect width="1097" height="163" transform="translate(37)" fill="#F0F0F0"/>
<path d="M101.906 53.9219L94.3945 51.2383V48.0859L104.602 52.375V54.6367L101.906 53.9219ZM94.3945 56.1719L101.918 53.4297L104.602 52.7852V55.0352L94.3945 59.3242V56.1719ZM119.543 54.918H115.195V52.1758H119.543C120.215 52.1758 120.762 52.0664 121.184 51.8477C121.605 51.6211 121.914 51.3086 122.109 50.9102C122.305 50.5117 122.402 50.0625 122.402 49.5625C122.402 49.0547 122.305 48.582 122.109 48.1445C121.914 47.707 121.605 47.3555 121.184 47.0898C120.762 46.8242 120.215 46.6914 119.543 46.6914H116.414V61H112.898V43.9375H119.543C120.879 43.9375 122.023 44.1797 122.977 44.6641C123.938 45.1406 124.672 45.8008 125.18 46.6445C125.688 47.4883 125.941 48.4531 125.941 49.5391C125.941 50.6406 125.688 51.5938 125.18 52.3984C124.672 53.2031 123.938 53.8242 122.977 54.2617C122.023 54.6992 120.879 54.918 119.543 54.918ZM131.531 51.0859V61H128.156V48.3203H131.332L131.531 51.0859ZM135.352 48.2383L135.293 51.3672C135.129 51.3438 134.93 51.3242 134.695 51.3086C134.469 51.2852 134.262 51.2734 134.074 51.2734C133.598 51.2734 133.184 51.3359 132.832 51.4609C132.488 51.5781 132.199 51.7539 131.965 51.9883C131.738 52.2227 131.566 52.5078 131.449 52.8438C131.34 53.1797 131.277 53.5625 131.262 53.9922L130.582 53.7812C130.582 52.9609 130.664 52.207 130.828 51.5195C130.992 50.8242 131.23 50.2188 131.543 49.7031C131.863 49.1875 132.254 48.7891 132.715 48.5078C133.176 48.2266 133.703 48.0859 134.297 48.0859C134.484 48.0859 134.676 48.1016 134.871 48.1328C135.066 48.1562 135.227 48.1914 135.352 48.2383ZM136.055 54.7891V54.543C136.055 53.6133 136.188 52.7578 136.453 51.9766C136.719 51.1875 137.105 50.5039 137.613 49.9258C138.121 49.3477 138.746 48.8984 139.488 48.5781C140.23 48.25 141.082 48.0859 142.043 48.0859C143.004 48.0859 143.859 48.25 144.609 48.5781C145.359 48.8984 145.988 49.3477 146.496 49.9258C147.012 50.5039 147.402 51.1875 147.668 51.9766C147.934 52.7578 148.066 53.6133 148.066 54.543V54.7891C148.066 55.7109 147.934 56.5664 147.668 57.3555C147.402 58.1367 147.012 58.8203 146.496 59.4062C145.988 59.9844 145.363 60.4336 144.621 60.7539C143.879 61.0742 143.027 61.2344 142.066 61.2344C141.105 61.2344 140.25 61.0742 139.5 60.7539C138.758 60.4336 138.129 59.9844 137.613 59.4062C137.105 58.8203 136.719 58.1367 136.453 57.3555C136.188 56.5664 136.055 55.7109 136.055 54.7891ZM139.43 54.543V54.7891C139.43 55.3203 139.477 55.8164 139.57 56.2773C139.664 56.7383 139.812 57.1445 140.016 57.4961C140.227 57.8398 140.5 58.1094 140.836 58.3047C141.172 58.5 141.582 58.5977 142.066 58.5977C142.535 58.5977 142.938 58.5 143.273 58.3047C143.609 58.1094 143.879 57.8398 144.082 57.4961C144.285 57.1445 144.434 56.7383 144.527 56.2773C144.629 55.8164 144.68 55.3203 144.68 54.7891V54.543C144.68 54.0273 144.629 53.543 144.527 53.0898C144.434 52.6289 144.281 52.2227 144.07 51.8711C143.867 51.5117 143.598 51.2305 143.262 51.0273C142.926 50.8242 142.52 50.7227 142.043 50.7227C141.566 50.7227 141.16 50.8242 140.824 51.0273C140.496 51.2305 140.227 51.5117 140.016 51.8711C139.812 52.2227 139.664 52.6289 139.57 53.0898C139.477 53.543 139.43 54.0273 139.43 54.543ZM150.328 48.3203H153.715V61.7617C153.715 62.6992 153.543 63.4922 153.199 64.1406C152.855 64.7891 152.359 65.2812 151.711 65.6172C151.062 65.9531 150.277 66.1211 149.355 66.1211C149.066 66.1211 148.785 66.1055 148.512 66.0742C148.23 66.043 147.941 65.9922 147.645 65.9219L147.656 63.332C147.844 63.3633 148.027 63.3867 148.207 63.4023C148.379 63.4258 148.555 63.4375 148.734 63.4375C149.086 63.4375 149.379 63.3789 149.613 63.2617C149.848 63.1445 150.023 62.9609 150.141 62.7109C150.266 62.4688 150.328 62.1523 150.328 61.7617V48.3203ZM150.059 45.0156C150.059 44.5234 150.23 44.1172 150.574 43.7969C150.926 43.4766 151.387 43.3164 151.957 43.3164C152.535 43.3164 152.996 43.4766 153.34 43.7969C153.684 44.1172 153.855 44.5234 153.855 45.0156C153.855 45.5078 153.684 45.9141 153.34 46.2344C152.996 46.5547 152.535 46.7148 151.957 46.7148C151.387 46.7148 150.926 46.5547 150.574 46.2344C150.23 45.9141 150.059 45.5078 150.059 45.0156ZM162.234 61.2344C161.25 61.2344 160.367 61.0781 159.586 60.7656C158.805 60.4453 158.141 60.0039 157.594 59.4414C157.055 58.8789 156.641 58.2266 156.352 57.4844C156.062 56.7344 155.918 55.9375 155.918 55.0938V54.625C155.918 53.6641 156.055 52.7852 156.328 51.9883C156.602 51.1914 156.992 50.5 157.5 49.9141C158.016 49.3281 158.641 48.8789 159.375 48.5664C160.109 48.2461 160.938 48.0859 161.859 48.0859C162.758 48.0859 163.555 48.2344 164.25 48.5312C164.945 48.8281 165.527 49.25 165.996 49.7969C166.473 50.3438 166.832 51 167.074 51.7656C167.316 52.5234 167.438 53.3672 167.438 54.2969V55.7031H157.359V53.4531H164.121V53.1953C164.121 52.7266 164.035 52.3086 163.863 51.9414C163.699 51.5664 163.449 51.2695 163.113 51.0508C162.777 50.832 162.348 50.7227 161.824 50.7227C161.379 50.7227 160.996 50.8203 160.676 51.0156C160.355 51.2109 160.094 51.4844 159.891 51.8359C159.695 52.1875 159.547 52.6016 159.445 53.0781C159.352 53.5469 159.305 54.0625 159.305 54.625V55.0938C159.305 55.6016 159.375 56.0703 159.516 56.5C159.664 56.9297 159.871 57.3008 160.137 57.6133C160.41 57.9258 160.738 58.168 161.121 58.3398C161.512 58.5117 161.953 58.5977 162.445 58.5977C163.055 58.5977 163.621 58.4805 164.145 58.2461C164.676 58.0039 165.133 57.6406 165.516 57.1562L167.156 58.9375C166.891 59.3203 166.527 59.6875 166.066 60.0391C165.613 60.3906 165.066 60.6797 164.426 60.9062C163.785 61.125 163.055 61.2344 162.234 61.2344ZM174.598 58.5977C175.012 58.5977 175.379 58.5195 175.699 58.3633C176.02 58.1992 176.27 57.9727 176.449 57.6836C176.637 57.3867 176.734 57.0391 176.742 56.6406H179.918C179.91 57.5312 179.672 58.3242 179.203 59.0195C178.734 59.707 178.105 60.25 177.316 60.6484C176.527 61.0391 175.645 61.2344 174.668 61.2344C173.684 61.2344 172.824 61.0703 172.09 60.7422C171.363 60.4141 170.758 59.9609 170.273 59.3828C169.789 58.7969 169.426 58.1172 169.184 57.3438C168.941 56.5625 168.82 55.7266 168.82 54.8359V54.4961C168.82 53.5977 168.941 52.7617 169.184 51.9883C169.426 51.207 169.789 50.5273 170.273 49.9492C170.758 49.3633 171.363 48.9062 172.09 48.5781C172.816 48.25 173.668 48.0859 174.645 48.0859C175.684 48.0859 176.594 48.2852 177.375 48.6836C178.164 49.082 178.781 49.6523 179.227 50.3945C179.68 51.1289 179.91 52 179.918 53.0078H176.742C176.734 52.5859 176.645 52.2031 176.473 51.8594C176.309 51.5156 176.066 51.2422 175.746 51.0391C175.434 50.8281 175.047 50.7227 174.586 50.7227C174.094 50.7227 173.691 50.8281 173.379 51.0391C173.066 51.2422 172.824 51.5234 172.652 51.8828C172.48 52.2344 172.359 52.6367 172.289 53.0898C172.227 53.5352 172.195 54.0039 172.195 54.4961V54.8359C172.195 55.3281 172.227 55.8008 172.289 56.2539C172.352 56.707 172.469 57.1094 172.641 57.4609C172.82 57.8125 173.066 58.0898 173.379 58.293C173.691 58.4961 174.098 58.5977 174.598 58.5977ZM188.086 48.3203V50.7109H180.703V48.3203H188.086ZM182.531 45.1914H185.906V57.1797C185.906 57.5469 185.953 57.8281 186.047 58.0234C186.148 58.2188 186.297 58.3555 186.492 58.4336C186.688 58.5039 186.934 58.5391 187.23 58.5391C187.441 58.5391 187.629 58.5312 187.793 58.5156C187.965 58.4922 188.109 58.4688 188.227 58.4453L188.238 60.9297C187.949 61.0234 187.637 61.0977 187.301 61.1523C186.965 61.207 186.594 61.2344 186.188 61.2344C185.445 61.2344 184.797 61.1133 184.242 60.8711C183.695 60.6211 183.273 60.2227 182.977 59.6758C182.68 59.1289 182.531 58.4102 182.531 57.5195V45.1914ZM201.598 50.8867V53.6289H192.691V50.8867H201.598ZM193.734 43.9375V61H190.219V43.9375H193.734ZM204.105 43.9375V61H200.602V43.9375H204.105ZM214.453 57.9648V48.3203H217.828V61H214.652L214.453 57.9648ZM214.828 55.3633L215.824 55.3398C215.824 56.1836 215.727 56.9688 215.531 57.6953C215.336 58.4141 215.043 59.0391 214.652 59.5703C214.262 60.0938 213.77 60.5039 213.176 60.8008C212.582 61.0898 211.883 61.2344 211.078 61.2344C210.461 61.2344 209.891 61.1484 209.367 60.9766C208.852 60.7969 208.406 60.5195 208.031 60.1445C207.664 59.7617 207.375 59.2734 207.164 58.6797C206.961 58.0781 206.859 57.3555 206.859 56.5117V48.3203H210.234V56.5352C210.234 56.9102 210.277 57.2266 210.363 57.4844C210.457 57.7422 210.586 57.9531 210.75 58.1172C210.914 58.2812 211.105 58.3984 211.324 58.4688C211.551 58.5391 211.801 58.5742 212.074 58.5742C212.77 58.5742 213.316 58.4336 213.715 58.1523C214.121 57.8711 214.406 57.4883 214.57 57.0039C214.742 56.5117 214.828 55.9648 214.828 55.3633ZM220.406 43H223.781V58.0938L223.441 61H220.406V43ZM231.809 54.5312V54.7773C231.809 55.7227 231.707 56.5898 231.504 57.3789C231.309 58.168 231.004 58.8516 230.59 59.4297C230.176 60 229.66 60.4453 229.043 60.7656C228.434 61.0781 227.715 61.2344 226.887 61.2344C226.113 61.2344 225.441 61.0781 224.871 60.7656C224.309 60.4531 223.836 60.0117 223.453 59.4414C223.07 58.8711 222.762 58.2031 222.527 57.4375C222.293 56.6719 222.117 55.8359 222 54.9297V54.3906C222.117 53.4844 222.293 52.6484 222.527 51.8828C222.762 51.1172 223.07 50.4492 223.453 49.8789C223.836 49.3086 224.309 48.8672 224.871 48.5547C225.434 48.2422 226.098 48.0859 226.863 48.0859C227.699 48.0859 228.426 48.2461 229.043 48.5664C229.668 48.8789 230.184 49.3242 230.59 49.9023C231.004 50.4727 231.309 51.1523 231.504 51.9414C231.707 52.7227 231.809 53.5859 231.809 54.5312ZM228.434 54.7773V54.5312C228.434 54.0156 228.395 53.5312 228.316 53.0781C228.246 52.6172 228.121 52.2148 227.941 51.8711C227.762 51.5195 227.516 51.2422 227.203 51.0391C226.898 50.8359 226.504 50.7344 226.02 50.7344C225.559 50.7344 225.168 50.8125 224.848 50.9688C224.527 51.125 224.262 51.3438 224.051 51.625C223.848 51.9062 223.695 52.2422 223.594 52.6328C223.492 53.0156 223.43 53.4375 223.406 53.8984V55.4336C223.43 56.0508 223.531 56.5977 223.711 57.0742C223.898 57.543 224.18 57.9141 224.555 58.1875C224.938 58.4531 225.434 58.5859 226.043 58.5859C226.52 58.5859 226.914 58.4922 227.227 58.3047C227.539 58.1172 227.781 57.8516 227.953 57.5078C228.133 57.1641 228.258 56.7617 228.328 56.3008C228.398 55.832 228.434 55.3242 228.434 54.7773Z" fill="#888888"/>
<path d="M106.688 119H99.1172L99.1641 112.672H106.688C108.25 112.672 109.57 112.297 110.648 111.547C111.742 110.797 112.57 109.68 113.133 108.195C113.711 106.695 114 104.852 114 102.664V101.188C114 99.5469 113.836 98.1094 113.508 96.875C113.195 95.625 112.727 94.5859 112.102 93.7578C111.477 92.9141 110.695 92.2812 109.758 91.8594C108.836 91.4375 107.773 91.2266 106.57 91.2266H98.9766V84.875H106.57C108.883 84.875 111 85.2734 112.922 86.0703C114.859 86.8516 116.531 87.9766 117.938 89.4453C119.359 90.8984 120.453 92.625 121.219 94.625C122 96.6094 122.391 98.8125 122.391 101.234V102.664C122.391 105.07 122 107.273 121.219 109.273C120.453 111.273 119.367 113 117.961 114.453C116.555 115.906 114.891 117.031 112.969 117.828C111.062 118.609 108.969 119 106.688 119ZM103.828 84.875V119H95.6016V84.875H103.828ZM138.586 119.469C136.523 119.469 134.68 119.148 133.055 118.508C131.43 117.852 130.055 116.953 128.93 115.812C127.82 114.672 126.969 113.359 126.375 111.875C125.797 110.391 125.508 108.82 125.508 107.164V106.273C125.508 104.414 125.766 102.695 126.281 101.117C126.797 99.5234 127.562 98.1328 128.578 96.9453C129.594 95.7578 130.867 94.8359 132.398 94.1797C133.93 93.5078 135.711 93.1719 137.742 93.1719C139.539 93.1719 141.148 93.4609 142.57 94.0391C143.992 94.6172 145.195 95.4453 146.18 96.5234C147.18 97.6016 147.938 98.9062 148.453 100.438C148.984 101.969 149.25 103.688 149.25 105.594V108.805H128.531V103.859H141.539V103.25C141.555 102.406 141.406 101.688 141.094 101.094C140.797 100.5 140.359 100.047 139.781 99.7344C139.203 99.4219 138.5 99.2656 137.672 99.2656C136.812 99.2656 136.102 99.4531 135.539 99.8281C134.992 100.203 134.562 100.719 134.25 101.375C133.953 102.016 133.742 102.758 133.617 103.602C133.492 104.445 133.43 105.336 133.43 106.273V107.164C133.43 108.102 133.555 108.953 133.805 109.719C134.07 110.484 134.445 111.141 134.93 111.688C135.43 112.219 136.023 112.633 136.711 112.93C137.414 113.227 138.211 113.375 139.102 113.375C140.18 113.375 141.242 113.172 142.289 112.766C143.336 112.359 144.234 111.688 144.984 110.75L148.57 115.016C148.055 115.75 147.32 116.461 146.367 117.148C145.43 117.836 144.305 118.398 142.992 118.836C141.68 119.258 140.211 119.469 138.586 119.469ZM160.43 99.0078V119H152.531V93.6406H159.938L160.43 99.0078ZM159.469 105.453L157.664 105.5C157.664 103.719 157.875 102.078 158.297 100.578C158.719 99.0781 159.344 97.7734 160.172 96.6641C161 95.5547 162.016 94.6953 163.219 94.0859C164.438 93.4766 165.844 93.1719 167.438 93.1719C168.547 93.1719 169.555 93.3438 170.461 93.6875C171.367 94.0156 172.148 94.5391 172.805 95.2578C173.461 95.9609 173.961 96.8828 174.305 98.0234C174.664 99.1484 174.844 100.5 174.844 102.078V119H166.945V103.086C166.945 102.008 166.82 101.195 166.57 100.648C166.336 100.102 165.992 99.7344 165.539 99.5469C165.086 99.3594 164.531 99.2656 163.875 99.2656C163.188 99.2656 162.57 99.4219 162.023 99.7344C161.477 100.047 161.008 100.484 160.617 101.047C160.242 101.594 159.953 102.242 159.75 102.992C159.562 103.742 159.469 104.562 159.469 105.453ZM173.953 105.453L171.75 105.5C171.75 103.719 171.945 102.078 172.336 100.578C172.742 99.0781 173.344 97.7734 174.141 96.6641C174.953 95.5547 175.961 94.6953 177.164 94.0859C178.367 93.4766 179.766 93.1719 181.359 93.1719C182.516 93.1719 183.578 93.3438 184.547 93.6875C185.516 94.0312 186.352 94.5859 187.055 95.3516C187.758 96.1172 188.305 97.1328 188.695 98.3984C189.086 99.6484 189.281 101.195 189.281 103.039V119H181.359V103.039C181.359 101.992 181.234 101.203 180.984 100.672C180.75 100.125 180.406 99.7578 179.953 99.5703C179.5 99.3672 178.961 99.2656 178.336 99.2656C177.586 99.2656 176.938 99.4219 176.391 99.7344C175.844 100.047 175.383 100.484 175.008 101.047C174.648 101.594 174.383 102.242 174.211 102.992C174.039 103.742 173.953 104.562 173.953 105.453ZM192.82 106.578V106.086C192.82 104.227 193.086 102.516 193.617 100.953C194.148 99.375 194.93 98.0078 195.961 96.8516C196.992 95.6953 198.266 94.7969 199.781 94.1562C201.297 93.5 203.047 93.1719 205.031 93.1719C207.031 93.1719 208.789 93.5 210.305 94.1562C211.836 94.7969 213.117 95.6953 214.148 96.8516C215.18 98.0078 215.961 99.375 216.492 100.953C217.023 102.516 217.289 104.227 217.289 106.086V106.578C217.289 108.422 217.023 110.133 216.492 111.711C215.961 113.273 215.18 114.641 214.148 115.812C213.117 116.969 211.844 117.867 210.328 118.508C208.812 119.148 207.062 119.469 205.078 119.469C203.094 119.469 201.336 119.148 199.805 118.508C198.273 117.867 196.992 116.969 195.961 115.812C194.93 114.641 194.148 113.273 193.617 111.711C193.086 110.133 192.82 108.422 192.82 106.578ZM200.719 106.086V106.578C200.719 107.531 200.789 108.422 200.93 109.25C201.07 110.078 201.305 110.805 201.633 111.43C201.961 112.039 202.406 112.516 202.969 112.859C203.531 113.203 204.234 113.375 205.078 113.375C205.906 113.375 206.594 113.203 207.141 112.859C207.703 112.516 208.148 112.039 208.477 111.43C208.805 110.805 209.039 110.078 209.18 109.25C209.32 108.422 209.391 107.531 209.391 106.578V106.086C209.391 105.164 209.32 104.297 209.18 103.484C209.039 102.656 208.805 101.93 208.477 101.305C208.148 100.664 207.703 100.164 207.141 99.8047C206.578 99.4453 205.875 99.2656 205.031 99.2656C204.203 99.2656 203.508 99.4453 202.945 99.8047C202.398 100.164 201.961 100.664 201.633 101.305C201.305 101.93 201.07 102.656 200.93 103.484C200.789 104.297 200.719 105.164 200.719 106.086Z" fill="black"/>
<path d="M1134 0H1348C1356.28 0 1363 6.71573 1363 15V148C1363 156.284 1356.28 163 1348 163H1134V0Z" fill="#0F8EEA"/>
<path d="M1281 46.5H1216L1213.5 49V114L1216 116.5H1281L1283.5 114V49L1281 46.5ZM1278.5 111.5H1233.5V101.5H1245C1246.5 104.5 1250 106.5 1253.5 106.5C1259 106.5 1263.5 102 1263.5 96.5C1263.5 91 1259 86.5 1253.5 86.5C1248 86.5 1243.5 91 1243.5 96.5H1228.5V111.5H1218.5V51.5H1228.5V63C1225.5 64.5 1223.5 68 1223.5 71.5C1223.5 77 1228 81.5 1233.5 81.5C1239 81.5 1243.5 77 1243.5 71.5H1253.5C1253.5 77 1258 81.5 1263.5 81.5C1269 81.5 1273.5 77 1273.5 71.5C1273.5 66 1269 61.5 1263.5 61.5C1260 61.5 1256.5 63.5 1255 66.5H1242C1240.5 63.5 1237 61.5 1233.5 61.5V51.5H1278.5V111.5ZM1248.5 96.5C1248.5 93.5 1250.5 91.5 1253.5 91.5C1256.5 91.5 1258.5 93.5 1258.5 96.5C1258.5 99.5 1256.5 101.5 1253.5 101.5C1250.5 101.5 1248.5 99.5 1248.5 96.5ZM1233.5 66.5C1236.5 66.5 1238.5 68.5 1238.5 71.5C1238.5 74.5 1236.5 76.5 1233.5 76.5C1230.5 76.5 1228.5 74.5 1228.5 71.5C1228.5 68.5 1230.5 66.5 1233.5 66.5ZM1263.5 66.5C1266.5 66.5 1268.5 68.5 1268.5 71.5C1268.5 74.5 1266.5 76.5 1263.5 76.5C1260.5 76.5 1258.5 74.5 1258.5 71.5C1258.5 68.5 1260.5 66.5 1263.5 66.5Z" fill="white"/>
</svg>
