<svg width="1363" height="163" viewBox="0 0 1363 163" fill="none" xmlns="http://www.w3.org/2000/svg">
<path d="M0 15C0 6.71573 6.71573 0 15 0H37V163H15C6.71573 163 0 156.284 0 148V15Z" fill="#0F8EEA"/>
<rect width="1097" height="163" transform="translate(37)" fill="#F0F0F0"/>
<path d="M101.906 53.9219L94.3945 51.2383V48.0859L104.602 52.375V54.6367L101.906 53.9219ZM94.3945 56.1719L101.918 53.4297L104.602 52.7852V55.0352L94.3945 59.3242V56.1719ZM119.543 54.918H115.195V52.1758H119.543C120.215 52.1758 120.762 52.0664 121.184 51.8477C121.605 51.6211 121.914 51.3086 122.109 50.9102C122.305 50.5117 122.402 50.0625 122.402 49.5625C122.402 49.0547 122.305 48.582 122.109 48.1445C121.914 47.707 121.605 47.3555 121.184 47.0898C120.762 46.8242 120.215 46.6914 119.543 46.6914H116.414V61H112.898V43.9375H119.543C120.879 43.9375 122.023 44.1797 122.977 44.6641C123.938 45.1406 124.672 45.8008 125.18 46.6445C125.688 47.4883 125.941 48.4531 125.941 49.5391C125.941 50.6406 125.688 51.5938 125.18 52.3984C124.672 53.2031 123.938 53.8242 122.977 54.2617C122.023 54.6992 120.879 54.918 119.543 54.918ZM131.531 51.0859V61H128.156V48.3203H131.332L131.531 51.0859ZM135.352 48.2383L135.293 51.3672C135.129 51.3438 134.93 51.3242 134.695 51.3086C134.469 51.2852 134.262 51.2734 134.074 51.2734C133.598 51.2734 133.184 51.3359 132.832 51.4609C132.488 51.5781 132.199 51.7539 131.965 51.9883C131.738 52.2227 131.566 52.5078 131.449 52.8438C131.34 53.1797 131.277 53.5625 131.262 53.9922L130.582 53.7812C130.582 52.9609 130.664 52.207 130.828 51.5195C130.992 50.8242 131.23 50.2188 131.543 49.7031C131.863 49.1875 132.254 48.7891 132.715 48.5078C133.176 48.2266 133.703 48.0859 134.297 48.0859C134.484 48.0859 134.676 48.1016 134.871 48.1328C135.066 48.1562 135.227 48.1914 135.352 48.2383ZM136.055 54.7891V54.543C136.055 53.6133 136.188 52.7578 136.453 51.9766C136.719 51.1875 137.105 50.5039 137.613 49.9258C138.121 49.3477 138.746 48.8984 139.488 48.5781C140.23 48.25 141.082 48.0859 142.043 48.0859C143.004 48.0859 143.859 48.25 144.609 48.5781C145.359 48.8984 145.988 49.3477 146.496 49.9258C147.012 50.5039 147.402 51.1875 147.668 51.9766C147.934 52.7578 148.066 53.6133 148.066 54.543V54.7891C148.066 55.7109 147.934 56.5664 147.668 57.3555C147.402 58.1367 147.012 58.8203 146.496 59.4062C145.988 59.9844 145.363 60.4336 144.621 60.7539C143.879 61.0742 143.027 61.2344 142.066 61.2344C141.105 61.2344 140.25 61.0742 139.5 60.7539C138.758 60.4336 138.129 59.9844 137.613 59.4062C137.105 58.8203 136.719 58.1367 136.453 57.3555C136.188 56.5664 136.055 55.7109 136.055 54.7891ZM139.43 54.543V54.7891C139.43 55.3203 139.477 55.8164 139.57 56.2773C139.664 56.7383 139.812 57.1445 140.016 57.4961C140.227 57.8398 140.5 58.1094 140.836 58.3047C141.172 58.5 141.582 58.5977 142.066 58.5977C142.535 58.5977 142.938 58.5 143.273 58.3047C143.609 58.1094 143.879 57.8398 144.082 57.4961C144.285 57.1445 144.434 56.7383 144.527 56.2773C144.629 55.8164 144.68 55.3203 144.68 54.7891V54.543C144.68 54.0273 144.629 53.543 144.527 53.0898C144.434 52.6289 144.281 52.2227 144.07 51.8711C143.867 51.5117 143.598 51.2305 143.262 51.0273C142.926 50.8242 142.52 50.7227 142.043 50.7227C141.566 50.7227 141.16 50.8242 140.824 51.0273C140.496 51.2305 140.227 51.5117 140.016 51.8711C139.812 52.2227 139.664 52.6289 139.57 53.0898C139.477 53.543 139.43 54.0273 139.43 54.543ZM150.328 48.3203H153.715V61.7617C153.715 62.6992 153.543 63.4922 153.199 64.1406C152.855 64.7891 152.359 65.2812 151.711 65.6172C151.062 65.9531 150.277 66.1211 149.355 66.1211C149.066 66.1211 148.785 66.1055 148.512 66.0742C148.23 66.043 147.941 65.9922 147.645 65.9219L147.656 63.332C147.844 63.3633 148.027 63.3867 148.207 63.4023C148.379 63.4258 148.555 63.4375 148.734 63.4375C149.086 63.4375 149.379 63.3789 149.613 63.2617C149.848 63.1445 150.023 62.9609 150.141 62.7109C150.266 62.4688 150.328 62.1523 150.328 61.7617V48.3203ZM150.059 45.0156C150.059 44.5234 150.23 44.1172 150.574 43.7969C150.926 43.4766 151.387 43.3164 151.957 43.3164C152.535 43.3164 152.996 43.4766 153.34 43.7969C153.684 44.1172 153.855 44.5234 153.855 45.0156C153.855 45.5078 153.684 45.9141 153.34 46.2344C152.996 46.5547 152.535 46.7148 151.957 46.7148C151.387 46.7148 150.926 46.5547 150.574 46.2344C150.23 45.9141 150.059 45.5078 150.059 45.0156ZM162.234 61.2344C161.25 61.2344 160.367 61.0781 159.586 60.7656C158.805 60.4453 158.141 60.0039 157.594 59.4414C157.055 58.8789 156.641 58.2266 156.352 57.4844C156.062 56.7344 155.918 55.9375 155.918 55.0938V54.625C155.918 53.6641 156.055 52.7852 156.328 51.9883C156.602 51.1914 156.992 50.5 157.5 49.9141C158.016 49.3281 158.641 48.8789 159.375 48.5664C160.109 48.2461 160.938 48.0859 161.859 48.0859C162.758 48.0859 163.555 48.2344 164.25 48.5312C164.945 48.8281 165.527 49.25 165.996 49.7969C166.473 50.3438 166.832 51 167.074 51.7656C167.316 52.5234 167.438 53.3672 167.438 54.2969V55.7031H157.359V53.4531H164.121V53.1953C164.121 52.7266 164.035 52.3086 163.863 51.9414C163.699 51.5664 163.449 51.2695 163.113 51.0508C162.777 50.832 162.348 50.7227 161.824 50.7227C161.379 50.7227 160.996 50.8203 160.676 51.0156C160.355 51.2109 160.094 51.4844 159.891 51.8359C159.695 52.1875 159.547 52.6016 159.445 53.0781C159.352 53.5469 159.305 54.0625 159.305 54.625V55.0938C159.305 55.6016 159.375 56.0703 159.516 56.5C159.664 56.9297 159.871 57.3008 160.137 57.6133C160.41 57.9258 160.738 58.168 161.121 58.3398C161.512 58.5117 161.953 58.5977 162.445 58.5977C163.055 58.5977 163.621 58.4805 164.145 58.2461C164.676 58.0039 165.133 57.6406 165.516 57.1562L167.156 58.9375C166.891 59.3203 166.527 59.6875 166.066 60.0391C165.613 60.3906 165.066 60.6797 164.426 60.9062C163.785 61.125 163.055 61.2344 162.234 61.2344ZM174.598 58.5977C175.012 58.5977 175.379 58.5195 175.699 58.3633C176.02 58.1992 176.27 57.9727 176.449 57.6836C176.637 57.3867 176.734 57.0391 176.742 56.6406H179.918C179.91 57.5312 179.672 58.3242 179.203 59.0195C178.734 59.707 178.105 60.25 177.316 60.6484C176.527 61.0391 175.645 61.2344 174.668 61.2344C173.684 61.2344 172.824 61.0703 172.09 60.7422C171.363 60.4141 170.758 59.9609 170.273 59.3828C169.789 58.7969 169.426 58.1172 169.184 57.3438C168.941 56.5625 168.82 55.7266 168.82 54.8359V54.4961C168.82 53.5977 168.941 52.7617 169.184 51.9883C169.426 51.207 169.789 50.5273 170.273 49.9492C170.758 49.3633 171.363 48.9062 172.09 48.5781C172.816 48.25 173.668 48.0859 174.645 48.0859C175.684 48.0859 176.594 48.2852 177.375 48.6836C178.164 49.082 178.781 49.6523 179.227 50.3945C179.68 51.1289 179.91 52 179.918 53.0078H176.742C176.734 52.5859 176.645 52.2031 176.473 51.8594C176.309 51.5156 176.066 51.2422 175.746 51.0391C175.434 50.8281 175.047 50.7227 174.586 50.7227C174.094 50.7227 173.691 50.8281 173.379 51.0391C173.066 51.2422 172.824 51.5234 172.652 51.8828C172.48 52.2344 172.359 52.6367 172.289 53.0898C172.227 53.5352 172.195 54.0039 172.195 54.4961V54.8359C172.195 55.3281 172.227 55.8008 172.289 56.2539C172.352 56.707 172.469 57.1094 172.641 57.4609C172.82 57.8125 173.066 58.0898 173.379 58.293C173.691 58.4961 174.098 58.5977 174.598 58.5977ZM188.086 48.3203V50.7109H180.703V48.3203H188.086ZM182.531 45.1914H185.906V57.1797C185.906 57.5469 185.953 57.8281 186.047 58.0234C186.148 58.2188 186.297 58.3555 186.492 58.4336C186.688 58.5039 186.934 58.5391 187.23 58.5391C187.441 58.5391 187.629 58.5312 187.793 58.5156C187.965 58.4922 188.109 58.4688 188.227 58.4453L188.238 60.9297C187.949 61.0234 187.637 61.0977 187.301 61.1523C186.965 61.207 186.594 61.2344 186.188 61.2344C185.445 61.2344 184.797 61.1133 184.242 60.8711C183.695 60.6211 183.273 60.2227 182.977 59.6758C182.68 59.1289 182.531 58.4102 182.531 57.5195V45.1914ZM201.598 50.8867V53.6289H192.691V50.8867H201.598ZM193.734 43.9375V61H190.219V43.9375H193.734ZM204.105 43.9375V61H200.602V43.9375H204.105ZM214.453 57.9648V48.3203H217.828V61H214.652L214.453 57.9648ZM214.828 55.3633L215.824 55.3398C215.824 56.1836 215.727 56.9688 215.531 57.6953C215.336 58.4141 215.043 59.0391 214.652 59.5703C214.262 60.0938 213.77 60.5039 213.176 60.8008C212.582 61.0898 211.883 61.2344 211.078 61.2344C210.461 61.2344 209.891 61.1484 209.367 60.9766C208.852 60.7969 208.406 60.5195 208.031 60.1445C207.664 59.7617 207.375 59.2734 207.164 58.6797C206.961 58.0781 206.859 57.3555 206.859 56.5117V48.3203H210.234V56.5352C210.234 56.9102 210.277 57.2266 210.363 57.4844C210.457 57.7422 210.586 57.9531 210.75 58.1172C210.914 58.2812 211.105 58.3984 211.324 58.4688C211.551 58.5391 211.801 58.5742 212.074 58.5742C212.77 58.5742 213.316 58.4336 213.715 58.1523C214.121 57.8711 214.406 57.4883 214.57 57.0039C214.742 56.5117 214.828 55.9648 214.828 55.3633ZM220.406 43H223.781V58.0938L223.441 61H220.406V43ZM231.809 54.5312V54.7773C231.809 55.7227 231.707 56.5898 231.504 57.3789C231.309 58.168 231.004 58.8516 230.59 59.4297C230.176 60 229.66 60.4453 229.043 60.7656C228.434 61.0781 227.715 61.2344 226.887 61.2344C226.113 61.2344 225.441 61.0781 224.871 60.7656C224.309 60.4531 223.836 60.0117 223.453 59.4414C223.07 58.8711 222.762 58.2031 222.527 57.4375C222.293 56.6719 222.117 55.8359 222 54.9297V54.3906C222.117 53.4844 222.293 52.6484 222.527 51.8828C222.762 51.1172 223.07 50.4492 223.453 49.8789C223.836 49.3086 224.309 48.8672 224.871 48.5547C225.434 48.2422 226.098 48.0859 226.863 48.0859C227.699 48.0859 228.426 48.2461 229.043 48.5664C229.668 48.8789 230.184 49.3242 230.59 49.9023C231.004 50.4727 231.309 51.1523 231.504 51.9414C231.707 52.7227 231.809 53.5859 231.809 54.5312ZM228.434 54.7773V54.5312C228.434 54.0156 228.395 53.5312 228.316 53.0781C228.246 52.6172 228.121 52.2148 227.941 51.8711C227.762 51.5195 227.516 51.2422 227.203 51.0391C226.898 50.8359 226.504 50.7344 226.02 50.7344C225.559 50.7344 225.168 50.8125 224.848 50.9688C224.527 51.125 224.262 51.3438 224.051 51.625C223.848 51.9062 223.695 52.2422 223.594 52.6328C223.492 53.0156 223.43 53.4375 223.406 53.8984V55.4336C223.43 56.0508 223.531 56.5977 223.711 57.0742C223.898 57.543 224.18 57.9141 224.555 58.1875C224.938 58.4531 225.434 58.5859 226.043 58.5859C226.52 58.5859 226.914 58.4922 227.227 58.3047C227.539 58.1172 227.781 57.8516 227.953 57.5078C228.133 57.1641 228.258 56.7617 228.328 56.3008C228.398 55.832 228.434 55.3242 228.434 54.7773Z" fill="#888888"/>
<path d="M118.594 98.4219V104.75H101.086V98.4219H118.594ZM103.828 84.875V119H95.6016V84.875H103.828ZM124.125 84.875V119H115.922V84.875H124.125ZM127.992 106.578V106.086C127.992 104.227 128.258 102.516 128.789 100.953C129.32 99.375 130.102 98.0078 131.133 96.8516C132.164 95.6953 133.438 94.7969 134.953 94.1562C136.469 93.5 138.219 93.1719 140.203 93.1719C142.203 93.1719 143.961 93.5 145.477 94.1562C147.008 94.7969 148.289 95.6953 149.32 96.8516C150.352 98.0078 151.133 99.375 151.664 100.953C152.195 102.516 152.461 104.227 152.461 106.086V106.578C152.461 108.422 152.195 110.133 151.664 111.711C151.133 113.273 150.352 114.641 149.32 115.812C148.289 116.969 147.016 117.867 145.5 118.508C143.984 119.148 142.234 119.469 140.25 119.469C138.266 119.469 136.508 119.148 134.977 118.508C133.445 117.867 132.164 116.969 131.133 115.812C130.102 114.641 129.32 113.273 128.789 111.711C128.258 110.133 127.992 108.422 127.992 106.578ZM135.891 106.086V106.578C135.891 107.531 135.961 108.422 136.102 109.25C136.242 110.078 136.477 110.805 136.805 111.43C137.133 112.039 137.578 112.516 138.141 112.859C138.703 113.203 139.406 113.375 140.25 113.375C141.078 113.375 141.766 113.203 142.312 112.859C142.875 112.516 143.32 112.039 143.648 111.43C143.977 110.805 144.211 110.078 144.352 109.25C144.492 108.422 144.562 107.531 144.562 106.578V106.086C144.562 105.164 144.492 104.297 144.352 103.484C144.211 102.656 143.977 101.93 143.648 101.305C143.32 100.664 142.875 100.164 142.312 99.8047C141.75 99.4453 141.047 99.2656 140.203 99.2656C139.375 99.2656 138.68 99.4453 138.117 99.8047C137.57 100.164 137.133 100.664 136.805 101.305C136.477 101.93 136.242 102.656 136.102 103.484C135.961 104.297 135.891 105.164 135.891 106.086ZM163.688 111.453L168.375 93.6406H173.32L171.562 102.57L166.922 119H162.961L163.688 111.453ZM161.836 93.6406L164.742 111.312L165.07 119H160.266L154.266 93.6406H161.836ZM177.492 110.938L180.422 93.6406H187.992L182.039 119H177.234L177.492 110.938ZM173.883 93.6406L178.617 111.406L179.344 119H175.336L170.789 102.617L169.102 93.6406H173.883ZM218.297 84.875V119H210.07V84.875H218.297ZM228.562 84.875V91.2266H200.039V84.875H228.562ZM225.773 106.578V106.086C225.773 104.227 226.039 102.516 226.57 100.953C227.102 99.375 227.883 98.0078 228.914 96.8516C229.945 95.6953 231.219 94.7969 232.734 94.1562C234.25 93.5 236 93.1719 237.984 93.1719C239.984 93.1719 241.742 93.5 243.258 94.1562C244.789 94.7969 246.07 95.6953 247.102 96.8516C248.133 98.0078 248.914 99.375 249.445 100.953C249.977 102.516 250.242 104.227 250.242 106.086V106.578C250.242 108.422 249.977 110.133 249.445 111.711C248.914 113.273 248.133 114.641 247.102 115.812C246.07 116.969 244.797 117.867 243.281 118.508C241.766 119.148 240.016 119.469 238.031 119.469C236.047 119.469 234.289 119.148 232.758 118.508C231.227 117.867 229.945 116.969 228.914 115.812C227.883 114.641 227.102 113.273 226.57 111.711C226.039 110.133 225.773 108.422 225.773 106.578ZM233.672 106.086V106.578C233.672 107.531 233.742 108.422 233.883 109.25C234.023 110.078 234.258 110.805 234.586 111.43C234.914 112.039 235.359 112.516 235.922 112.859C236.484 113.203 237.188 113.375 238.031 113.375C238.859 113.375 239.547 113.203 240.094 112.859C240.656 112.516 241.102 112.039 241.43 111.43C241.758 110.805 241.992 110.078 242.133 109.25C242.273 108.422 242.344 107.531 242.344 106.578V106.086C242.344 105.164 242.273 104.297 242.133 103.484C241.992 102.656 241.758 101.93 241.43 101.305C241.102 100.664 240.656 100.164 240.094 99.8047C239.531 99.4453 238.828 99.2656 237.984 99.2656C237.156 99.2656 236.461 99.4453 235.898 99.8047C235.352 100.164 234.914 100.664 234.586 101.305C234.258 101.93 234.023 102.656 233.883 103.484C233.742 104.297 233.672 105.164 233.672 106.086ZM266.086 84.875H279.516C282.141 84.875 284.422 85.2656 286.359 86.0469C288.297 86.8281 289.789 87.9844 290.836 89.5156C291.898 91.0469 292.43 92.9375 292.43 95.1875C292.43 97.1406 292.125 98.7734 291.516 100.086C290.906 101.398 290.055 102.484 288.961 103.344C287.883 104.188 286.625 104.883 285.188 105.43L282.492 106.953H271.219L271.172 100.602H279.516C280.562 100.602 281.43 100.414 282.117 100.039C282.805 99.6641 283.32 99.1328 283.664 98.4453C284.023 97.7422 284.203 96.9062 284.203 95.9375C284.203 94.9531 284.023 94.1094 283.664 93.4062C283.305 92.7031 282.773 92.1641 282.07 91.7891C281.383 91.4141 280.531 91.2266 279.516 91.2266H274.312V119H266.086V84.875ZM284.766 119L277.219 103.906L285.938 103.859L293.578 118.648V119H284.766ZM311.836 112.836V93.6406H319.758V119H312.352L311.836 112.836ZM312.586 107.68L314.648 107.633C314.648 109.336 314.445 110.914 314.039 112.367C313.633 113.805 313.031 115.055 312.234 116.117C311.453 117.18 310.484 118.008 309.328 118.602C308.188 119.18 306.867 119.469 305.367 119.469C304.117 119.469 302.969 119.297 301.922 118.953C300.891 118.594 300 118.039 299.25 117.289C298.5 116.523 297.914 115.547 297.492 114.359C297.086 113.156 296.883 111.719 296.883 110.047V93.6406H304.781V110.094C304.781 110.656 304.852 111.141 304.992 111.547C305.133 111.953 305.336 112.297 305.602 112.578C305.867 112.844 306.195 113.047 306.586 113.188C306.992 113.312 307.453 113.375 307.969 113.375C309.156 113.375 310.086 113.125 310.758 112.625C311.43 112.125 311.898 111.445 312.164 110.586C312.445 109.727 312.586 108.758 312.586 107.68ZM331.875 99.0547V119H323.977V93.6406H331.383L331.875 99.0547ZM330.938 105.453L329.086 105.5C329.086 103.562 329.32 101.836 329.789 100.32C330.258 98.7891 330.922 97.4922 331.781 96.4297C332.641 95.3672 333.664 94.5625 334.852 94.0156C336.055 93.4531 337.391 93.1719 338.859 93.1719C340.031 93.1719 341.102 93.3438 342.07 93.6875C343.055 94.0312 343.898 94.5859 344.602 95.3516C345.32 96.1172 345.867 97.1328 346.242 98.3984C346.633 99.6484 346.828 101.195 346.828 103.039V119H338.883V103.016C338.883 102 338.742 101.227 338.461 100.695C338.18 100.148 337.773 99.7734 337.242 99.5703C336.711 99.3672 336.062 99.2656 335.297 99.2656C334.484 99.2656 333.797 99.4219 333.234 99.7344C332.672 100.047 332.219 100.484 331.875 101.047C331.547 101.594 331.305 102.242 331.148 102.992C331.008 103.742 330.938 104.562 330.938 105.453ZM363.773 108.195H357.047C357.047 106.82 357.141 105.609 357.328 104.562C357.531 103.5 357.875 102.547 358.359 101.703C358.844 100.859 359.5 100.078 360.328 99.3594C361.062 98.75 361.695 98.1641 362.227 97.6016C362.758 97.0391 363.164 96.4688 363.445 95.8906C363.727 95.3125 363.867 94.6953 363.867 94.0391C363.867 93.2266 363.75 92.5625 363.516 92.0469C363.297 91.5312 362.961 91.1484 362.508 90.8984C362.07 90.6328 361.516 90.5 360.844 90.5C360.297 90.5 359.781 90.6328 359.297 90.8984C358.828 91.1641 358.445 91.5781 358.148 92.1406C357.852 92.6875 357.688 93.4141 357.656 94.3203H349.711C349.758 91.9922 350.273 90.1016 351.258 88.6484C352.258 87.1797 353.586 86.1094 355.242 85.4375C356.914 84.75 358.781 84.4062 360.844 84.4062C363.125 84.4062 365.086 84.7578 366.727 85.4609C368.367 86.1641 369.625 87.2109 370.5 88.6016C371.375 89.9766 371.812 91.6719 371.812 93.6875C371.812 95.0312 371.555 96.2031 371.039 97.2031C370.539 98.1875 369.859 99.1094 369 99.9688C368.156 100.812 367.211 101.719 366.164 102.688C365.258 103.484 364.641 104.297 364.312 105.125C363.984 105.938 363.805 106.961 363.773 108.195ZM356.086 115.32C356.086 114.195 356.492 113.258 357.305 112.508C358.117 111.742 359.172 111.359 360.469 111.359C361.766 111.359 362.82 111.742 363.633 112.508C364.445 113.258 364.852 114.195 364.852 115.32C364.852 116.445 364.445 117.391 363.633 118.156C362.82 118.906 361.766 119.281 360.469 119.281C359.172 119.281 358.117 118.906 357.305 118.156C356.492 117.391 356.086 116.445 356.086 115.32Z" fill="black"/>
<path d="M1134 0H1348C1356.28 0 1363 6.71573 1363 15V148C1363 156.284 1356.28 163 1348 163H1134V0Z" fill="#0F8EEA"/>
<path d="M1260.62 78.8078C1263.81 78.8078 1266.93 79.7552 1269.59 81.5302C1272.25 83.3052 1274.32 85.8281 1275.54 88.7798C1276.76 91.7315 1277.08 94.9795 1276.46 98.1131C1275.84 101.247 1274.3 104.125 1272.04 106.384C1269.78 108.643 1266.9 110.182 1263.77 110.805C1260.63 111.428 1257.39 111.108 1254.43 109.886C1251.48 108.663 1248.96 106.593 1247.18 103.936C1245.41 101.28 1244.46 98.1565 1244.46 94.9616C1244.46 90.6774 1246.16 86.5686 1249.19 83.5392C1252.22 80.5097 1256.33 78.8078 1260.62 78.8078ZM1260.62 73.4232C1256.36 73.4232 1252.19 74.6864 1248.65 77.0531C1245.11 79.4198 1242.35 82.7836 1240.72 86.7192C1239.09 90.6549 1238.66 94.9855 1239.49 99.1636C1240.32 103.342 1242.37 107.179 1245.39 110.192C1248.4 113.204 1252.24 115.255 1256.41 116.086C1260.59 116.917 1264.92 116.491 1268.86 114.861C1272.79 113.23 1276.16 110.47 1278.52 106.928C1280.89 103.386 1282.15 99.2215 1282.15 94.9616C1282.15 89.2493 1279.88 83.7709 1275.85 79.7317C1271.81 75.6924 1266.33 73.4232 1260.62 73.4232Z" fill="white"/>
<path d="M1274.08 46.4999H1220.23C1218.8 46.4999 1217.43 47.0672 1216.42 48.0771C1215.41 49.0869 1214.85 50.4565 1214.85 51.8845V105.731C1214.85 107.159 1215.41 108.528 1216.42 109.538C1217.43 110.548 1218.8 111.115 1220.23 111.115H1231V105.731H1220.23V68.0383H1279.46V51.8845C1279.46 50.4565 1278.89 49.0869 1277.88 48.0771C1276.87 47.0672 1275.5 46.4999 1274.08 46.4999ZM1220.23 62.6537V51.8845H1274.08V62.6537H1220.23Z" fill="white"/>
<path d="M1255.23 86.8848V103.039L1268.69 94.9617L1255.23 86.8848Z" fill="white"/>
</svg>
