<svg width="1419" height="297" viewBox="0 0 1419 297" fill="none" xmlns="http://www.w3.org/2000/svg">
<path d="M0 15C0 6.71573 6.71573 0 15 0H37V297H15C6.71573 297 0 290.284 0 282V15Z" fill="#0F8EEA"/>
<path d="M37 0H1122V297H37V0Z" fill="#F0F0F0"/>
<path d="M97.6934 49.4062H102.158L108.732 68.1973L115.307 49.4062H119.771L110.525 75H106.939L97.6934 49.4062ZM95.2852 49.4062H99.7324L100.541 67.7227V75H95.2852V49.4062ZM117.732 49.4062H122.197V75H116.924V67.7227L117.732 49.4062ZM125.695 65.6836V65.3145C125.695 63.9199 125.895 62.6367 126.293 61.4648C126.691 60.2812 127.271 59.2559 128.033 58.3887C128.795 57.5215 129.732 56.8477 130.846 56.3672C131.959 55.875 133.236 55.6289 134.678 55.6289C136.119 55.6289 137.402 55.875 138.527 56.3672C139.652 56.8477 140.596 57.5215 141.357 58.3887C142.131 59.2559 142.717 60.2812 143.115 61.4648C143.514 62.6367 143.713 63.9199 143.713 65.3145V65.6836C143.713 67.0664 143.514 68.3496 143.115 69.5332C142.717 70.7051 142.131 71.7305 141.357 72.6094C140.596 73.4766 139.658 74.1504 138.545 74.6309C137.432 75.1113 136.154 75.3516 134.713 75.3516C133.271 75.3516 131.988 75.1113 130.863 74.6309C129.75 74.1504 128.807 73.4766 128.033 72.6094C127.271 71.7305 126.691 70.7051 126.293 69.5332C125.895 68.3496 125.695 67.0664 125.695 65.6836ZM130.758 65.3145V65.6836C130.758 66.4805 130.828 67.2246 130.969 67.916C131.109 68.6074 131.332 69.2168 131.637 69.7441C131.953 70.2598 132.363 70.6641 132.867 70.957C133.371 71.25 133.986 71.3965 134.713 71.3965C135.416 71.3965 136.02 71.25 136.523 70.957C137.027 70.6641 137.432 70.2598 137.736 69.7441C138.041 69.2168 138.264 68.6074 138.404 67.916C138.557 67.2246 138.633 66.4805 138.633 65.6836V65.3145C138.633 64.541 138.557 63.8145 138.404 63.1348C138.264 62.4434 138.035 61.834 137.719 61.3066C137.414 60.7676 137.01 60.3457 136.506 60.041C136.002 59.7363 135.393 59.584 134.678 59.584C133.963 59.584 133.354 59.7363 132.85 60.041C132.357 60.3457 131.953 60.7676 131.637 61.3066C131.332 61.834 131.109 62.4434 130.969 63.1348C130.828 63.8145 130.758 64.541 130.758 65.3145ZM151.764 48V75H146.701V48H151.764ZM151.043 64.8223H149.654C149.666 63.498 149.842 62.2793 150.182 61.166C150.521 60.041 151.008 59.0684 151.641 58.248C152.273 57.416 153.029 56.7715 153.908 56.3145C154.799 55.8574 155.783 55.6289 156.861 55.6289C157.799 55.6289 158.648 55.7637 159.41 56.0332C160.184 56.291 160.846 56.7129 161.396 57.2988C161.959 57.873 162.393 58.6289 162.697 59.5664C163.002 60.5039 163.154 61.6406 163.154 62.9766V75H158.057V62.9414C158.057 62.0977 157.934 61.4355 157.688 60.9551C157.453 60.4629 157.107 60.1172 156.65 59.918C156.205 59.707 155.654 59.6016 154.998 59.6016C154.271 59.6016 153.65 59.7363 153.135 60.0059C152.631 60.2754 152.227 60.6504 151.922 61.1309C151.617 61.5996 151.395 62.1504 151.254 62.7832C151.113 63.416 151.043 64.0957 151.043 64.8223ZM177.27 70.7109V62.2383C177.27 61.6289 177.17 61.1074 176.971 60.6738C176.771 60.2285 176.461 59.8828 176.039 59.6367C175.629 59.3906 175.096 59.2676 174.439 59.2676C173.877 59.2676 173.391 59.3672 172.98 59.5664C172.57 59.7539 172.254 60.0293 172.031 60.3926C171.809 60.7441 171.697 61.1602 171.697 61.6406H166.635C166.635 60.832 166.822 60.0645 167.197 59.3379C167.572 58.6113 168.117 57.9727 168.832 57.4219C169.547 56.8594 170.396 56.4199 171.381 56.1035C172.377 55.7871 173.49 55.6289 174.721 55.6289C176.197 55.6289 177.51 55.875 178.658 56.3672C179.807 56.8594 180.709 57.5977 181.365 58.582C182.033 59.5664 182.367 60.7969 182.367 62.2734V70.4121C182.367 71.4551 182.432 72.3105 182.561 72.9785C182.689 73.6348 182.877 74.209 183.123 74.7012V75H178.008C177.762 74.4844 177.574 73.8398 177.445 73.0664C177.328 72.2812 177.27 71.4961 177.27 70.7109ZM177.938 63.416L177.973 66.2812H175.143C174.475 66.2812 173.895 66.3574 173.402 66.5098C172.91 66.6621 172.506 66.8789 172.189 67.1602C171.873 67.4297 171.639 67.7461 171.486 68.1094C171.346 68.4727 171.275 68.8711 171.275 69.3047C171.275 69.7383 171.375 70.1309 171.574 70.4824C171.773 70.8223 172.061 71.0918 172.436 71.291C172.811 71.4785 173.25 71.5723 173.754 71.5723C174.516 71.5723 175.178 71.4199 175.74 71.1152C176.303 70.8105 176.736 70.4355 177.041 69.9902C177.357 69.5449 177.521 69.123 177.533 68.7246L178.869 70.8691C178.682 71.3496 178.424 71.8477 178.096 72.3633C177.779 72.8789 177.375 73.3652 176.883 73.8223C176.391 74.2676 175.799 74.6367 175.107 74.9297C174.416 75.2109 173.596 75.3516 172.646 75.3516C171.439 75.3516 170.344 75.1113 169.359 74.6309C168.387 74.1387 167.613 73.4648 167.039 72.6094C166.477 71.7422 166.195 70.7578 166.195 69.6562C166.195 68.6602 166.383 67.7754 166.758 67.002C167.133 66.2285 167.684 65.5781 168.41 65.0508C169.148 64.5117 170.068 64.1074 171.17 63.8379C172.271 63.5566 173.549 63.416 175.002 63.416H177.938ZM191.332 59.918V75H186.252V55.9805H191.016L191.332 59.918ZM190.629 64.8223H189.223C189.223 63.498 189.381 62.2793 189.697 61.166C190.025 60.041 190.5 59.0684 191.121 58.248C191.754 57.416 192.533 56.7715 193.459 56.3145C194.385 55.8574 195.457 55.6289 196.676 55.6289C197.52 55.6289 198.293 55.7578 198.996 56.0156C199.699 56.2617 200.303 56.6543 200.807 57.1934C201.322 57.7207 201.721 58.4121 202.002 59.2676C202.283 60.1113 202.424 61.125 202.424 62.3086V75H197.361V62.8711C197.361 62.0039 197.244 61.3359 197.01 60.8672C196.775 60.3984 196.441 60.0703 196.008 59.8828C195.586 59.6953 195.076 59.6016 194.479 59.6016C193.822 59.6016 193.248 59.7363 192.756 60.0059C192.275 60.2754 191.877 60.6504 191.561 61.1309C191.244 61.5996 191.01 62.1504 190.857 62.7832C190.705 63.416 190.629 64.0957 190.629 64.8223ZM201.949 64.2422L200.139 64.4707C200.139 63.2285 200.291 62.0742 200.596 61.0078C200.912 59.9414 201.375 59.0039 201.984 58.1953C202.605 57.3867 203.373 56.7598 204.287 56.3145C205.201 55.8574 206.256 55.6289 207.451 55.6289C208.365 55.6289 209.197 55.7637 209.947 56.0332C210.697 56.291 211.336 56.707 211.863 57.2812C212.402 57.8438 212.812 58.582 213.094 59.4961C213.387 60.4102 213.533 61.5293 213.533 62.8535V75H208.453V62.8535C208.453 61.9746 208.336 61.3066 208.102 60.8496C207.879 60.3809 207.551 60.0586 207.117 59.8828C206.695 59.6953 206.191 59.6016 205.605 59.6016C204.996 59.6016 204.463 59.7246 204.006 59.9707C203.549 60.2051 203.168 60.5332 202.863 60.9551C202.559 61.377 202.33 61.8691 202.178 62.4316C202.025 62.9824 201.949 63.5859 201.949 64.2422ZM227.719 70.7109V62.2383C227.719 61.6289 227.619 61.1074 227.42 60.6738C227.221 60.2285 226.91 59.8828 226.488 59.6367C226.078 59.3906 225.545 59.2676 224.889 59.2676C224.326 59.2676 223.84 59.3672 223.43 59.5664C223.02 59.7539 222.703 60.0293 222.48 60.3926C222.258 60.7441 222.146 61.1602 222.146 61.6406H217.084C217.084 60.832 217.271 60.0645 217.646 59.3379C218.021 58.6113 218.566 57.9727 219.281 57.4219C219.996 56.8594 220.846 56.4199 221.83 56.1035C222.826 55.7871 223.939 55.6289 225.17 55.6289C226.646 55.6289 227.959 55.875 229.107 56.3672C230.256 56.8594 231.158 57.5977 231.814 58.582C232.482 59.5664 232.816 60.7969 232.816 62.2734V70.4121C232.816 71.4551 232.881 72.3105 233.01 72.9785C233.139 73.6348 233.326 74.209 233.572 74.7012V75H228.457C228.211 74.4844 228.023 73.8398 227.895 73.0664C227.777 72.2812 227.719 71.4961 227.719 70.7109ZM228.387 63.416L228.422 66.2812H225.592C224.924 66.2812 224.344 66.3574 223.852 66.5098C223.359 66.6621 222.955 66.8789 222.639 67.1602C222.322 67.4297 222.088 67.7461 221.936 68.1094C221.795 68.4727 221.725 68.8711 221.725 69.3047C221.725 69.7383 221.824 70.1309 222.023 70.4824C222.223 70.8223 222.51 71.0918 222.885 71.291C223.26 71.4785 223.699 71.5723 224.203 71.5723C224.965 71.5723 225.627 71.4199 226.189 71.1152C226.752 70.8105 227.186 70.4355 227.49 69.9902C227.807 69.5449 227.971 69.123 227.982 68.7246L229.318 70.8691C229.131 71.3496 228.873 71.8477 228.545 72.3633C228.229 72.8789 227.824 73.3652 227.332 73.8223C226.84 74.2676 226.248 74.6367 225.557 74.9297C224.865 75.2109 224.045 75.3516 223.096 75.3516C221.889 75.3516 220.793 75.1113 219.809 74.6309C218.836 74.1387 218.062 73.4648 217.488 72.6094C216.926 71.7422 216.645 70.7578 216.645 69.6562C216.645 68.6602 216.832 67.7754 217.207 67.002C217.582 66.2285 218.133 65.5781 218.859 65.0508C219.598 64.5117 220.518 64.1074 221.619 63.8379C222.721 63.5566 223.998 63.416 225.451 63.416H228.387ZM247.951 70.8516V48H253.049V75H248.461L247.951 70.8516ZM235.928 65.7188V65.3496C235.928 63.8965 236.092 62.5781 236.42 61.3945C236.748 60.1992 237.229 59.1738 237.861 58.3184C238.494 57.4629 239.273 56.8008 240.199 56.332C241.125 55.8633 242.18 55.6289 243.363 55.6289C244.477 55.6289 245.449 55.8633 246.281 56.332C247.125 56.8008 247.84 57.4688 248.426 58.3359C249.023 59.1914 249.504 60.2051 249.867 61.377C250.23 62.5371 250.494 63.8086 250.658 65.1914V66C250.494 67.3242 250.23 68.5547 249.867 69.6914C249.504 70.8281 249.023 71.8242 248.426 72.6797C247.84 73.5234 247.125 74.1797 246.281 74.6484C245.438 75.1172 244.453 75.3516 243.328 75.3516C242.145 75.3516 241.09 75.1113 240.164 74.6309C239.25 74.1504 238.477 73.4766 237.844 72.6094C237.223 71.7422 236.748 70.7227 236.42 69.5508C236.092 68.3789 235.928 67.1016 235.928 65.7188ZM240.99 65.3496V65.7188C240.99 66.5039 241.049 67.2363 241.166 67.916C241.295 68.5957 241.5 69.1992 241.781 69.7266C242.074 70.2422 242.449 70.6465 242.906 70.9395C243.375 71.2207 243.943 71.3613 244.611 71.3613C245.479 71.3613 246.193 71.168 246.756 70.7812C247.318 70.3828 247.746 69.8379 248.039 69.1465C248.344 68.4551 248.52 67.6582 248.566 66.7559V64.4531C248.531 63.7148 248.426 63.0527 248.25 62.4668C248.086 61.8691 247.84 61.3594 247.512 60.9375C247.195 60.5156 246.797 60.1875 246.316 59.9531C245.848 59.7188 245.291 59.6016 244.646 59.6016C243.99 59.6016 243.428 59.7539 242.959 60.0586C242.49 60.3516 242.109 60.7559 241.816 61.2715C241.535 61.7871 241.324 62.3965 241.184 63.0996C241.055 63.791 240.99 64.541 240.99 65.3496ZM276.779 49.4062V75H271.523V49.4062H276.779ZM284.654 49.4062V53.5371H263.771V49.4062H284.654ZM294.938 70.7109V62.2383C294.938 61.6289 294.838 61.1074 294.639 60.6738C294.439 60.2285 294.129 59.8828 293.707 59.6367C293.297 59.3906 292.764 59.2676 292.107 59.2676C291.545 59.2676 291.059 59.3672 290.648 59.5664C290.238 59.7539 289.922 60.0293 289.699 60.3926C289.477 60.7441 289.365 61.1602 289.365 61.6406H284.303C284.303 60.832 284.49 60.0645 284.865 59.3379C285.24 58.6113 285.785 57.9727 286.5 57.4219C287.215 56.8594 288.064 56.4199 289.049 56.1035C290.045 55.7871 291.158 55.6289 292.389 55.6289C293.865 55.6289 295.178 55.875 296.326 56.3672C297.475 56.8594 298.377 57.5977 299.033 58.582C299.701 59.5664 300.035 60.7969 300.035 62.2734V70.4121C300.035 71.4551 300.1 72.3105 300.229 72.9785C300.357 73.6348 300.545 74.209 300.791 74.7012V75H295.676C295.43 74.4844 295.242 73.8398 295.113 73.0664C294.996 72.2812 294.938 71.4961 294.938 70.7109ZM295.605 63.416L295.641 66.2812H292.811C292.143 66.2812 291.562 66.3574 291.07 66.5098C290.578 66.6621 290.174 66.8789 289.857 67.1602C289.541 67.4297 289.307 67.7461 289.154 68.1094C289.014 68.4727 288.943 68.8711 288.943 69.3047C288.943 69.7383 289.043 70.1309 289.242 70.4824C289.441 70.8223 289.729 71.0918 290.104 71.291C290.479 71.4785 290.918 71.5723 291.422 71.5723C292.184 71.5723 292.846 71.4199 293.408 71.1152C293.971 70.8105 294.404 70.4355 294.709 69.9902C295.025 69.5449 295.189 69.123 295.201 68.7246L296.537 70.8691C296.35 71.3496 296.092 71.8477 295.764 72.3633C295.447 72.8789 295.043 73.3652 294.551 73.8223C294.059 74.2676 293.467 74.6367 292.775 74.9297C292.084 75.2109 291.264 75.3516 290.314 75.3516C289.107 75.3516 288.012 75.1113 287.027 74.6309C286.055 74.1387 285.281 73.4648 284.707 72.6094C284.145 71.7422 283.863 70.7578 283.863 69.6562C283.863 68.6602 284.051 67.7754 284.426 67.002C284.801 66.2285 285.352 65.5781 286.078 65.0508C286.816 64.5117 287.736 64.1074 288.838 63.8379C289.939 63.5566 291.217 63.416 292.67 63.416H295.605ZM309 60.1289V75H303.938V55.9805H308.701L309 60.1289ZM314.73 55.8574L314.643 60.5508C314.396 60.5156 314.098 60.4863 313.746 60.4629C313.406 60.4277 313.096 60.4102 312.814 60.4102C312.1 60.4102 311.479 60.5039 310.951 60.6914C310.436 60.8672 310.002 61.1309 309.65 61.4824C309.311 61.834 309.053 62.2617 308.877 62.7656C308.713 63.2695 308.619 63.8438 308.596 64.4883L307.576 64.1719C307.576 62.9414 307.699 61.8105 307.945 60.7793C308.191 59.7363 308.549 58.8281 309.018 58.0547C309.498 57.2812 310.084 56.6836 310.775 56.2617C311.467 55.8398 312.258 55.6289 313.148 55.6289C313.43 55.6289 313.717 55.6523 314.01 55.6992C314.303 55.7344 314.543 55.7871 314.73 55.8574ZM322.061 48V75H316.998V48H322.061ZM321.34 64.8223H319.951C319.963 63.498 320.139 62.2793 320.479 61.166C320.818 60.041 321.305 59.0684 321.938 58.248C322.57 57.416 323.326 56.7715 324.205 56.3145C325.096 55.8574 326.08 55.6289 327.158 55.6289C328.096 55.6289 328.945 55.7637 329.707 56.0332C330.48 56.291 331.143 56.7129 331.693 57.2988C332.256 57.873 332.689 58.6289 332.994 59.5664C333.299 60.5039 333.451 61.6406 333.451 62.9766V75H328.354V62.9414C328.354 62.0977 328.23 61.4355 327.984 60.9551C327.75 60.4629 327.404 60.1172 326.947 59.918C326.502 59.707 325.951 59.6016 325.295 59.6016C324.568 59.6016 323.947 59.7363 323.432 60.0059C322.928 60.2754 322.523 60.6504 322.219 61.1309C321.914 61.5996 321.691 62.1504 321.551 62.7832C321.41 63.416 321.34 64.0957 321.34 64.8223ZM342.645 55.9805V75H337.564V55.9805H342.645ZM337.248 51.0234C337.248 50.2852 337.506 49.6758 338.021 49.1953C338.537 48.7148 339.229 48.4746 340.096 48.4746C340.951 48.4746 341.637 48.7148 342.152 49.1953C342.68 49.6758 342.943 50.2852 342.943 51.0234C342.943 51.7617 342.68 52.3711 342.152 52.8516C341.637 53.332 340.951 53.5723 340.096 53.5723C339.229 53.5723 338.537 53.332 338.021 52.8516C337.506 52.3711 337.248 51.7617 337.248 51.0234ZM351.785 60.041V75H346.723V55.9805H351.469L351.785 60.041ZM351.047 64.8223H349.676C349.676 63.416 349.857 62.1504 350.221 61.0254C350.584 59.8887 351.094 58.9219 351.75 58.125C352.406 57.3164 353.186 56.7012 354.088 56.2793C355.002 55.8457 356.021 55.6289 357.146 55.6289C358.037 55.6289 358.852 55.7578 359.59 56.0156C360.328 56.2734 360.961 56.6836 361.488 57.2461C362.027 57.8086 362.438 58.5527 362.719 59.4785C363.012 60.4043 363.158 61.5352 363.158 62.8711V75H358.061V62.8535C358.061 62.0098 357.943 61.3535 357.709 60.8848C357.475 60.416 357.129 60.0879 356.672 59.9004C356.227 59.7012 355.676 59.6016 355.02 59.6016C354.34 59.6016 353.748 59.7363 353.244 60.0059C352.752 60.2754 352.342 60.6504 352.014 61.1309C351.697 61.5996 351.457 62.1504 351.293 62.7832C351.129 63.416 351.047 64.0957 351.047 64.8223ZM372.352 55.9805V75H367.271V55.9805H372.352ZM366.955 51.0234C366.955 50.2852 367.213 49.6758 367.729 49.1953C368.244 48.7148 368.936 48.4746 369.803 48.4746C370.658 48.4746 371.344 48.7148 371.859 49.1953C372.387 49.6758 372.65 50.2852 372.65 51.0234C372.65 51.7617 372.387 52.3711 371.859 52.8516C371.344 53.332 370.658 53.5723 369.803 53.5723C368.936 53.5723 368.244 53.332 367.729 52.8516C367.213 52.3711 366.955 51.7617 366.955 51.0234Z" fill="#888888"/>
<path d="M111.922 126.492H102.023V119.082H111.922C113.271 119.082 114.365 118.854 115.203 118.398C116.042 117.943 116.652 117.314 117.035 116.512C117.436 115.691 117.637 114.771 117.637 113.75C117.637 112.656 117.436 111.645 117.035 110.715C116.652 109.785 116.042 109.038 115.203 108.473C114.365 107.889 113.271 107.598 111.922 107.598H105.633V140H96.0352V100.188H111.922C115.112 100.188 117.855 100.771 120.152 101.938C122.467 103.104 124.245 104.708 125.484 106.75C126.724 108.773 127.344 111.089 127.344 113.695C127.344 116.266 126.724 118.508 125.484 120.422C124.245 122.336 122.467 123.831 120.152 124.906C117.855 125.964 115.112 126.492 111.922 126.492ZM141.371 117.742V140H132.156V110.414H140.77L141.371 117.742ZM150.121 110.195L149.957 118.754C149.592 118.717 149.1 118.672 148.48 118.617C147.861 118.562 147.341 118.535 146.922 118.535C145.846 118.535 144.917 118.663 144.133 118.918C143.367 119.155 142.729 119.52 142.219 120.012C141.727 120.486 141.362 121.087 141.125 121.816C140.906 122.546 140.806 123.393 140.824 124.359L139.156 123.266C139.156 121.279 139.348 119.474 139.73 117.852C140.132 116.211 140.697 114.798 141.426 113.613C142.155 112.41 143.039 111.49 144.078 110.852C145.117 110.195 146.284 109.867 147.578 109.867C148.034 109.867 148.48 109.895 148.918 109.949C149.374 110.004 149.775 110.086 150.121 110.195ZM151.16 125.508V124.934C151.16 122.764 151.47 120.768 152.09 118.945C152.71 117.104 153.621 115.509 154.824 114.16C156.027 112.811 157.513 111.763 159.281 111.016C161.049 110.25 163.091 109.867 165.406 109.867C167.74 109.867 169.79 110.25 171.559 111.016C173.345 111.763 174.84 112.811 176.043 114.16C177.246 115.509 178.158 117.104 178.777 118.945C179.397 120.768 179.707 122.764 179.707 124.934V125.508C179.707 127.659 179.397 129.655 178.777 131.496C178.158 133.319 177.246 134.914 176.043 136.281C174.84 137.63 173.354 138.678 171.586 139.426C169.818 140.173 167.776 140.547 165.461 140.547C163.146 140.547 161.095 140.173 159.309 139.426C157.522 138.678 156.027 137.63 154.824 136.281C153.621 134.914 152.71 133.319 152.09 131.496C151.47 129.655 151.16 127.659 151.16 125.508ZM160.375 124.934V125.508C160.375 126.62 160.457 127.659 160.621 128.625C160.785 129.591 161.059 130.439 161.441 131.168C161.824 131.879 162.344 132.435 163 132.836C163.656 133.237 164.477 133.438 165.461 133.438C166.427 133.438 167.229 133.237 167.867 132.836C168.523 132.435 169.043 131.879 169.426 131.168C169.809 130.439 170.082 129.591 170.246 128.625C170.41 127.659 170.492 126.62 170.492 125.508V124.934C170.492 123.858 170.41 122.846 170.246 121.898C170.082 120.932 169.809 120.085 169.426 119.355C169.043 118.608 168.523 118.025 167.867 117.605C167.211 117.186 166.391 116.977 165.406 116.977C164.44 116.977 163.629 117.186 162.973 117.605C162.335 118.025 161.824 118.608 161.441 119.355C161.059 120.085 160.785 120.932 160.621 121.898C160.457 122.846 160.375 123.858 160.375 124.934ZM184.492 110.414H193.734V140.957C193.734 143.327 193.279 145.323 192.367 146.945C191.456 148.586 190.152 149.826 188.457 150.664C186.762 151.521 184.738 151.949 182.387 151.949C181.603 151.949 180.883 151.913 180.227 151.84C179.552 151.785 178.814 151.667 178.012 151.484V144.512C178.486 144.585 178.923 144.639 179.324 144.676C179.725 144.73 180.163 144.758 180.637 144.758C181.475 144.758 182.177 144.621 182.742 144.348C183.307 144.074 183.736 143.655 184.027 143.09C184.337 142.525 184.492 141.814 184.492 140.957V110.414ZM183.809 102.785C183.809 101.473 184.283 100.397 185.23 99.5586C186.178 98.7201 187.409 98.3008 188.922 98.3008C190.435 98.3008 191.665 98.7201 192.613 99.5586C193.561 100.397 194.035 101.473 194.035 102.785C194.035 104.098 193.561 105.173 192.613 106.012C191.665 106.85 190.435 107.27 188.922 107.27C187.409 107.27 186.178 106.85 185.23 106.012C184.283 105.173 183.809 104.098 183.809 102.785ZM213.285 140.547C210.879 140.547 208.728 140.173 206.832 139.426C204.936 138.66 203.332 137.612 202.02 136.281C200.725 134.951 199.732 133.419 199.039 131.688C198.365 129.956 198.027 128.124 198.027 126.191V125.152C198.027 122.983 198.328 120.978 198.93 119.137C199.531 117.277 200.424 115.655 201.609 114.27C202.794 112.884 204.28 111.809 206.066 111.043C207.853 110.259 209.931 109.867 212.301 109.867C214.397 109.867 216.275 110.204 217.934 110.879C219.592 111.553 220.996 112.52 222.145 113.777C223.311 115.035 224.195 116.557 224.797 118.344C225.417 120.13 225.727 122.135 225.727 124.359V128.105H201.555V122.336H216.73V121.625C216.749 120.641 216.576 119.802 216.211 119.109C215.865 118.417 215.354 117.888 214.68 117.523C214.005 117.159 213.185 116.977 212.219 116.977C211.216 116.977 210.387 117.195 209.73 117.633C209.092 118.07 208.591 118.672 208.227 119.438C207.88 120.185 207.634 121.051 207.488 122.035C207.342 123.02 207.27 124.059 207.27 125.152V126.191C207.27 127.285 207.415 128.279 207.707 129.172C208.017 130.065 208.454 130.831 209.02 131.469C209.603 132.089 210.296 132.572 211.098 132.918C211.918 133.264 212.848 133.438 213.887 133.438C215.145 133.438 216.384 133.201 217.605 132.727C218.827 132.253 219.875 131.469 220.75 130.375L224.934 135.352C224.332 136.208 223.475 137.038 222.363 137.84C221.27 138.642 219.957 139.298 218.426 139.809C216.895 140.301 215.181 140.547 213.285 140.547ZM241.969 133.438C242.826 133.438 243.555 133.283 244.156 132.973C244.776 132.645 245.241 132.189 245.551 131.605C245.879 131.004 246.034 130.284 246.016 129.445H254.684C254.702 131.669 254.155 133.62 253.043 135.297C251.949 136.956 250.454 138.25 248.559 139.18C246.681 140.091 244.557 140.547 242.188 140.547C239.872 140.547 237.849 140.173 236.117 139.426C234.385 138.66 232.936 137.603 231.77 136.254C230.621 134.887 229.755 133.292 229.172 131.469C228.607 129.646 228.324 127.668 228.324 125.535V124.906C228.324 122.773 228.607 120.796 229.172 118.973C229.755 117.132 230.621 115.536 231.77 114.188C232.936 112.82 234.376 111.763 236.09 111.016C237.822 110.25 239.836 109.867 242.133 109.867C244.594 109.867 246.763 110.332 248.641 111.262C250.536 112.191 252.022 113.54 253.098 115.309C254.173 117.077 254.702 119.219 254.684 121.734H246.016C246.034 120.841 245.897 120.039 245.605 119.328C245.314 118.617 244.858 118.052 244.238 117.633C243.637 117.195 242.862 116.977 241.914 116.977C240.966 116.977 240.201 117.186 239.617 117.605C239.034 118.025 238.587 118.608 238.277 119.355C237.986 120.085 237.785 120.923 237.676 121.871C237.585 122.819 237.539 123.831 237.539 124.906V125.535C237.539 126.629 237.585 127.659 237.676 128.625C237.785 129.573 237.995 130.411 238.305 131.141C238.615 131.852 239.061 132.417 239.645 132.836C240.228 133.237 241.003 133.438 241.969 133.438ZM274.207 110.414V116.812H256.379V110.414H274.207ZM260.125 103.059H269.34V130.348C269.34 131.132 269.431 131.742 269.613 132.18C269.796 132.599 270.105 132.9 270.543 133.082C270.999 133.246 271.6 133.328 272.348 133.328C272.876 133.328 273.314 133.319 273.66 133.301C274.007 133.264 274.335 133.219 274.645 133.164V139.754C273.861 140.009 273.04 140.201 272.184 140.328C271.327 140.474 270.415 140.547 269.449 140.547C267.48 140.547 265.794 140.237 264.391 139.617C263.005 138.997 261.948 138.022 261.219 136.691C260.49 135.361 260.125 133.629 260.125 131.496V103.059ZM305.133 115.992V123.375H284.707V115.992H305.133ZM287.906 100.188V140H278.309V100.188H287.906ZM311.586 100.188V140H302.016V100.188H311.586ZM334.527 132.809V110.414H343.77V140H335.129L334.527 132.809ZM335.402 126.793L337.809 126.738C337.809 128.725 337.572 130.566 337.098 132.262C336.624 133.939 335.922 135.397 334.992 136.637C334.081 137.876 332.951 138.842 331.602 139.535C330.271 140.21 328.73 140.547 326.98 140.547C325.522 140.547 324.182 140.346 322.961 139.945C321.758 139.526 320.719 138.879 319.844 138.004C318.969 137.111 318.285 135.971 317.793 134.586C317.319 133.182 317.082 131.505 317.082 129.555V110.414H326.297V129.609C326.297 130.266 326.379 130.831 326.543 131.305C326.707 131.779 326.944 132.18 327.254 132.508C327.564 132.818 327.947 133.055 328.402 133.219C328.876 133.365 329.414 133.438 330.016 133.438C331.401 133.438 332.486 133.146 333.27 132.562C334.053 131.979 334.6 131.186 334.91 130.184C335.238 129.181 335.402 128.051 335.402 126.793ZM348.938 98H358.152V132.727L357.195 140H348.938V98ZM376.309 124.879V125.453C376.309 127.695 376.081 129.737 375.625 131.578C375.169 133.419 374.467 135.014 373.52 136.363C372.572 137.694 371.378 138.724 369.938 139.453C368.497 140.182 366.793 140.547 364.824 140.547C363.038 140.547 361.507 140.164 360.23 139.398C358.954 138.615 357.888 137.539 357.031 136.172C356.174 134.786 355.482 133.191 354.953 131.387C354.424 129.564 354.005 127.613 353.695 125.535V124.852C354.005 122.792 354.424 120.859 354.953 119.055C355.482 117.232 356.174 115.637 357.031 114.27C357.888 112.884 358.945 111.809 360.203 111.043C361.479 110.259 363.001 109.867 364.77 109.867C366.757 109.867 368.47 110.241 369.91 110.988C371.368 111.736 372.572 112.784 373.52 114.133C374.467 115.482 375.169 117.068 375.625 118.891C376.081 120.714 376.309 122.71 376.309 124.879ZM367.094 125.453V124.879C367.094 123.803 367.03 122.792 366.902 121.844C366.775 120.896 366.547 120.057 366.219 119.328C365.891 118.599 365.426 118.025 364.824 117.605C364.223 117.186 363.439 116.977 362.473 116.977C361.488 116.977 360.659 117.141 359.984 117.469C359.328 117.797 358.799 118.271 358.398 118.891C358.016 119.492 357.742 120.24 357.578 121.133C357.414 122.008 357.341 123.001 357.359 124.113V126.273C357.323 127.786 357.46 129.081 357.77 130.156C358.079 131.232 358.617 132.052 359.383 132.617C360.148 133.182 361.197 133.465 362.527 133.465C363.512 133.465 364.305 133.273 364.906 132.891C365.526 132.508 365.991 131.961 366.301 131.25C366.611 130.539 366.82 129.691 366.93 128.707C367.039 127.723 367.094 126.638 367.094 125.453Z" fill="black"/>
<rect x="93" y="178" width="989" height="77" rx="10" fill="#D3D3D3"/>
<rect x="111" y="196" width="91" height="41" rx="3" fill="#424242"/>
<path d="M134.141 210.203H139.177C140.161 210.203 141.017 210.35 141.743 210.643C142.47 210.936 143.029 211.369 143.422 211.943C143.82 212.518 144.02 213.227 144.02 214.07C144.02 214.803 143.905 215.415 143.677 215.907C143.448 216.399 143.129 216.807 142.719 217.129C142.314 217.445 141.843 217.706 141.304 217.911L140.293 218.482H136.065L136.048 216.101H139.177C139.569 216.101 139.895 216.03 140.152 215.89C140.41 215.749 140.604 215.55 140.732 215.292C140.867 215.028 140.935 214.715 140.935 214.352C140.935 213.982 140.867 213.666 140.732 213.402C140.598 213.139 140.398 212.937 140.135 212.796C139.877 212.655 139.558 212.585 139.177 212.585H137.226V223H134.141V210.203ZM141.146 223L138.315 217.34L141.585 217.322L144.45 222.868V223H141.146ZM150.348 223.176C149.574 223.176 148.883 223.056 148.273 222.815C147.664 222.569 147.148 222.232 146.727 221.805C146.311 221.377 145.991 220.885 145.769 220.328C145.552 219.771 145.443 219.183 145.443 218.562V218.228C145.443 217.53 145.54 216.886 145.733 216.294C145.927 215.696 146.214 215.175 146.595 214.729C146.976 214.284 147.453 213.938 148.027 213.692C148.602 213.44 149.27 213.314 150.031 213.314C150.705 213.314 151.309 213.423 151.842 213.64C152.375 213.856 152.826 214.167 153.195 214.571C153.57 214.976 153.854 215.465 154.048 216.039C154.247 216.613 154.347 217.258 154.347 217.973V219.177H146.577V217.322H151.455V217.094C151.461 216.777 151.405 216.508 151.288 216.285C151.177 216.062 151.013 215.893 150.796 215.775C150.579 215.658 150.315 215.6 150.005 215.6C149.683 215.6 149.416 215.67 149.205 215.811C149 215.951 148.839 216.145 148.722 216.391C148.61 216.631 148.531 216.909 148.484 217.226C148.438 217.542 148.414 217.876 148.414 218.228V218.562C148.414 218.913 148.461 219.232 148.555 219.52C148.654 219.807 148.795 220.053 148.977 220.258C149.164 220.457 149.387 220.612 149.645 220.724C149.908 220.835 150.207 220.891 150.541 220.891C150.945 220.891 151.344 220.814 151.736 220.662C152.129 220.51 152.466 220.258 152.747 219.906L154.092 221.506C153.898 221.781 153.623 222.048 153.266 222.306C152.914 222.563 152.492 222.774 152 222.938C151.508 223.097 150.957 223.176 150.348 223.176ZM160.49 220.609V216.689C160.49 216.42 160.452 216.188 160.376 215.995C160.3 215.802 160.18 215.652 160.016 215.547C159.852 215.436 159.632 215.38 159.356 215.38C159.134 215.38 158.943 215.418 158.785 215.494C158.627 215.57 158.507 215.685 158.425 215.837C158.343 215.989 158.302 216.183 158.302 216.417H155.34C155.34 215.978 155.437 215.57 155.63 215.195C155.829 214.814 156.11 214.483 156.474 214.202C156.843 213.921 157.282 213.704 157.792 213.552C158.308 213.394 158.882 213.314 159.515 213.314C160.271 213.314 160.944 213.44 161.536 213.692C162.134 213.944 162.605 214.322 162.951 214.826C163.297 215.324 163.47 215.951 163.47 216.707V220.601C163.47 221.222 163.505 221.693 163.575 222.016C163.646 222.332 163.745 222.61 163.874 222.851V223H160.903C160.763 222.707 160.657 222.35 160.587 221.928C160.522 221.5 160.49 221.061 160.49 220.609ZM160.851 217.19L160.868 218.772H159.559C159.283 218.772 159.049 218.811 158.855 218.887C158.668 218.963 158.516 219.068 158.398 219.203C158.287 219.332 158.205 219.479 158.152 219.643C158.105 219.807 158.082 219.979 158.082 220.161C158.082 220.337 158.123 220.495 158.205 220.636C158.293 220.771 158.41 220.876 158.557 220.952C158.703 221.028 158.867 221.066 159.049 221.066C159.377 221.066 159.655 221.005 159.884 220.882C160.118 220.753 160.297 220.598 160.42 220.416C160.543 220.234 160.604 220.064 160.604 219.906L161.255 221.119C161.138 221.354 161.003 221.591 160.851 221.831C160.704 222.071 160.52 222.294 160.297 222.499C160.08 222.698 159.813 222.862 159.497 222.991C159.181 223.114 158.797 223.176 158.346 223.176C157.76 223.176 157.221 223.056 156.729 222.815C156.242 222.575 155.853 222.241 155.56 221.813C155.267 221.38 155.12 220.882 155.12 220.319C155.12 219.827 155.208 219.388 155.384 219.001C155.565 218.614 155.838 218.286 156.201 218.017C156.564 217.747 157.027 217.542 157.59 217.401C158.152 217.261 158.814 217.19 159.576 217.19H160.851ZM169.13 220.891C169.405 220.891 169.64 220.841 169.833 220.741C170.032 220.636 170.182 220.489 170.281 220.302C170.387 220.108 170.437 219.877 170.431 219.607H173.217C173.223 220.322 173.047 220.949 172.689 221.488C172.338 222.021 171.857 222.438 171.248 222.736C170.645 223.029 169.962 223.176 169.2 223.176C168.456 223.176 167.806 223.056 167.249 222.815C166.692 222.569 166.227 222.229 165.852 221.796C165.482 221.356 165.204 220.844 165.017 220.258C164.835 219.672 164.744 219.036 164.744 218.351V218.148C164.744 217.463 164.835 216.827 165.017 216.241C165.204 215.649 165.482 215.137 165.852 214.703C166.227 214.264 166.689 213.924 167.24 213.684C167.797 213.438 168.444 213.314 169.183 213.314C169.974 213.314 170.671 213.464 171.274 213.763C171.884 214.062 172.361 214.495 172.707 215.063C173.053 215.632 173.223 216.32 173.217 217.129H170.431C170.437 216.842 170.393 216.584 170.299 216.355C170.205 216.127 170.059 215.945 169.859 215.811C169.666 215.67 169.417 215.6 169.112 215.6C168.808 215.6 168.562 215.667 168.374 215.802C168.187 215.937 168.043 216.124 167.943 216.364C167.85 216.599 167.785 216.868 167.75 217.173C167.721 217.478 167.706 217.803 167.706 218.148V218.351C167.706 218.702 167.721 219.033 167.75 219.344C167.785 219.648 167.853 219.918 167.952 220.152C168.052 220.381 168.195 220.562 168.383 220.697C168.57 220.826 168.819 220.891 169.13 220.891ZM179.492 213.49V215.547H173.762V213.49H179.492ZM174.966 211.126H177.928V219.897C177.928 220.149 177.957 220.346 178.016 220.486C178.074 220.621 178.174 220.718 178.314 220.776C178.461 220.829 178.654 220.855 178.895 220.855C179.064 220.855 179.205 220.853 179.316 220.847C179.428 220.835 179.533 220.82 179.633 220.803V222.921C179.381 223.003 179.117 223.064 178.842 223.105C178.566 223.152 178.273 223.176 177.963 223.176C177.33 223.176 176.788 223.076 176.337 222.877C175.892 222.678 175.552 222.364 175.317 221.937C175.083 221.509 174.966 220.952 174.966 220.267V211.126Z" fill="white"/>
<rect x="111" y="196" width="91" height="41" rx="3" stroke="#424242" stroke-width="4"/>
<rect x="222" y="196" width="102" height="41" rx="3" fill="#424242"/>
<path d="M250.166 218.658H246.984V216.276H250.166C250.6 216.276 250.951 216.203 251.221 216.057C251.49 215.91 251.687 215.708 251.81 215.45C251.938 215.187 252.003 214.891 252.003 214.562C252.003 214.211 251.938 213.886 251.81 213.587C251.687 213.288 251.49 213.048 251.221 212.866C250.951 212.679 250.6 212.585 250.166 212.585H248.145V223H245.06V210.203H250.166C251.191 210.203 252.073 210.391 252.812 210.766C253.556 211.141 254.127 211.656 254.525 212.312C254.924 212.963 255.123 213.707 255.123 214.545C255.123 215.371 254.924 216.092 254.525 216.707C254.127 217.322 253.556 217.803 252.812 218.148C252.073 218.488 251.191 218.658 250.166 218.658ZM259.702 221.884L262.163 213.49H265.345L261.521 224.415C261.439 224.655 261.331 224.913 261.196 225.188C261.062 225.47 260.877 225.736 260.643 225.988C260.408 226.24 260.106 226.445 259.737 226.604C259.374 226.762 258.923 226.841 258.384 226.841C258.097 226.841 257.886 226.826 257.751 226.797C257.622 226.773 257.423 226.729 257.153 226.665V224.547C257.229 224.547 257.294 224.547 257.347 224.547C257.405 224.547 257.47 224.547 257.54 224.547C257.856 224.547 258.108 224.515 258.296 224.45C258.489 224.386 258.636 224.292 258.735 224.169C258.841 224.046 258.923 223.896 258.981 223.721L259.702 221.884ZM259.078 213.49L260.95 220.144L261.275 223.281H259.289L255.905 213.49H259.078ZM271.128 213.49V215.547H265.397V213.49H271.128ZM266.602 211.126H269.563V219.897C269.563 220.149 269.593 220.346 269.651 220.486C269.71 220.621 269.81 220.718 269.95 220.776C270.097 220.829 270.29 220.855 270.53 220.855C270.7 220.855 270.841 220.853 270.952 220.847C271.063 220.835 271.169 220.82 271.269 220.803V222.921C271.017 223.003 270.753 223.064 270.478 223.105C270.202 223.152 269.909 223.176 269.599 223.176C268.966 223.176 268.424 223.076 267.973 222.877C267.527 222.678 267.188 222.364 266.953 221.937C266.719 221.509 266.602 220.952 266.602 220.267V211.126ZM275.206 209.5V223H272.244V209.5H275.206ZM274.854 217.92L274.16 217.938C274.16 217.27 274.242 216.654 274.406 216.092C274.57 215.529 274.805 215.04 275.109 214.624C275.414 214.208 275.78 213.886 276.208 213.657C276.636 213.429 277.11 213.314 277.632 213.314C278.101 213.314 278.528 213.382 278.915 213.517C279.308 213.651 279.645 213.868 279.926 214.167C280.213 214.466 280.433 214.855 280.585 215.336C280.743 215.816 280.822 216.402 280.822 217.094V223H277.843V217.076C277.843 216.689 277.787 216.391 277.676 216.18C277.57 215.963 277.418 215.813 277.219 215.731C277.02 215.644 276.776 215.6 276.489 215.6C276.144 215.6 275.862 215.658 275.646 215.775C275.429 215.893 275.262 216.057 275.145 216.268C275.033 216.473 274.957 216.716 274.916 216.997C274.875 217.278 274.854 217.586 274.854 217.92ZM282.097 218.342V218.157C282.097 217.46 282.196 216.818 282.396 216.232C282.595 215.641 282.888 215.128 283.274 214.694C283.661 214.261 284.139 213.924 284.707 213.684C285.275 213.438 285.932 213.314 286.676 213.314C287.426 213.314 288.085 213.438 288.653 213.684C289.228 213.924 289.708 214.261 290.095 214.694C290.481 215.128 290.774 215.641 290.974 216.232C291.173 216.818 291.272 217.46 291.272 218.157V218.342C291.272 219.033 291.173 219.675 290.974 220.267C290.774 220.853 290.481 221.365 290.095 221.805C289.708 222.238 289.23 222.575 288.662 222.815C288.094 223.056 287.438 223.176 286.693 223.176C285.949 223.176 285.29 223.056 284.716 222.815C284.142 222.575 283.661 222.238 283.274 221.805C282.888 221.365 282.595 220.853 282.396 220.267C282.196 219.675 282.097 219.033 282.097 218.342ZM285.059 218.157V218.342C285.059 218.699 285.085 219.033 285.138 219.344C285.19 219.654 285.278 219.927 285.401 220.161C285.524 220.39 285.691 220.568 285.902 220.697C286.113 220.826 286.377 220.891 286.693 220.891C287.004 220.891 287.262 220.826 287.467 220.697C287.678 220.568 287.845 220.39 287.968 220.161C288.091 219.927 288.179 219.654 288.231 219.344C288.284 219.033 288.311 218.699 288.311 218.342V218.157C288.311 217.812 288.284 217.486 288.231 217.182C288.179 216.871 288.091 216.599 287.968 216.364C287.845 216.124 287.678 215.937 287.467 215.802C287.256 215.667 286.992 215.6 286.676 215.6C286.365 215.6 286.104 215.667 285.894 215.802C285.688 215.937 285.524 216.124 285.401 216.364C285.278 216.599 285.19 216.871 285.138 217.182C285.085 217.486 285.059 217.812 285.059 218.157ZM295.5 215.521V223H292.538V213.49H295.315L295.5 215.521ZM295.148 217.92L294.454 217.938C294.454 217.211 294.542 216.563 294.718 215.995C294.894 215.421 295.143 214.935 295.465 214.536C295.787 214.138 296.171 213.836 296.616 213.631C297.067 213.42 297.568 213.314 298.119 213.314C298.559 213.314 298.96 213.379 299.323 213.508C299.692 213.637 300.009 213.845 300.272 214.132C300.542 214.419 300.747 214.8 300.888 215.274C301.034 215.743 301.107 216.323 301.107 217.015V223H298.128V217.006C298.128 216.625 298.075 216.335 297.97 216.136C297.864 215.931 297.712 215.79 297.513 215.714C297.313 215.638 297.07 215.6 296.783 215.6C296.479 215.6 296.221 215.658 296.01 215.775C295.799 215.893 295.629 216.057 295.5 216.268C295.377 216.473 295.286 216.716 295.228 216.997C295.175 217.278 295.148 217.586 295.148 217.92Z" fill="white"/>
<rect x="222" y="196" width="102" height="41" rx="3" stroke="#424242" stroke-width="4"/>
<rect x="344" y="196" width="112" height="41" rx="3" fill="#424242"/>
<path d="M376.19 220.627V223H369.37V220.627H376.19ZM370.469 210.203V223H367.384V210.203H370.469ZM375.312 215.283V217.577H369.37V215.283H375.312ZM376.217 210.203V212.585H369.37V210.203H376.217ZM380.444 209.5V223H377.474V209.5H380.444ZM386.878 223.176C386.104 223.176 385.413 223.056 384.804 222.815C384.194 222.569 383.679 222.232 383.257 221.805C382.841 221.377 382.521 220.885 382.299 220.328C382.082 219.771 381.974 219.183 381.974 218.562V218.228C381.974 217.53 382.07 216.886 382.264 216.294C382.457 215.696 382.744 215.175 383.125 214.729C383.506 214.284 383.983 213.938 384.558 213.692C385.132 213.44 385.8 213.314 386.562 213.314C387.235 213.314 387.839 213.423 388.372 213.64C388.905 213.856 389.356 214.167 389.726 214.571C390.101 214.976 390.385 215.465 390.578 216.039C390.777 216.613 390.877 217.258 390.877 217.973V219.177H383.107V217.322H387.985V217.094C387.991 216.777 387.936 216.508 387.818 216.285C387.707 216.062 387.543 215.893 387.326 215.775C387.109 215.658 386.846 215.6 386.535 215.6C386.213 215.6 385.946 215.67 385.735 215.811C385.53 215.951 385.369 216.145 385.252 216.391C385.141 216.631 385.062 216.909 385.015 217.226C384.968 217.542 384.944 217.876 384.944 218.228V218.562C384.944 218.913 384.991 219.232 385.085 219.52C385.185 219.807 385.325 220.053 385.507 220.258C385.694 220.457 385.917 220.612 386.175 220.724C386.438 220.835 386.737 220.891 387.071 220.891C387.476 220.891 387.874 220.814 388.267 220.662C388.659 220.51 388.996 220.258 389.277 219.906L390.622 221.506C390.429 221.781 390.153 222.048 389.796 222.306C389.444 222.563 389.022 222.774 388.53 222.938C388.038 223.097 387.487 223.176 386.878 223.176ZM396.098 220.891C396.373 220.891 396.607 220.841 396.801 220.741C397 220.636 397.149 220.489 397.249 220.302C397.354 220.108 397.404 219.877 397.398 219.607H400.185C400.19 220.322 400.015 220.949 399.657 221.488C399.306 222.021 398.825 222.438 398.216 222.736C397.612 223.029 396.93 223.176 396.168 223.176C395.424 223.176 394.773 223.056 394.217 222.815C393.66 222.569 393.194 222.229 392.819 221.796C392.45 221.356 392.172 220.844 391.984 220.258C391.803 219.672 391.712 219.036 391.712 218.351V218.148C391.712 217.463 391.803 216.827 391.984 216.241C392.172 215.649 392.45 215.137 392.819 214.703C393.194 214.264 393.657 213.924 394.208 213.684C394.765 213.438 395.412 213.314 396.15 213.314C396.941 213.314 397.639 213.464 398.242 213.763C398.852 214.062 399.329 214.495 399.675 215.063C400.021 215.632 400.19 216.32 400.185 217.129H397.398C397.404 216.842 397.36 216.584 397.267 216.355C397.173 216.127 397.026 215.945 396.827 215.811C396.634 215.67 396.385 215.6 396.08 215.6C395.775 215.6 395.529 215.667 395.342 215.802C395.154 215.937 395.011 216.124 394.911 216.364C394.817 216.599 394.753 216.868 394.718 217.173C394.688 217.478 394.674 217.803 394.674 218.148V218.351C394.674 218.702 394.688 219.033 394.718 219.344C394.753 219.648 394.82 219.918 394.92 220.152C395.02 220.381 395.163 220.562 395.351 220.697C395.538 220.826 395.787 220.891 396.098 220.891ZM406.46 213.49V215.547H400.729V213.49H406.46ZM401.934 211.126H404.896V219.897C404.896 220.149 404.925 220.346 404.983 220.486C405.042 220.621 405.142 220.718 405.282 220.776C405.429 220.829 405.622 220.855 405.862 220.855C406.032 220.855 406.173 220.853 406.284 220.847C406.396 220.835 406.501 220.82 406.601 220.803V222.921C406.349 223.003 406.085 223.064 405.81 223.105C405.534 223.152 405.241 223.176 404.931 223.176C404.298 223.176 403.756 223.076 403.305 222.877C402.859 222.678 402.52 222.364 402.285 221.937C402.051 221.509 401.934 220.952 401.934 220.267V211.126ZM410.626 215.846V223H407.664V213.49H410.433L410.626 215.846ZM413.438 213.42L413.386 216.171C413.269 216.159 413.11 216.145 412.911 216.127C412.712 216.109 412.545 216.101 412.41 216.101C412.064 216.101 411.766 216.142 411.514 216.224C411.268 216.3 411.062 216.417 410.898 216.575C410.74 216.728 410.623 216.921 410.547 217.155C410.477 217.39 410.444 217.662 410.45 217.973L409.914 217.621C409.914 216.982 409.976 216.402 410.099 215.881C410.228 215.354 410.409 214.899 410.644 214.519C410.878 214.132 411.162 213.836 411.496 213.631C411.83 213.42 412.205 213.314 412.621 213.314C412.768 213.314 412.911 213.323 413.052 213.341C413.198 213.358 413.327 213.385 413.438 213.42ZM413.772 218.342V218.157C413.772 217.46 413.872 216.818 414.071 216.232C414.271 215.641 414.563 215.128 414.95 214.694C415.337 214.261 415.814 213.924 416.383 213.684C416.951 213.438 417.607 213.314 418.352 213.314C419.102 213.314 419.761 213.438 420.329 213.684C420.903 213.924 421.384 214.261 421.771 214.694C422.157 215.128 422.45 215.641 422.649 216.232C422.849 216.818 422.948 217.46 422.948 218.157V218.342C422.948 219.033 422.849 219.675 422.649 220.267C422.45 220.853 422.157 221.365 421.771 221.805C421.384 222.238 420.906 222.575 420.338 222.815C419.77 223.056 419.113 223.176 418.369 223.176C417.625 223.176 416.966 223.056 416.392 222.815C415.817 222.575 415.337 222.238 414.95 221.805C414.563 221.365 414.271 220.853 414.071 220.267C413.872 219.675 413.772 219.033 413.772 218.342ZM416.734 218.157V218.342C416.734 218.699 416.761 219.033 416.813 219.344C416.866 219.654 416.954 219.927 417.077 220.161C417.2 220.39 417.367 220.568 417.578 220.697C417.789 220.826 418.053 220.891 418.369 220.891C418.68 220.891 418.938 220.826 419.143 220.697C419.354 220.568 419.521 220.39 419.644 220.161C419.767 219.927 419.854 219.654 419.907 219.344C419.96 219.033 419.986 218.699 419.986 218.342V218.157C419.986 217.812 419.96 217.486 419.907 217.182C419.854 216.871 419.767 216.599 419.644 216.364C419.521 216.124 419.354 215.937 419.143 215.802C418.932 215.667 418.668 215.6 418.352 215.6C418.041 215.6 417.78 215.667 417.569 215.802C417.364 215.937 417.2 216.124 417.077 216.364C416.954 216.599 416.866 216.871 416.813 217.182C416.761 217.486 416.734 217.812 416.734 218.157ZM427.176 215.521V223H424.214V213.49H426.991L427.176 215.521ZM426.824 217.92L426.13 217.938C426.13 217.211 426.218 216.563 426.394 215.995C426.569 215.421 426.818 214.935 427.141 214.536C427.463 214.138 427.847 213.836 428.292 213.631C428.743 213.42 429.244 213.314 429.795 213.314C430.234 213.314 430.636 213.379 430.999 213.508C431.368 213.637 431.685 213.845 431.948 214.132C432.218 214.419 432.423 214.8 432.563 215.274C432.71 215.743 432.783 216.323 432.783 217.015V223H429.804V217.006C429.804 216.625 429.751 216.335 429.646 216.136C429.54 215.931 429.388 215.79 429.188 215.714C428.989 215.638 428.746 215.6 428.459 215.6C428.154 215.6 427.896 215.658 427.686 215.775C427.475 215.893 427.305 216.057 427.176 216.268C427.053 216.473 426.962 216.716 426.903 216.997C426.851 217.278 426.824 217.586 426.824 217.92Z" fill="white"/>
<rect x="344" y="196" width="112" height="41" rx="3" stroke="#424242" stroke-width="4"/>
<rect x="476" y="196" width="104" height="41" rx="3" fill="#424242"/>
<path d="M507.812 220.627V223H501.343V220.627H507.812ZM502.441 210.203V223H499.356V210.203H502.441ZM513.911 220.609V216.689C513.911 216.42 513.873 216.188 513.797 215.995C513.721 215.802 513.601 215.652 513.437 215.547C513.272 215.436 513.053 215.38 512.777 215.38C512.555 215.38 512.364 215.418 512.206 215.494C512.048 215.57 511.928 215.685 511.846 215.837C511.764 215.989 511.723 216.183 511.723 216.417H508.761C508.761 215.978 508.857 215.57 509.051 215.195C509.25 214.814 509.531 214.483 509.895 214.202C510.264 213.921 510.703 213.704 511.213 213.552C511.729 213.394 512.303 213.314 512.936 213.314C513.691 213.314 514.365 213.44 514.957 213.692C515.555 213.944 516.026 214.322 516.372 214.826C516.718 215.324 516.891 215.951 516.891 216.707V220.601C516.891 221.222 516.926 221.693 516.996 222.016C517.066 222.332 517.166 222.61 517.295 222.851V223H514.324C514.184 222.707 514.078 222.35 514.008 221.928C513.943 221.5 513.911 221.061 513.911 220.609ZM514.271 217.19L514.289 218.772H512.979C512.704 218.772 512.47 218.811 512.276 218.887C512.089 218.963 511.937 219.068 511.819 219.203C511.708 219.332 511.626 219.479 511.573 219.643C511.526 219.807 511.503 219.979 511.503 220.161C511.503 220.337 511.544 220.495 511.626 220.636C511.714 220.771 511.831 220.876 511.978 220.952C512.124 221.028 512.288 221.066 512.47 221.066C512.798 221.066 513.076 221.005 513.305 220.882C513.539 220.753 513.718 220.598 513.841 220.416C513.964 220.234 514.025 220.064 514.025 219.906L514.676 221.119C514.559 221.354 514.424 221.591 514.271 221.831C514.125 222.071 513.94 222.294 513.718 222.499C513.501 222.698 513.234 222.862 512.918 222.991C512.602 223.114 512.218 223.176 511.767 223.176C511.181 223.176 510.642 223.056 510.149 222.815C509.663 222.575 509.273 222.241 508.98 221.813C508.688 221.38 508.541 220.882 508.541 220.319C508.541 219.827 508.629 219.388 508.805 219.001C508.986 218.614 509.259 218.286 509.622 218.017C509.985 217.747 510.448 217.542 511.011 217.401C511.573 217.261 512.235 217.19 512.997 217.19H514.271ZM521.522 215.846V223H518.561V213.49H521.329L521.522 215.846ZM524.335 213.42L524.282 216.171C524.165 216.159 524.007 216.145 523.808 216.127C523.608 216.109 523.441 216.101 523.307 216.101C522.961 216.101 522.662 216.142 522.41 216.224C522.164 216.3 521.959 216.417 521.795 216.575C521.637 216.728 521.52 216.921 521.443 217.155C521.373 217.39 521.341 217.662 521.347 217.973L520.811 217.621C520.811 216.982 520.872 216.402 520.995 215.881C521.124 215.354 521.306 214.899 521.54 214.519C521.774 214.132 522.059 213.836 522.393 213.631C522.727 213.42 523.102 213.314 523.518 213.314C523.664 213.314 523.808 213.323 523.948 213.341C524.095 213.358 524.224 213.385 524.335 213.42ZM530.03 220.609V216.689C530.03 216.42 529.992 216.188 529.916 215.995C529.84 215.802 529.72 215.652 529.556 215.547C529.392 215.436 529.172 215.38 528.896 215.38C528.674 215.38 528.483 215.418 528.325 215.494C528.167 215.57 528.047 215.685 527.965 215.837C527.883 215.989 527.842 216.183 527.842 216.417H524.88C524.88 215.978 524.977 215.57 525.17 215.195C525.369 214.814 525.65 214.483 526.014 214.202C526.383 213.921 526.822 213.704 527.332 213.552C527.848 213.394 528.422 213.314 529.055 213.314C529.811 213.314 530.484 213.44 531.076 213.692C531.674 213.944 532.146 214.322 532.491 214.826C532.837 215.324 533.01 215.951 533.01 216.707V220.601C533.01 221.222 533.045 221.693 533.115 222.016C533.186 222.332 533.285 222.61 533.414 222.851V223H530.443C530.303 222.707 530.197 222.35 530.127 221.928C530.062 221.5 530.03 221.061 530.03 220.609ZM530.391 217.19L530.408 218.772H529.099C528.823 218.772 528.589 218.811 528.396 218.887C528.208 218.963 528.056 219.068 527.938 219.203C527.827 219.332 527.745 219.479 527.692 219.643C527.646 219.807 527.622 219.979 527.622 220.161C527.622 220.337 527.663 220.495 527.745 220.636C527.833 220.771 527.95 220.876 528.097 220.952C528.243 221.028 528.407 221.066 528.589 221.066C528.917 221.066 529.195 221.005 529.424 220.882C529.658 220.753 529.837 220.598 529.96 220.416C530.083 220.234 530.145 220.064 530.145 219.906L530.795 221.119C530.678 221.354 530.543 221.591 530.391 221.831C530.244 222.071 530.06 222.294 529.837 222.499C529.62 222.698 529.354 222.862 529.037 222.991C528.721 223.114 528.337 223.176 527.886 223.176C527.3 223.176 526.761 223.056 526.269 222.815C525.782 222.575 525.393 222.241 525.1 221.813C524.807 221.38 524.66 220.882 524.66 220.319C524.66 219.827 524.748 219.388 524.924 219.001C525.105 218.614 525.378 218.286 525.741 218.017C526.104 217.747 526.567 217.542 527.13 217.401C527.692 217.261 528.354 217.19 529.116 217.19H530.391ZM537.94 220.97L539.812 213.49H542.933L539.821 223H537.976L537.94 220.97ZM536.833 213.49L538.679 220.97L538.661 223H536.807L533.704 213.49H536.833ZM548.294 223.176C547.521 223.176 546.829 223.056 546.22 222.815C545.61 222.569 545.095 222.232 544.673 221.805C544.257 221.377 543.938 220.885 543.715 220.328C543.498 219.771 543.39 219.183 543.39 218.562V218.228C543.39 217.53 543.486 216.886 543.68 216.294C543.873 215.696 544.16 215.175 544.541 214.729C544.922 214.284 545.399 213.938 545.974 213.692C546.548 213.44 547.216 213.314 547.978 213.314C548.651 213.314 549.255 213.423 549.788 213.64C550.321 213.856 550.772 214.167 551.142 214.571C551.517 214.976 551.801 215.465 551.994 216.039C552.193 216.613 552.293 217.258 552.293 217.973V219.177H544.523V217.322H549.401V217.094C549.407 216.777 549.352 216.508 549.234 216.285C549.123 216.062 548.959 215.893 548.742 215.775C548.525 215.658 548.262 215.6 547.951 215.6C547.629 215.6 547.362 215.67 547.151 215.811C546.946 215.951 546.785 216.145 546.668 216.391C546.557 216.631 546.478 216.909 546.431 217.226C546.384 217.542 546.36 217.876 546.36 218.228V218.562C546.36 218.913 546.407 219.232 546.501 219.52C546.601 219.807 546.741 220.053 546.923 220.258C547.11 220.457 547.333 220.612 547.591 220.724C547.854 220.835 548.153 220.891 548.487 220.891C548.892 220.891 549.29 220.814 549.683 220.662C550.075 220.51 550.412 220.258 550.693 219.906L552.038 221.506C551.845 221.781 551.569 222.048 551.212 222.306C550.86 222.563 550.438 222.774 549.946 222.938C549.454 223.097 548.903 223.176 548.294 223.176ZM556.626 209.5V223H553.655V209.5H556.626Z" fill="white"/>
<rect x="476" y="196" width="104" height="41" rx="3" stroke="#424242" stroke-width="4"/>
<rect x="600" y="196" width="103" height="41" rx="3" fill="#424242"/>
<path d="M624.72 210.203H627.233L630.09 219.106L632.946 210.203H635.46L631.109 223H629.07L624.72 210.203ZM623.19 210.203H625.792L626.275 220.012V223H623.19V210.203ZM634.388 210.203H636.998V223H633.904V220.012L634.388 210.203ZM641.753 221.884L644.214 213.49H647.396L643.572 224.415C643.49 224.655 643.382 224.913 643.247 225.188C643.112 225.47 642.928 225.736 642.693 225.988C642.459 226.24 642.157 226.445 641.788 226.604C641.425 226.762 640.974 226.841 640.435 226.841C640.147 226.841 639.937 226.826 639.802 226.797C639.673 226.773 639.474 226.729 639.204 226.665V224.547C639.28 224.547 639.345 224.547 639.397 224.547C639.456 224.547 639.521 224.547 639.591 224.547C639.907 224.547 640.159 224.515 640.347 224.45C640.54 224.386 640.687 224.292 640.786 224.169C640.892 224.046 640.974 223.896 641.032 223.721L641.753 221.884ZM641.129 213.49L643.001 220.144L643.326 223.281H641.34L637.956 213.49H641.129ZM654.901 219.599C654.901 219.399 654.872 219.221 654.813 219.062C654.755 218.898 654.646 218.746 654.488 218.605C654.33 218.465 654.102 218.324 653.803 218.184C653.51 218.037 653.123 217.885 652.643 217.727C652.08 217.539 651.538 217.328 651.017 217.094C650.495 216.854 650.029 216.575 649.619 216.259C649.209 215.937 648.884 215.562 648.644 215.134C648.403 214.7 648.283 214.196 648.283 213.622C648.283 213.071 648.406 212.576 648.652 212.137C648.898 211.691 649.241 211.313 649.681 211.003C650.126 210.687 650.647 210.446 651.245 210.282C651.843 210.112 652.496 210.027 653.205 210.027C654.143 210.027 654.969 210.191 655.684 210.52C656.404 210.842 656.967 211.302 657.371 211.899C657.781 212.491 657.986 213.191 657.986 214H654.919C654.919 213.678 654.852 213.394 654.717 213.147C654.588 212.901 654.392 212.708 654.128 212.567C653.864 212.427 653.533 212.356 653.135 212.356C652.748 212.356 652.423 212.415 652.159 212.532C651.896 212.649 651.696 212.808 651.562 213.007C651.427 213.2 651.359 213.414 651.359 213.648C651.359 213.842 651.412 214.018 651.518 214.176C651.629 214.328 651.784 214.472 651.983 214.606C652.188 214.741 652.435 214.87 652.722 214.993C653.015 215.116 653.343 215.236 653.706 215.354C654.386 215.57 654.989 215.813 655.517 216.083C656.05 216.347 656.498 216.648 656.861 216.988C657.23 217.322 657.509 217.703 657.696 218.131C657.89 218.559 657.986 219.042 657.986 219.581C657.986 220.155 657.875 220.665 657.652 221.11C657.43 221.556 657.11 221.934 656.694 222.244C656.278 222.549 655.78 222.78 655.2 222.938C654.62 223.097 653.973 223.176 653.258 223.176C652.602 223.176 651.954 223.094 651.315 222.93C650.683 222.76 650.108 222.502 649.593 222.156C649.077 221.805 648.664 221.356 648.354 220.812C648.049 220.261 647.896 219.607 647.896 218.852H650.99C650.99 219.227 651.04 219.543 651.14 219.801C651.239 220.059 651.386 220.267 651.579 220.425C651.772 220.577 652.01 220.688 652.291 220.759C652.572 220.823 652.895 220.855 653.258 220.855C653.65 220.855 653.967 220.8 654.207 220.688C654.447 220.571 654.623 220.419 654.734 220.231C654.846 220.038 654.901 219.827 654.901 219.599ZM666.714 220.891L670.282 223.721L668.366 225.338L664.859 222.508L666.714 220.891ZM670.432 216.347V216.865C670.432 217.844 670.294 218.723 670.019 219.502C669.749 220.275 669.362 220.938 668.858 221.488C668.36 222.033 667.771 222.452 667.092 222.745C666.412 223.032 665.662 223.176 664.842 223.176C664.016 223.176 663.26 223.032 662.574 222.745C661.895 222.452 661.303 222.033 660.799 221.488C660.301 220.938 659.914 220.275 659.639 219.502C659.369 218.723 659.234 217.844 659.234 216.865V216.347C659.234 215.368 659.369 214.489 659.639 213.71C659.914 212.931 660.298 212.269 660.79 211.724C661.288 211.173 661.877 210.754 662.557 210.467C663.242 210.174 663.998 210.027 664.824 210.027C665.645 210.027 666.395 210.174 667.074 210.467C667.76 210.754 668.352 211.173 668.85 211.724C669.354 212.269 669.743 212.931 670.019 213.71C670.294 214.489 670.432 215.368 670.432 216.347ZM667.294 216.865V216.329C667.294 215.696 667.238 215.14 667.127 214.659C667.021 214.173 666.863 213.766 666.652 213.438C666.441 213.109 666.181 212.863 665.87 212.699C665.565 212.529 665.217 212.444 664.824 212.444C664.414 212.444 664.057 212.529 663.752 212.699C663.447 212.863 663.192 213.109 662.987 213.438C662.782 213.766 662.627 214.173 662.521 214.659C662.422 215.14 662.372 215.696 662.372 216.329V216.865C662.372 217.492 662.422 218.049 662.521 218.535C662.627 219.016 662.782 219.423 662.987 219.757C663.198 220.091 663.456 220.343 663.761 220.513C664.071 220.683 664.432 220.768 664.842 220.768C665.234 220.768 665.583 220.683 665.888 220.513C666.192 220.343 666.447 220.091 666.652 219.757C666.863 219.423 667.021 219.016 667.127 218.535C667.238 218.049 667.294 217.492 667.294 216.865ZM680.46 220.627V223H673.991V220.627H680.46ZM675.09 210.203V223H672.005V210.203H675.09Z" fill="white"/>
<rect x="600" y="196" width="103" height="41" rx="3" stroke="#424242" stroke-width="4"/>
<rect x="723" y="196" width="114" height="41" rx="3" fill="#424242"/>
<path d="M749.062 210.203V223H745.978V210.203H749.062ZM754.037 215.529V217.902H748.184V215.529H754.037ZM754.538 210.203V212.585H748.184V210.203H754.538ZM758.81 213.49V223H755.839V213.49H758.81ZM755.663 211.038C755.663 210.616 755.815 210.271 756.12 210.001C756.425 209.731 756.82 209.597 757.307 209.597C757.793 209.597 758.188 209.731 758.493 210.001C758.798 210.271 758.95 210.616 758.95 211.038C758.95 211.46 758.798 211.806 758.493 212.075C758.188 212.345 757.793 212.479 757.307 212.479C756.82 212.479 756.425 212.345 756.12 212.075C755.815 211.806 755.663 211.46 755.663 211.038ZM763.626 215.846V223H760.664V213.49H763.433L763.626 215.846ZM766.438 213.42L766.386 216.171C766.269 216.159 766.11 216.145 765.911 216.127C765.712 216.109 765.545 216.101 765.41 216.101C765.064 216.101 764.766 216.142 764.514 216.224C764.268 216.3 764.062 216.417 763.898 216.575C763.74 216.728 763.623 216.921 763.547 217.155C763.477 217.39 763.444 217.662 763.45 217.973L762.914 217.621C762.914 216.982 762.976 216.402 763.099 215.881C763.228 215.354 763.409 214.899 763.644 214.519C763.878 214.132 764.162 213.836 764.496 213.631C764.83 213.42 765.205 213.314 765.621 213.314C765.768 213.314 765.911 213.323 766.052 213.341C766.198 213.358 766.327 213.385 766.438 213.42ZM771.888 223.176C771.114 223.176 770.423 223.056 769.813 222.815C769.204 222.569 768.688 222.232 768.267 221.805C767.851 221.377 767.531 220.885 767.309 220.328C767.092 219.771 766.983 219.183 766.983 218.562V218.228C766.983 217.53 767.08 216.886 767.273 216.294C767.467 215.696 767.754 215.175 768.135 214.729C768.516 214.284 768.993 213.938 769.567 213.692C770.142 213.44 770.81 213.314 771.571 213.314C772.245 213.314 772.849 213.423 773.382 213.64C773.915 213.856 774.366 214.167 774.735 214.571C775.11 214.976 775.395 215.465 775.588 216.039C775.787 216.613 775.887 217.258 775.887 217.973V219.177H768.117V217.322H772.995V217.094C773.001 216.777 772.945 216.508 772.828 216.285C772.717 216.062 772.553 215.893 772.336 215.775C772.119 215.658 771.855 215.6 771.545 215.6C771.223 215.6 770.956 215.67 770.745 215.811C770.54 215.951 770.379 216.145 770.262 216.391C770.15 216.631 770.071 216.909 770.024 217.226C769.978 217.542 769.954 217.876 769.954 218.228V218.562C769.954 218.913 770.001 219.232 770.095 219.52C770.194 219.807 770.335 220.053 770.517 220.258C770.704 220.457 770.927 220.612 771.185 220.724C771.448 220.835 771.747 220.891 772.081 220.891C772.485 220.891 772.884 220.814 773.276 220.662C773.669 220.51 774.006 220.258 774.287 219.906L775.632 221.506C775.438 221.781 775.163 222.048 774.806 222.306C774.454 222.563 774.032 222.774 773.54 222.938C773.048 223.097 772.497 223.176 771.888 223.176ZM777.117 209.5H780.079V220.662L779.771 223H777.117V209.5ZM785.915 218.14V218.324C785.915 219.045 785.842 219.701 785.695 220.293C785.549 220.885 785.323 221.397 785.019 221.831C784.714 222.259 784.33 222.59 783.867 222.824C783.404 223.059 782.856 223.176 782.224 223.176C781.649 223.176 781.157 223.053 780.747 222.807C780.337 222.555 779.994 222.209 779.719 221.77C779.443 221.324 779.221 220.812 779.051 220.231C778.881 219.646 778.746 219.019 778.646 218.351V218.131C778.746 217.469 778.881 216.848 779.051 216.268C779.221 215.682 779.443 215.169 779.719 214.729C779.994 214.284 780.334 213.938 780.738 213.692C781.148 213.44 781.638 213.314 782.206 213.314C782.845 213.314 783.396 213.435 783.858 213.675C784.327 213.915 784.714 214.252 785.019 214.686C785.323 215.119 785.549 215.629 785.695 216.215C785.842 216.801 785.915 217.442 785.915 218.14ZM782.953 218.324V218.14C782.953 217.794 782.933 217.469 782.892 217.164C782.851 216.859 782.777 216.59 782.672 216.355C782.566 216.121 782.417 215.937 782.224 215.802C782.03 215.667 781.778 215.6 781.468 215.6C781.151 215.6 780.885 215.652 780.668 215.758C780.457 215.863 780.287 216.016 780.158 216.215C780.035 216.408 779.947 216.648 779.895 216.936C779.842 217.217 779.818 217.536 779.824 217.894V218.588C779.812 219.074 779.856 219.49 779.956 219.836C780.056 220.182 780.229 220.445 780.475 220.627C780.721 220.809 781.058 220.899 781.485 220.899C781.802 220.899 782.057 220.838 782.25 220.715C782.449 220.592 782.599 220.416 782.698 220.188C782.798 219.959 782.865 219.687 782.9 219.37C782.936 219.054 782.953 218.705 782.953 218.324ZM792.173 220.609V216.689C792.173 216.42 792.135 216.188 792.059 215.995C791.982 215.802 791.862 215.652 791.698 215.547C791.534 215.436 791.314 215.38 791.039 215.38C790.816 215.38 790.626 215.418 790.468 215.494C790.31 215.57 790.189 215.685 790.107 215.837C790.025 215.989 789.984 216.183 789.984 216.417H787.022C787.022 215.978 787.119 215.57 787.312 215.195C787.512 214.814 787.793 214.483 788.156 214.202C788.525 213.921 788.965 213.704 789.475 213.552C789.99 213.394 790.564 213.314 791.197 213.314C791.953 213.314 792.627 213.44 793.219 213.692C793.816 213.944 794.288 214.322 794.634 214.826C794.979 215.324 795.152 215.951 795.152 216.707V220.601C795.152 221.222 795.188 221.693 795.258 222.016C795.328 222.332 795.428 222.61 795.557 222.851V223H792.586C792.445 222.707 792.34 222.35 792.27 221.928C792.205 221.5 792.173 221.061 792.173 220.609ZM792.533 217.19L792.551 218.772H791.241C790.966 218.772 790.731 218.811 790.538 218.887C790.351 218.963 790.198 219.068 790.081 219.203C789.97 219.332 789.888 219.479 789.835 219.643C789.788 219.807 789.765 219.979 789.765 220.161C789.765 220.337 789.806 220.495 789.888 220.636C789.976 220.771 790.093 220.876 790.239 220.952C790.386 221.028 790.55 221.066 790.731 221.066C791.06 221.066 791.338 221.005 791.566 220.882C791.801 220.753 791.979 220.598 792.103 220.416C792.226 220.234 792.287 220.064 792.287 219.906L792.938 221.119C792.82 221.354 792.686 221.591 792.533 221.831C792.387 222.071 792.202 222.294 791.979 222.499C791.763 222.698 791.496 222.862 791.18 222.991C790.863 223.114 790.479 223.176 790.028 223.176C789.442 223.176 788.903 223.056 788.411 222.815C787.925 222.575 787.535 222.241 787.242 221.813C786.949 221.38 786.803 220.882 786.803 220.319C786.803 219.827 786.891 219.388 787.066 219.001C787.248 218.614 787.521 218.286 787.884 218.017C788.247 217.747 788.71 217.542 789.272 217.401C789.835 217.261 790.497 217.19 791.259 217.19H792.533ZM801.779 220.328C801.779 220.164 801.724 220.023 801.612 219.906C801.507 219.783 801.319 219.672 801.05 219.572C800.78 219.467 800.402 219.361 799.916 219.256C799.453 219.156 799.017 219.024 798.606 218.86C798.202 218.696 797.848 218.497 797.543 218.263C797.238 218.028 796.998 217.75 796.822 217.428C796.652 217.105 796.567 216.736 796.567 216.32C796.567 215.916 796.652 215.535 796.822 215.178C796.998 214.814 797.253 214.495 797.587 214.22C797.927 213.938 798.34 213.719 798.826 213.561C799.312 213.396 799.866 213.314 800.487 213.314C801.343 213.314 802.081 213.446 802.702 213.71C803.323 213.968 803.801 214.331 804.135 214.8C804.475 215.263 804.645 215.799 804.645 216.408H801.683C801.683 216.168 801.642 215.963 801.56 215.793C801.483 215.623 801.357 215.494 801.182 215.406C801.006 215.312 800.771 215.266 800.479 215.266C800.273 215.266 800.086 215.304 799.916 215.38C799.752 215.456 799.62 215.562 799.521 215.696C799.421 215.831 799.371 215.989 799.371 216.171C799.371 216.3 799.4 216.417 799.459 216.522C799.523 216.622 799.62 216.716 799.749 216.804C799.878 216.886 800.042 216.962 800.241 217.032C800.44 217.097 800.681 217.155 800.962 217.208C801.601 217.325 802.198 217.492 802.755 217.709C803.312 217.926 803.763 218.233 804.108 218.632C804.46 219.03 804.636 219.566 804.636 220.24C804.636 220.662 804.539 221.052 804.346 221.409C804.152 221.761 803.874 222.071 803.511 222.341C803.147 222.604 802.711 222.81 802.201 222.956C801.691 223.103 801.117 223.176 800.479 223.176C799.57 223.176 798.803 223.015 798.176 222.692C797.549 222.364 797.074 221.954 796.752 221.462C796.436 220.964 796.277 220.46 796.277 219.95H799.037C799.049 220.243 799.119 220.483 799.248 220.671C799.383 220.858 799.562 220.996 799.784 221.084C800.007 221.172 800.265 221.216 800.558 221.216C800.827 221.216 801.05 221.178 801.226 221.102C801.407 221.025 801.545 220.923 801.639 220.794C801.732 220.659 801.779 220.504 801.779 220.328ZM810.63 223.176C809.856 223.176 809.165 223.056 808.556 222.815C807.946 222.569 807.431 222.232 807.009 221.805C806.593 221.377 806.273 220.885 806.051 220.328C805.834 219.771 805.726 219.183 805.726 218.562V218.228C805.726 217.53 805.822 216.886 806.016 216.294C806.209 215.696 806.496 215.175 806.877 214.729C807.258 214.284 807.735 213.938 808.31 213.692C808.884 213.44 809.552 213.314 810.313 213.314C810.987 213.314 811.591 213.423 812.124 213.64C812.657 213.856 813.108 214.167 813.478 214.571C813.853 214.976 814.137 215.465 814.33 216.039C814.529 216.613 814.629 217.258 814.629 217.973V219.177H806.859V217.322H811.737V217.094C811.743 216.777 811.688 216.508 811.57 216.285C811.459 216.062 811.295 215.893 811.078 215.775C810.861 215.658 810.598 215.6 810.287 215.6C809.965 215.6 809.698 215.67 809.487 215.811C809.282 215.951 809.121 216.145 809.004 216.391C808.893 216.631 808.813 216.909 808.767 217.226C808.72 217.542 808.696 217.876 808.696 218.228V218.562C808.696 218.913 808.743 219.232 808.837 219.52C808.937 219.807 809.077 220.053 809.259 220.258C809.446 220.457 809.669 220.612 809.927 220.724C810.19 220.835 810.489 220.891 810.823 220.891C811.228 220.891 811.626 220.814 812.019 220.662C812.411 220.51 812.748 220.258 813.029 219.906L814.374 221.506C814.181 221.781 813.905 222.048 813.548 222.306C813.196 222.563 812.774 222.774 812.282 222.938C811.79 223.097 811.239 223.176 810.63 223.176Z" fill="white"/>
<rect x="723" y="196" width="114" height="41" rx="3" stroke="#424242" stroke-width="4"/>
<rect x="857" y="196" width="105" height="41" rx="3" fill="#424242"/>
<path d="M891.175 216.347V216.865C891.175 217.844 891.037 218.723 890.762 219.502C890.492 220.275 890.108 220.938 889.61 221.488C889.112 222.033 888.523 222.452 887.844 222.745C887.164 223.032 886.414 223.176 885.594 223.176C884.768 223.176 884.012 223.032 883.326 222.745C882.646 222.452 882.055 222.033 881.551 221.488C881.053 220.938 880.666 220.275 880.391 219.502C880.121 218.723 879.986 217.844 879.986 216.865V216.347C879.986 215.368 880.121 214.489 880.391 213.71C880.666 212.931 881.05 212.269 881.542 211.724C882.04 211.173 882.629 210.754 883.309 210.467C883.994 210.174 884.75 210.027 885.576 210.027C886.396 210.027 887.146 210.174 887.826 210.467C888.512 210.754 889.104 211.173 889.602 211.724C890.1 212.269 890.486 212.931 890.762 213.71C891.037 214.489 891.175 215.368 891.175 216.347ZM888.046 216.865V216.329C888.046 215.696 887.99 215.14 887.879 214.659C887.773 214.173 887.615 213.766 887.404 213.438C887.193 213.109 886.933 212.863 886.622 212.699C886.317 212.529 885.969 212.444 885.576 212.444C885.166 212.444 884.809 212.529 884.504 212.699C884.199 212.863 883.944 213.109 883.739 213.438C883.534 213.766 883.379 214.173 883.273 214.659C883.174 215.14 883.124 215.696 883.124 216.329V216.865C883.124 217.492 883.174 218.049 883.273 218.535C883.379 219.016 883.534 219.423 883.739 219.757C883.95 220.091 884.208 220.343 884.513 220.513C884.823 220.683 885.184 220.768 885.594 220.768C885.986 220.768 886.335 220.683 886.64 220.513C886.944 220.343 887.199 220.091 887.404 219.757C887.615 219.423 887.773 219.016 887.879 218.535C887.99 218.049 888.046 217.492 888.046 216.865ZM895.622 215.318V226.656H892.66V213.49H895.42L895.622 215.318ZM901.458 218.131V218.315C901.458 219.007 901.379 219.648 901.221 220.24C901.062 220.832 900.828 221.348 900.518 221.787C900.207 222.227 899.82 222.569 899.357 222.815C898.9 223.056 898.37 223.176 897.767 223.176C897.198 223.176 896.709 223.05 896.299 222.798C895.889 222.546 895.546 222.197 895.271 221.752C894.995 221.307 894.772 220.797 894.603 220.223C894.433 219.648 894.298 219.042 894.198 218.403V218.166C894.298 217.48 894.433 216.845 894.603 216.259C894.772 215.667 894.995 215.151 895.271 214.712C895.546 214.272 895.886 213.93 896.29 213.684C896.7 213.438 897.189 213.314 897.758 213.314C898.361 213.314 898.892 213.429 899.349 213.657C899.812 213.886 900.198 214.214 900.509 214.642C900.825 215.063 901.062 215.57 901.221 216.162C901.379 216.754 901.458 217.41 901.458 218.131ZM898.496 218.315V218.131C898.496 217.762 898.47 217.425 898.417 217.12C898.364 216.81 898.279 216.54 898.162 216.312C898.051 216.083 897.901 215.907 897.714 215.784C897.526 215.661 897.295 215.6 897.02 215.6C896.703 215.6 896.437 215.649 896.22 215.749C896.009 215.843 895.839 215.989 895.71 216.188C895.587 216.382 895.499 216.625 895.446 216.918C895.399 217.205 895.379 217.542 895.385 217.929V218.649C895.373 219.095 895.417 219.487 895.517 219.827C895.616 220.161 895.789 220.422 896.035 220.609C896.281 220.797 896.615 220.891 897.037 220.891C897.318 220.891 897.553 220.826 897.74 220.697C897.928 220.562 898.077 220.378 898.188 220.144C898.3 219.903 898.379 219.628 898.426 219.317C898.473 219.007 898.496 218.673 898.496 218.315ZM907.382 223.176C906.608 223.176 905.917 223.056 905.308 222.815C904.698 222.569 904.183 222.232 903.761 221.805C903.345 221.377 903.025 220.885 902.803 220.328C902.586 219.771 902.478 219.183 902.478 218.562V218.228C902.478 217.53 902.574 216.886 902.768 216.294C902.961 215.696 903.248 215.175 903.629 214.729C904.01 214.284 904.487 213.938 905.062 213.692C905.636 213.44 906.304 213.314 907.065 213.314C907.739 213.314 908.343 213.423 908.876 213.64C909.409 213.856 909.86 214.167 910.229 214.571C910.604 214.976 910.889 215.465 911.082 216.039C911.281 216.613 911.381 217.258 911.381 217.973V219.177H903.611V217.322H908.489V217.094C908.495 216.777 908.439 216.508 908.322 216.285C908.211 216.062 908.047 215.893 907.83 215.775C907.613 215.658 907.35 215.6 907.039 215.6C906.717 215.6 906.45 215.67 906.239 215.811C906.034 215.951 905.873 216.145 905.756 216.391C905.645 216.631 905.565 216.909 905.519 217.226C905.472 217.542 905.448 217.876 905.448 218.228V218.562C905.448 218.913 905.495 219.232 905.589 219.52C905.688 219.807 905.829 220.053 906.011 220.258C906.198 220.457 906.421 220.612 906.679 220.724C906.942 220.835 907.241 220.891 907.575 220.891C907.979 220.891 908.378 220.814 908.771 220.662C909.163 220.51 909.5 220.258 909.781 219.906L911.126 221.506C910.933 221.781 910.657 222.048 910.3 222.306C909.948 222.563 909.526 222.774 909.034 222.938C908.542 223.097 907.991 223.176 907.382 223.176ZM915.494 215.521V223H912.532V213.49H915.31L915.494 215.521ZM915.143 217.92L914.448 217.938C914.448 217.211 914.536 216.563 914.712 215.995C914.888 215.421 915.137 214.935 915.459 214.536C915.781 214.138 916.165 213.836 916.61 213.631C917.062 213.42 917.562 213.314 918.113 213.314C918.553 213.314 918.954 213.379 919.317 213.508C919.687 213.637 920.003 213.845 920.267 214.132C920.536 214.419 920.741 214.8 920.882 215.274C921.028 215.743 921.102 216.323 921.102 217.015V223H918.122V217.006C918.122 216.625 918.069 216.335 917.964 216.136C917.858 215.931 917.706 215.79 917.507 215.714C917.308 215.638 917.064 215.6 916.777 215.6C916.473 215.6 916.215 215.658 916.004 215.775C915.793 215.893 915.623 216.057 915.494 216.268C915.371 216.473 915.28 216.716 915.222 216.997C915.169 217.278 915.143 217.586 915.143 217.92ZM928.309 212.893L925.188 223H921.875L926.577 210.203H928.678L928.309 212.893ZM930.893 223L927.764 212.893L927.359 210.203H929.486L934.215 223H930.893ZM930.77 218.228V220.609H924.204V218.228H930.77ZM938.434 210.203V223H935.357V210.203H938.434Z" fill="white"/>
<rect x="857" y="196" width="105" height="41" rx="3" stroke="#424242" stroke-width="4"/>
<rect x="982" y="196" width="79" height="41" rx="3" fill="#424242"/>
<path d="M1010.76 212.893L1007.64 223H1004.33L1009.03 210.203H1011.13L1010.76 212.893ZM1013.34 223L1010.21 212.893L1009.81 210.203H1011.94L1016.67 223H1013.34ZM1013.22 218.228V220.609H1006.66V218.228H1013.22ZM1020.06 220.17L1021.82 213.49H1023.67L1023.01 216.839L1021.27 223H1019.79L1020.06 220.17ZM1019.36 213.49L1020.45 220.117L1020.58 223H1018.78L1016.53 213.49H1019.36ZM1025.24 219.977L1026.33 213.49H1029.17L1026.94 223H1025.14L1025.24 219.977ZM1023.88 213.49L1025.66 220.152L1025.93 223H1024.43L1022.72 216.856L1022.09 213.49H1023.88ZM1035.23 220.328C1035.23 220.164 1035.17 220.023 1035.06 219.906C1034.96 219.783 1034.77 219.672 1034.5 219.572C1034.23 219.467 1033.85 219.361 1033.37 219.256C1032.9 219.156 1032.47 219.024 1032.06 218.86C1031.65 218.696 1031.3 218.497 1030.99 218.263C1030.69 218.028 1030.45 217.75 1030.27 217.428C1030.1 217.105 1030.02 216.736 1030.02 216.32C1030.02 215.916 1030.1 215.535 1030.27 215.178C1030.45 214.814 1030.7 214.495 1031.04 214.22C1031.38 213.938 1031.79 213.719 1032.28 213.561C1032.76 213.396 1033.32 213.314 1033.94 213.314C1034.79 213.314 1035.53 213.446 1036.15 213.71C1036.77 213.968 1037.25 214.331 1037.58 214.8C1037.92 215.263 1038.09 215.799 1038.09 216.408H1035.13C1035.13 216.168 1035.09 215.963 1035.01 215.793C1034.93 215.623 1034.81 215.494 1034.63 215.406C1034.46 215.312 1034.22 215.266 1033.93 215.266C1033.72 215.266 1033.54 215.304 1033.37 215.38C1033.2 215.456 1033.07 215.562 1032.97 215.696C1032.87 215.831 1032.82 215.989 1032.82 216.171C1032.82 216.3 1032.85 216.417 1032.91 216.522C1032.97 216.622 1033.07 216.716 1033.2 216.804C1033.33 216.886 1033.49 216.962 1033.69 217.032C1033.89 217.097 1034.13 217.155 1034.41 217.208C1035.05 217.325 1035.65 217.492 1036.2 217.709C1036.76 217.926 1037.21 218.233 1037.56 218.632C1037.91 219.03 1038.08 219.566 1038.08 220.24C1038.08 220.662 1037.99 221.052 1037.79 221.409C1037.6 221.761 1037.32 222.071 1036.96 222.341C1036.6 222.604 1036.16 222.81 1035.65 222.956C1035.14 223.103 1034.57 223.176 1033.93 223.176C1033.02 223.176 1032.25 223.015 1031.62 222.692C1031 222.364 1030.52 221.954 1030.2 221.462C1029.88 220.964 1029.73 220.46 1029.73 219.95H1032.49C1032.5 220.243 1032.57 220.483 1032.7 220.671C1032.83 220.858 1033.01 220.996 1033.23 221.084C1033.46 221.172 1033.71 221.216 1034.01 221.216C1034.28 221.216 1034.5 221.178 1034.67 221.102C1034.86 221.025 1034.99 220.923 1035.09 220.794C1035.18 220.659 1035.23 220.504 1035.23 220.328Z" fill="white"/>
<rect x="982" y="196" width="79" height="41" rx="3" stroke="#424242" stroke-width="4"/>
<path d="M1122 0H1404C1412.28 0 1419 6.71573 1419 15V282C1419 290.284 1412.28 297 1404 297H1122V0Z" fill="white"/>
<path d="M1363.5 240.25L1187.5 240.25C1181.98 240.25 1177.5 235.773 1177.5 230.25V56.75L1252.6 56.75C1258.46 56.75 1263.07 61.7666 1262.57 67.6054L1255 155.75L1363.5 240.25Z" fill="url(#paint0_linear_3_61)"/>
<path d="M1177.5 56.75H1343.5C1354.55 56.75 1363.5 65.7043 1363.5 76.75V240.25H1277.5L1292 138.75L1177.5 56.75Z" fill="url(#paint1_linear_3_61)"/>
<defs>
<linearGradient id="paint0_linear_3_61" x1="1270.5" y1="240.25" x2="1270.5" y2="56.75" gradientUnits="userSpaceOnUse">
<stop stop-color="#0E5C94"/>
<stop offset="1" stop-color="#164B71"/>
</linearGradient>
<linearGradient id="paint1_linear_3_61" x1="1270.5" y1="56.75" x2="1270.5" y2="240.25" gradientUnits="userSpaceOnUse">
<stop stop-color="#0F8EEA" stop-opacity="0.6"/>
<stop offset="1" stop-color="#0F8EEA"/>
</linearGradient>
</defs>
</svg>
