<svg width="1384" height="163" viewBox="0 0 1384 163" fill="none" xmlns="http://www.w3.org/2000/svg">
<path d="M0 15C0 6.71573 6.71573 0 15 0H37V163H15C6.71573 163 0 156.284 0 148V15Z" fill="#0F8EEA"/>
<path d="M1131 0H37V163H1131V0Z" fill="#F0F0F0"/>
<path d="M112.125 84.875V119H103.898V84.875H112.125ZM122.391 84.875V91.2266H93.8672V84.875H122.391ZM134.695 112.625V102.172C134.695 101.453 134.594 100.836 134.391 100.32C134.188 99.8047 133.867 99.4062 133.43 99.125C132.992 98.8281 132.406 98.6797 131.672 98.6797C131.078 98.6797 130.57 98.7812 130.148 98.9844C129.727 99.1875 129.406 99.4922 129.188 99.8984C128.969 100.305 128.859 100.82 128.859 101.445H120.961C120.961 100.273 121.219 99.1875 121.734 98.1875C122.266 97.1719 123.016 96.2891 123.984 95.5391C124.969 94.7891 126.141 94.2109 127.5 93.8047C128.875 93.3828 130.406 93.1719 132.094 93.1719C134.109 93.1719 135.906 93.5078 137.484 94.1797C139.078 94.8516 140.336 95.8594 141.258 97.2031C142.18 98.5312 142.641 100.203 142.641 102.219V112.602C142.641 114.258 142.734 115.516 142.922 116.375C143.109 117.219 143.375 117.961 143.719 118.602V119H135.797C135.422 118.219 135.141 117.266 134.953 116.141C134.781 115 134.695 113.828 134.695 112.625ZM135.656 103.508L135.703 107.727H132.211C131.477 107.727 130.852 107.828 130.336 108.031C129.836 108.234 129.43 108.516 129.117 108.875C128.82 109.219 128.602 109.609 128.461 110.047C128.336 110.484 128.273 110.945 128.273 111.43C128.273 111.898 128.383 112.32 128.602 112.695C128.836 113.055 129.148 113.336 129.539 113.539C129.93 113.742 130.367 113.844 130.852 113.844C131.727 113.844 132.469 113.68 133.078 113.352C133.703 113.008 134.18 112.594 134.508 112.109C134.836 111.625 135 111.172 135 110.75L136.734 113.984C136.422 114.609 136.062 115.242 135.656 115.883C135.266 116.523 134.773 117.117 134.18 117.664C133.602 118.195 132.891 118.633 132.047 118.977C131.203 119.305 130.18 119.469 128.977 119.469C127.414 119.469 125.977 119.148 124.664 118.508C123.367 117.867 122.328 116.977 121.547 115.836C120.766 114.68 120.375 113.352 120.375 111.852C120.375 110.539 120.609 109.367 121.078 108.336C121.562 107.305 122.289 106.43 123.258 105.711C124.227 104.992 125.461 104.445 126.961 104.07C128.461 103.695 130.227 103.508 132.258 103.508H135.656ZM147.094 83H154.992V112.766L154.172 119H147.094V83ZM170.555 106.039V106.531C170.555 108.453 170.359 110.203 169.969 111.781C169.578 113.359 168.977 114.727 168.164 115.883C167.352 117.023 166.328 117.906 165.094 118.531C163.859 119.156 162.398 119.469 160.711 119.469C159.18 119.469 157.867 119.141 156.773 118.484C155.68 117.812 154.766 116.891 154.031 115.719C153.297 114.531 152.703 113.164 152.25 111.617C151.797 110.055 151.438 108.383 151.172 106.602V106.016C151.438 104.25 151.797 102.594 152.25 101.047C152.703 99.4844 153.297 98.1172 154.031 96.9453C154.766 95.7578 155.672 94.8359 156.75 94.1797C157.844 93.5078 159.148 93.1719 160.664 93.1719C162.367 93.1719 163.836 93.4922 165.07 94.1328C166.32 94.7734 167.352 95.6719 168.164 96.8281C168.977 97.9844 169.578 99.3438 169.969 100.906C170.359 102.469 170.555 104.18 170.555 106.039ZM162.656 106.531V106.039C162.656 105.117 162.602 104.25 162.492 103.438C162.383 102.625 162.188 101.906 161.906 101.281C161.625 100.656 161.227 100.164 160.711 99.8047C160.195 99.4453 159.523 99.2656 158.695 99.2656C157.852 99.2656 157.141 99.4062 156.562 99.6875C156 99.9688 155.547 100.375 155.203 100.906C154.875 101.422 154.641 102.062 154.5 102.828C154.359 103.578 154.297 104.43 154.312 105.383V107.234C154.281 108.531 154.398 109.641 154.664 110.562C154.93 111.484 155.391 112.188 156.047 112.672C156.703 113.156 157.602 113.398 158.742 113.398C159.586 113.398 160.266 113.234 160.781 112.906C161.312 112.578 161.711 112.109 161.977 111.5C162.242 110.891 162.422 110.164 162.516 109.32C162.609 108.477 162.656 107.547 162.656 106.531ZM182.414 83V119H174.492V83H182.414ZM199.57 119.469C197.508 119.469 195.664 119.148 194.039 118.508C192.414 117.852 191.039 116.953 189.914 115.812C188.805 114.672 187.953 113.359 187.359 111.875C186.781 110.391 186.492 108.82 186.492 107.164V106.273C186.492 104.414 186.75 102.695 187.266 101.117C187.781 99.5234 188.547 98.1328 189.562 96.9453C190.578 95.7578 191.852 94.8359 193.383 94.1797C194.914 93.5078 196.695 93.1719 198.727 93.1719C200.523 93.1719 202.133 93.4609 203.555 94.0391C204.977 94.6172 206.18 95.4453 207.164 96.5234C208.164 97.6016 208.922 98.9062 209.438 100.438C209.969 101.969 210.234 103.688 210.234 105.594V108.805H189.516V103.859H202.523V103.25C202.539 102.406 202.391 101.688 202.078 101.094C201.781 100.5 201.344 100.047 200.766 99.7344C200.188 99.4219 199.484 99.2656 198.656 99.2656C197.797 99.2656 197.086 99.4531 196.523 99.8281C195.977 100.203 195.547 100.719 195.234 101.375C194.938 102.016 194.727 102.758 194.602 103.602C194.477 104.445 194.414 105.336 194.414 106.273V107.164C194.414 108.102 194.539 108.953 194.789 109.719C195.055 110.484 195.43 111.141 195.914 111.688C196.414 112.219 197.008 112.633 197.695 112.93C198.398 113.227 199.195 113.375 200.086 113.375C201.164 113.375 202.227 113.172 203.273 112.766C204.32 112.359 205.219 111.688 205.969 110.75L209.555 115.016C209.039 115.75 208.305 116.461 207.352 117.148C206.414 117.836 205.289 118.398 203.977 118.836C202.664 119.258 201.195 119.469 199.57 119.469ZM224.414 106.578V106.086C224.414 104.227 224.68 102.516 225.211 100.953C225.742 99.375 226.523 98.0078 227.555 96.8516C228.586 95.6953 229.859 94.7969 231.375 94.1562C232.891 93.5 234.641 93.1719 236.625 93.1719C238.625 93.1719 240.383 93.5 241.898 94.1562C243.43 94.7969 244.711 95.6953 245.742 96.8516C246.773 98.0078 247.555 99.375 248.086 100.953C248.617 102.516 248.883 104.227 248.883 106.086V106.578C248.883 108.422 248.617 110.133 248.086 111.711C247.555 113.273 246.773 114.641 245.742 115.812C244.711 116.969 243.438 117.867 241.922 118.508C240.406 119.148 238.656 119.469 236.672 119.469C234.688 119.469 232.93 119.148 231.398 118.508C229.867 117.867 228.586 116.969 227.555 115.812C226.523 114.641 225.742 113.273 225.211 111.711C224.68 110.133 224.414 108.422 224.414 106.578ZM232.312 106.086V106.578C232.312 107.531 232.383 108.422 232.523 109.25C232.664 110.078 232.898 110.805 233.227 111.43C233.555 112.039 234 112.516 234.562 112.859C235.125 113.203 235.828 113.375 236.672 113.375C237.5 113.375 238.188 113.203 238.734 112.859C239.297 112.516 239.742 112.039 240.07 111.43C240.398 110.805 240.633 110.078 240.773 109.25C240.914 108.422 240.984 107.531 240.984 106.578V106.086C240.984 105.164 240.914 104.297 240.773 103.484C240.633 102.656 240.398 101.93 240.07 101.305C239.742 100.664 239.297 100.164 238.734 99.8047C238.172 99.4453 237.469 99.2656 236.625 99.2656C235.797 99.2656 235.102 99.4453 234.539 99.8047C233.992 100.164 233.555 100.664 233.227 101.305C232.898 101.93 232.664 102.656 232.523 103.484C232.383 104.297 232.312 105.164 232.312 106.086ZM262.078 119H254.133V91.5781C254.133 89.6094 254.531 87.9531 255.328 86.6094C256.125 85.2656 257.25 84.25 258.703 83.5625C260.156 82.8594 261.875 82.5078 263.859 82.5078C264.547 82.5078 265.195 82.5547 265.805 82.6484C266.414 82.7422 267.008 82.8594 267.586 83L267.609 88.8125C267.328 88.7344 267.039 88.6797 266.742 88.6484C266.445 88.6172 266.078 88.6016 265.641 88.6016C264.875 88.6016 264.227 88.7188 263.695 88.9531C263.164 89.1719 262.758 89.5078 262.477 89.9609C262.211 90.3984 262.078 90.9375 262.078 91.5781V119ZM267 93.6406V99.125H250.477V93.6406H267ZM301.57 107.445H309.773C309.664 109.82 309.023 111.914 307.852 113.727C306.68 115.539 305.055 116.953 302.977 117.969C300.914 118.969 298.477 119.469 295.664 119.469C293.383 119.469 291.344 119.086 289.547 118.32C287.766 117.555 286.25 116.453 285 115.016C283.766 113.578 282.82 111.836 282.164 109.789C281.523 107.742 281.203 105.438 281.203 102.875V101.023C281.203 98.4609 281.539 96.1562 282.211 94.1094C282.898 92.0469 283.867 90.2969 285.117 88.8594C286.383 87.4062 287.898 86.2969 289.664 85.5312C291.43 84.7656 293.391 84.3828 295.547 84.3828C298.516 84.3828 301.023 84.9141 303.07 85.9766C305.117 87.0391 306.703 88.5 307.828 90.3594C308.953 92.2031 309.617 94.3047 309.82 96.6641H301.617C301.586 95.3828 301.367 94.3125 300.961 93.4531C300.555 92.5781 299.914 91.9219 299.039 91.4844C298.164 91.0469 297 90.8281 295.547 90.8281C294.531 90.8281 293.648 91.0156 292.898 91.3906C292.148 91.7656 291.523 92.3594 291.023 93.1719C290.523 93.9844 290.148 95.0391 289.898 96.3359C289.664 97.6172 289.547 99.1641 289.547 100.977V102.875C289.547 104.688 289.656 106.234 289.875 107.516C290.094 108.797 290.445 109.844 290.93 110.656C291.414 111.469 292.039 112.07 292.805 112.461C293.586 112.836 294.539 113.023 295.664 113.023C296.914 113.023 297.969 112.828 298.828 112.438C299.688 112.031 300.352 111.422 300.82 110.609C301.289 109.781 301.539 108.727 301.57 107.445ZM312.305 106.578V106.086C312.305 104.227 312.57 102.516 313.102 100.953C313.633 99.375 314.414 98.0078 315.445 96.8516C316.477 95.6953 317.75 94.7969 319.266 94.1562C320.781 93.5 322.531 93.1719 324.516 93.1719C326.516 93.1719 328.273 93.5 329.789 94.1562C331.32 94.7969 332.602 95.6953 333.633 96.8516C334.664 98.0078 335.445 99.375 335.977 100.953C336.508 102.516 336.773 104.227 336.773 106.086V106.578C336.773 108.422 336.508 110.133 335.977 111.711C335.445 113.273 334.664 114.641 333.633 115.812C332.602 116.969 331.328 117.867 329.812 118.508C328.297 119.148 326.547 119.469 324.562 119.469C322.578 119.469 320.82 119.148 319.289 118.508C317.758 117.867 316.477 116.969 315.445 115.812C314.414 114.641 313.633 113.273 313.102 111.711C312.57 110.133 312.305 108.422 312.305 106.578ZM320.203 106.086V106.578C320.203 107.531 320.273 108.422 320.414 109.25C320.555 110.078 320.789 110.805 321.117 111.43C321.445 112.039 321.891 112.516 322.453 112.859C323.016 113.203 323.719 113.375 324.562 113.375C325.391 113.375 326.078 113.203 326.625 112.859C327.188 112.516 327.633 112.039 327.961 111.43C328.289 110.805 328.523 110.078 328.664 109.25C328.805 108.422 328.875 107.531 328.875 106.578V106.086C328.875 105.164 328.805 104.297 328.664 103.484C328.523 102.656 328.289 101.93 327.961 101.305C327.633 100.664 327.188 100.164 326.625 99.8047C326.062 99.4453 325.359 99.2656 324.516 99.2656C323.688 99.2656 322.992 99.4453 322.43 99.8047C321.883 100.164 321.445 100.664 321.117 101.305C320.789 101.93 320.555 102.656 320.414 103.484C320.273 104.297 320.203 105.164 320.203 106.086ZM348.047 99.0547V119H340.148V93.6406H347.555L348.047 99.0547ZM347.109 105.453L345.258 105.5C345.258 103.562 345.492 101.836 345.961 100.32C346.43 98.7891 347.094 97.4922 347.953 96.4297C348.812 95.3672 349.836 94.5625 351.023 94.0156C352.227 93.4531 353.562 93.1719 355.031 93.1719C356.203 93.1719 357.273 93.3438 358.242 93.6875C359.227 94.0312 360.07 94.5859 360.773 95.3516C361.492 96.1172 362.039 97.1328 362.414 98.3984C362.805 99.6484 363 101.195 363 103.039V119H355.055V103.016C355.055 102 354.914 101.227 354.633 100.695C354.352 100.148 353.945 99.7734 353.414 99.5703C352.883 99.3672 352.234 99.2656 351.469 99.2656C350.656 99.2656 349.969 99.4219 349.406 99.7344C348.844 100.047 348.391 100.484 348.047 101.047C347.719 101.594 347.477 102.242 347.32 102.992C347.18 103.742 347.109 104.562 347.109 105.453ZM380.742 93.6406V99.125H365.461V93.6406H380.742ZM368.672 87.3359H376.57V110.727C376.57 111.398 376.648 111.922 376.805 112.297C376.961 112.656 377.227 112.914 377.602 113.07C377.992 113.211 378.508 113.281 379.148 113.281C379.602 113.281 379.977 113.273 380.273 113.258C380.57 113.227 380.852 113.188 381.117 113.141V118.789C380.445 119.008 379.742 119.172 379.008 119.281C378.273 119.406 377.492 119.469 376.664 119.469C374.977 119.469 373.531 119.203 372.328 118.672C371.141 118.141 370.234 117.305 369.609 116.164C368.984 115.023 368.672 113.539 368.672 111.711V87.3359ZM396.164 119.469C394.102 119.469 392.258 119.148 390.633 118.508C389.008 117.852 387.633 116.953 386.508 115.812C385.398 114.672 384.547 113.359 383.953 111.875C383.375 110.391 383.086 108.82 383.086 107.164V106.273C383.086 104.414 383.344 102.695 383.859 101.117C384.375 99.5234 385.141 98.1328 386.156 96.9453C387.172 95.7578 388.445 94.8359 389.977 94.1797C391.508 93.5078 393.289 93.1719 395.32 93.1719C397.117 93.1719 398.727 93.4609 400.148 94.0391C401.57 94.6172 402.773 95.4453 403.758 96.5234C404.758 97.6016 405.516 98.9062 406.031 100.438C406.562 101.969 406.828 103.688 406.828 105.594V108.805H386.109V103.859H399.117V103.25C399.133 102.406 398.984 101.688 398.672 101.094C398.375 100.5 397.938 100.047 397.359 99.7344C396.781 99.4219 396.078 99.2656 395.25 99.2656C394.391 99.2656 393.68 99.4531 393.117 99.8281C392.57 100.203 392.141 100.719 391.828 101.375C391.531 102.016 391.32 102.758 391.195 103.602C391.07 104.445 391.008 105.336 391.008 106.273V107.164C391.008 108.102 391.133 108.953 391.383 109.719C391.648 110.484 392.023 111.141 392.508 111.688C393.008 112.219 393.602 112.633 394.289 112.93C394.992 113.227 395.789 113.375 396.68 113.375C397.758 113.375 398.82 113.172 399.867 112.766C400.914 112.359 401.812 111.688 402.562 110.75L406.148 115.016C405.633 115.75 404.898 116.461 403.945 117.148C403.008 117.836 401.883 118.398 400.57 118.836C399.258 119.258 397.789 119.469 396.164 119.469ZM417.797 99.0547V119H409.898V93.6406H417.305L417.797 99.0547ZM416.859 105.453L415.008 105.5C415.008 103.562 415.242 101.836 415.711 100.32C416.18 98.7891 416.844 97.4922 417.703 96.4297C418.562 95.3672 419.586 94.5625 420.773 94.0156C421.977 93.4531 423.312 93.1719 424.781 93.1719C425.953 93.1719 427.023 93.3438 427.992 93.6875C428.977 94.0312 429.82 94.5859 430.523 95.3516C431.242 96.1172 431.789 97.1328 432.164 98.3984C432.555 99.6484 432.75 101.195 432.75 103.039V119H424.805V103.016C424.805 102 424.664 101.227 424.383 100.695C424.102 100.148 423.695 99.7734 423.164 99.5703C422.633 99.3672 421.984 99.2656 421.219 99.2656C420.406 99.2656 419.719 99.4219 419.156 99.7344C418.594 100.047 418.141 100.484 417.797 101.047C417.469 101.594 417.227 102.242 417.07 102.992C416.93 103.742 416.859 104.562 416.859 105.453ZM450.492 93.6406V99.125H435.211V93.6406H450.492ZM438.422 87.3359H446.32V110.727C446.32 111.398 446.398 111.922 446.555 112.297C446.711 112.656 446.977 112.914 447.352 113.07C447.742 113.211 448.258 113.281 448.898 113.281C449.352 113.281 449.727 113.273 450.023 113.258C450.32 113.227 450.602 113.188 450.867 113.141V118.789C450.195 119.008 449.492 119.172 448.758 119.281C448.023 119.406 447.242 119.469 446.414 119.469C444.727 119.469 443.281 119.203 442.078 118.672C440.891 118.141 439.984 117.305 439.359 116.164C438.734 115.023 438.422 113.539 438.422 111.711V87.3359ZM466.922 111.875C466.922 111.438 466.773 111.062 466.477 110.75C466.195 110.422 465.695 110.125 464.977 109.859C464.258 109.578 463.25 109.297 461.953 109.016C460.719 108.75 459.555 108.398 458.461 107.961C457.383 107.523 456.438 106.992 455.625 106.367C454.812 105.742 454.172 105 453.703 104.141C453.25 103.281 453.023 102.297 453.023 101.188C453.023 100.109 453.25 99.0938 453.703 98.1406C454.172 97.1719 454.852 96.3203 455.742 95.5859C456.648 94.8359 457.75 94.25 459.047 93.8281C460.344 93.3906 461.82 93.1719 463.477 93.1719C465.758 93.1719 467.727 93.5234 469.383 94.2266C471.039 94.9141 472.312 95.8828 473.203 97.1328C474.109 98.3672 474.562 99.7969 474.562 101.422H466.664C466.664 100.781 466.555 100.234 466.336 99.7812C466.133 99.3281 465.797 98.9844 465.328 98.75C464.859 98.5 464.234 98.375 463.453 98.375C462.906 98.375 462.406 98.4766 461.953 98.6797C461.516 98.8828 461.164 99.1641 460.898 99.5234C460.633 99.8828 460.5 100.305 460.5 100.789C460.5 101.133 460.578 101.445 460.734 101.727C460.906 101.992 461.164 102.242 461.508 102.477C461.852 102.695 462.289 102.898 462.82 103.086C463.352 103.258 463.992 103.414 464.742 103.555C466.445 103.867 468.039 104.312 469.523 104.891C471.008 105.469 472.211 106.289 473.133 107.352C474.07 108.414 474.539 109.844 474.539 111.641C474.539 112.766 474.281 113.805 473.766 114.758C473.25 115.695 472.508 116.523 471.539 117.242C470.57 117.945 469.406 118.492 468.047 118.883C466.688 119.273 465.156 119.469 463.453 119.469C461.031 119.469 458.984 119.039 457.312 118.18C455.641 117.305 454.375 116.211 453.516 114.898C452.672 113.57 452.25 112.227 452.25 110.867H459.609C459.641 111.648 459.828 112.289 460.172 112.789C460.531 113.289 461.008 113.656 461.602 113.891C462.195 114.125 462.883 114.242 463.664 114.242C464.383 114.242 464.977 114.141 465.445 113.938C465.93 113.734 466.297 113.461 466.547 113.117C466.797 112.758 466.922 112.344 466.922 111.875Z" fill="black"/>
<path d="M1131 0H1345C1353.28 0 1360 6.71573 1360 15V148C1360 156.284 1353.28 163 1345 163H1131V0Z" fill="#0F8EEA"/>
<path d="M1270.5 81.5V97.125C1270.5 103.018 1270.5 105.964 1268.67 107.794C1266.84 109.625 1263.89 109.625 1258 109.625H1228.31C1224 109.625 1220.5 106.127 1220.5 101.812M1270.5 81.5C1270.5 87.3926 1270.5 90.3388 1268.67 92.1694C1266.84 94 1263.89 94 1258 94H1228.31C1224 94 1220.5 97.4978 1220.5 101.812M1270.5 81.5V65.875C1270.5 59.9824 1270.5 57.0362 1268.67 55.2056C1266.84 53.375 1263.89 53.375 1258 53.375H1233C1227.11 53.375 1224.16 53.375 1222.33 55.2056C1220.5 57.0362 1220.5 59.9824 1220.5 65.875V101.812" stroke="white" stroke-width="6.25"/>
<path d="M1236.12 69H1254.88" stroke="white" stroke-width="6.25" stroke-linecap="round"/>
<path d="M102.906 45.9219L95.3945 43.2383V40.0859L105.602 44.375V46.6367L102.906 45.9219ZM95.3945 48.1719L102.918 45.4297L105.602 44.7852V47.0352L95.3945 51.3242V48.1719ZM120.543 46.918H116.195V44.1758H120.543C121.215 44.1758 121.762 44.0664 122.184 43.8477C122.605 43.6211 122.914 43.3086 123.109 42.9102C123.305 42.5117 123.402 42.0625 123.402 41.5625C123.402 41.0547 123.305 40.582 123.109 40.1445C122.914 39.707 122.605 39.3555 122.184 39.0898C121.762 38.8242 121.215 38.6914 120.543 38.6914H117.414V53H113.898V35.9375H120.543C121.879 35.9375 123.023 36.1797 123.977 36.6641C124.938 37.1406 125.672 37.8008 126.18 38.6445C126.688 39.4883 126.941 40.4531 126.941 41.5391C126.941 42.6406 126.688 43.5938 126.18 44.3984C125.672 45.2031 124.938 45.8242 123.977 46.2617C123.023 46.6992 121.879 46.918 120.543 46.918ZM132.531 43.0859V53H129.156V40.3203H132.332L132.531 43.0859ZM136.352 40.2383L136.293 43.3672C136.129 43.3438 135.93 43.3242 135.695 43.3086C135.469 43.2852 135.262 43.2734 135.074 43.2734C134.598 43.2734 134.184 43.3359 133.832 43.4609C133.488 43.5781 133.199 43.7539 132.965 43.9883C132.738 44.2227 132.566 44.5078 132.449 44.8438C132.34 45.1797 132.277 45.5625 132.262 45.9922L131.582 45.7812C131.582 44.9609 131.664 44.207 131.828 43.5195C131.992 42.8242 132.23 42.2188 132.543 41.7031C132.863 41.1875 133.254 40.7891 133.715 40.5078C134.176 40.2266 134.703 40.0859 135.297 40.0859C135.484 40.0859 135.676 40.1016 135.871 40.1328C136.066 40.1562 136.227 40.1914 136.352 40.2383ZM137.055 46.7891V46.543C137.055 45.6133 137.188 44.7578 137.453 43.9766C137.719 43.1875 138.105 42.5039 138.613 41.9258C139.121 41.3477 139.746 40.8984 140.488 40.5781C141.23 40.25 142.082 40.0859 143.043 40.0859C144.004 40.0859 144.859 40.25 145.609 40.5781C146.359 40.8984 146.988 41.3477 147.496 41.9258C148.012 42.5039 148.402 43.1875 148.668 43.9766C148.934 44.7578 149.066 45.6133 149.066 46.543V46.7891C149.066 47.7109 148.934 48.5664 148.668 49.3555C148.402 50.1367 148.012 50.8203 147.496 51.4062C146.988 51.9844 146.363 52.4336 145.621 52.7539C144.879 53.0742 144.027 53.2344 143.066 53.2344C142.105 53.2344 141.25 53.0742 140.5 52.7539C139.758 52.4336 139.129 51.9844 138.613 51.4062C138.105 50.8203 137.719 50.1367 137.453 49.3555C137.188 48.5664 137.055 47.7109 137.055 46.7891ZM140.43 46.543V46.7891C140.43 47.3203 140.477 47.8164 140.57 48.2773C140.664 48.7383 140.812 49.1445 141.016 49.4961C141.227 49.8398 141.5 50.1094 141.836 50.3047C142.172 50.5 142.582 50.5977 143.066 50.5977C143.535 50.5977 143.938 50.5 144.273 50.3047C144.609 50.1094 144.879 49.8398 145.082 49.4961C145.285 49.1445 145.434 48.7383 145.527 48.2773C145.629 47.8164 145.68 47.3203 145.68 46.7891V46.543C145.68 46.0273 145.629 45.543 145.527 45.0898C145.434 44.6289 145.281 44.2227 145.07 43.8711C144.867 43.5117 144.598 43.2305 144.262 43.0273C143.926 42.8242 143.52 42.7227 143.043 42.7227C142.566 42.7227 142.16 42.8242 141.824 43.0273C141.496 43.2305 141.227 43.5117 141.016 43.8711C140.812 44.2227 140.664 44.6289 140.57 45.0898C140.477 45.543 140.43 46.0273 140.43 46.543ZM151.328 40.3203H154.715V53.7617C154.715 54.6992 154.543 55.4922 154.199 56.1406C153.855 56.7891 153.359 57.2812 152.711 57.6172C152.062 57.9531 151.277 58.1211 150.355 58.1211C150.066 58.1211 149.785 58.1055 149.512 58.0742C149.23 58.043 148.941 57.9922 148.645 57.9219L148.656 55.332C148.844 55.3633 149.027 55.3867 149.207 55.4023C149.379 55.4258 149.555 55.4375 149.734 55.4375C150.086 55.4375 150.379 55.3789 150.613 55.2617C150.848 55.1445 151.023 54.9609 151.141 54.7109C151.266 54.4688 151.328 54.1523 151.328 53.7617V40.3203ZM151.059 37.0156C151.059 36.5234 151.23 36.1172 151.574 35.7969C151.926 35.4766 152.387 35.3164 152.957 35.3164C153.535 35.3164 153.996 35.4766 154.34 35.7969C154.684 36.1172 154.855 36.5234 154.855 37.0156C154.855 37.5078 154.684 37.9141 154.34 38.2344C153.996 38.5547 153.535 38.7148 152.957 38.7148C152.387 38.7148 151.926 38.5547 151.574 38.2344C151.23 37.9141 151.059 37.5078 151.059 37.0156ZM163.234 53.2344C162.25 53.2344 161.367 53.0781 160.586 52.7656C159.805 52.4453 159.141 52.0039 158.594 51.4414C158.055 50.8789 157.641 50.2266 157.352 49.4844C157.062 48.7344 156.918 47.9375 156.918 47.0938V46.625C156.918 45.6641 157.055 44.7852 157.328 43.9883C157.602 43.1914 157.992 42.5 158.5 41.9141C159.016 41.3281 159.641 40.8789 160.375 40.5664C161.109 40.2461 161.938 40.0859 162.859 40.0859C163.758 40.0859 164.555 40.2344 165.25 40.5312C165.945 40.8281 166.527 41.25 166.996 41.7969C167.473 42.3438 167.832 43 168.074 43.7656C168.316 44.5234 168.438 45.3672 168.438 46.2969V47.7031H158.359V45.4531H165.121V45.1953C165.121 44.7266 165.035 44.3086 164.863 43.9414C164.699 43.5664 164.449 43.2695 164.113 43.0508C163.777 42.832 163.348 42.7227 162.824 42.7227C162.379 42.7227 161.996 42.8203 161.676 43.0156C161.355 43.2109 161.094 43.4844 160.891 43.8359C160.695 44.1875 160.547 44.6016 160.445 45.0781C160.352 45.5469 160.305 46.0625 160.305 46.625V47.0938C160.305 47.6016 160.375 48.0703 160.516 48.5C160.664 48.9297 160.871 49.3008 161.137 49.6133C161.41 49.9258 161.738 50.168 162.121 50.3398C162.512 50.5117 162.953 50.5977 163.445 50.5977C164.055 50.5977 164.621 50.4805 165.145 50.2461C165.676 50.0039 166.133 49.6406 166.516 49.1562L168.156 50.9375C167.891 51.3203 167.527 51.6875 167.066 52.0391C166.613 52.3906 166.066 52.6797 165.426 52.9062C164.785 53.125 164.055 53.2344 163.234 53.2344ZM175.598 50.5977C176.012 50.5977 176.379 50.5195 176.699 50.3633C177.02 50.1992 177.27 49.9727 177.449 49.6836C177.637 49.3867 177.734 49.0391 177.742 48.6406H180.918C180.91 49.5312 180.672 50.3242 180.203 51.0195C179.734 51.707 179.105 52.25 178.316 52.6484C177.527 53.0391 176.645 53.2344 175.668 53.2344C174.684 53.2344 173.824 53.0703 173.09 52.7422C172.363 52.4141 171.758 51.9609 171.273 51.3828C170.789 50.7969 170.426 50.1172 170.184 49.3438C169.941 48.5625 169.82 47.7266 169.82 46.8359V46.4961C169.82 45.5977 169.941 44.7617 170.184 43.9883C170.426 43.207 170.789 42.5273 171.273 41.9492C171.758 41.3633 172.363 40.9062 173.09 40.5781C173.816 40.25 174.668 40.0859 175.645 40.0859C176.684 40.0859 177.594 40.2852 178.375 40.6836C179.164 41.082 179.781 41.6523 180.227 42.3945C180.68 43.1289 180.91 44 180.918 45.0078H177.742C177.734 44.5859 177.645 44.2031 177.473 43.8594C177.309 43.5156 177.066 43.2422 176.746 43.0391C176.434 42.8281 176.047 42.7227 175.586 42.7227C175.094 42.7227 174.691 42.8281 174.379 43.0391C174.066 43.2422 173.824 43.5234 173.652 43.8828C173.48 44.2344 173.359 44.6367 173.289 45.0898C173.227 45.5352 173.195 46.0039 173.195 46.4961V46.8359C173.195 47.3281 173.227 47.8008 173.289 48.2539C173.352 48.707 173.469 49.1094 173.641 49.4609C173.82 49.8125 174.066 50.0898 174.379 50.293C174.691 50.4961 175.098 50.5977 175.598 50.5977ZM189.086 40.3203V42.7109H181.703V40.3203H189.086ZM183.531 37.1914H186.906V49.1797C186.906 49.5469 186.953 49.8281 187.047 50.0234C187.148 50.2188 187.297 50.3555 187.492 50.4336C187.688 50.5039 187.934 50.5391 188.23 50.5391C188.441 50.5391 188.629 50.5312 188.793 50.5156C188.965 50.4922 189.109 50.4688 189.227 50.4453L189.238 52.9297C188.949 53.0234 188.637 53.0977 188.301 53.1523C187.965 53.207 187.594 53.2344 187.188 53.2344C186.445 53.2344 185.797 53.1133 185.242 52.8711C184.695 52.6211 184.273 52.2227 183.977 51.6758C183.68 51.1289 183.531 50.4102 183.531 49.5195V37.1914ZM202.598 42.8867V45.6289H193.691V42.8867H202.598ZM194.734 35.9375V53H191.219V35.9375H194.734ZM205.105 35.9375V53H201.602V35.9375H205.105ZM215.453 49.9648V40.3203H218.828V53H215.652L215.453 49.9648ZM215.828 47.3633L216.824 47.3398C216.824 48.1836 216.727 48.9688 216.531 49.6953C216.336 50.4141 216.043 51.0391 215.652 51.5703C215.262 52.0938 214.77 52.5039 214.176 52.8008C213.582 53.0898 212.883 53.2344 212.078 53.2344C211.461 53.2344 210.891 53.1484 210.367 52.9766C209.852 52.7969 209.406 52.5195 209.031 52.1445C208.664 51.7617 208.375 51.2734 208.164 50.6797C207.961 50.0781 207.859 49.3555 207.859 48.5117V40.3203H211.234V48.5352C211.234 48.9102 211.277 49.2266 211.363 49.4844C211.457 49.7422 211.586 49.9531 211.75 50.1172C211.914 50.2812 212.105 50.3984 212.324 50.4688C212.551 50.5391 212.801 50.5742 213.074 50.5742C213.77 50.5742 214.316 50.4336 214.715 50.1523C215.121 49.8711 215.406 49.4883 215.57 49.0039C215.742 48.5117 215.828 47.9648 215.828 47.3633ZM221.406 35H224.781V50.0938L224.441 53H221.406V35ZM232.809 46.5312V46.7773C232.809 47.7227 232.707 48.5898 232.504 49.3789C232.309 50.168 232.004 50.8516 231.59 51.4297C231.176 52 230.66 52.4453 230.043 52.7656C229.434 53.0781 228.715 53.2344 227.887 53.2344C227.113 53.2344 226.441 53.0781 225.871 52.7656C225.309 52.4531 224.836 52.0117 224.453 51.4414C224.07 50.8711 223.762 50.2031 223.527 49.4375C223.293 48.6719 223.117 47.8359 223 46.9297V46.3906C223.117 45.4844 223.293 44.6484 223.527 43.8828C223.762 43.1172 224.07 42.4492 224.453 41.8789C224.836 41.3086 225.309 40.8672 225.871 40.5547C226.434 40.2422 227.098 40.0859 227.863 40.0859C228.699 40.0859 229.426 40.2461 230.043 40.5664C230.668 40.8789 231.184 41.3242 231.59 41.9023C232.004 42.4727 232.309 43.1523 232.504 43.9414C232.707 44.7227 232.809 45.5859 232.809 46.5312ZM229.434 46.7773V46.5312C229.434 46.0156 229.395 45.5312 229.316 45.0781C229.246 44.6172 229.121 44.2148 228.941 43.8711C228.762 43.5195 228.516 43.2422 228.203 43.0391C227.898 42.8359 227.504 42.7344 227.02 42.7344C226.559 42.7344 226.168 42.8125 225.848 42.9688C225.527 43.125 225.262 43.3438 225.051 43.625C224.848 43.9062 224.695 44.2422 224.594 44.6328C224.492 45.0156 224.43 45.4375 224.406 45.8984V47.4336C224.43 48.0508 224.531 48.5977 224.711 49.0742C224.898 49.543 225.18 49.9141 225.555 50.1875C225.938 50.4531 226.434 50.5859 227.043 50.5859C227.52 50.5859 227.914 50.4922 228.227 50.3047C228.539 50.1172 228.781 49.8516 228.953 49.5078C229.133 49.1641 229.258 48.7617 229.328 48.3008C229.398 47.832 229.434 47.3242 229.434 46.7773Z" fill="#888888"/>
</svg>
