<svg width="1363" height="163" viewBox="0 0 1363 163" fill="none" xmlns="http://www.w3.org/2000/svg">
<g clip-path="url(#clip0_9_21)">
<path d="M0 15C0 6.71573 6.71573 0 15 0H37V163H15C6.71573 163 0 156.284 0 148V15Z" fill="#0F8EEA"/>
<path d="M1134 0H37V163H1134V0Z" fill="#F0F0F0"/>
<path d="M109.219 107.422H100.734V101.07H109.219C110.375 101.07 111.312 100.875 112.031 100.484C112.75 100.094 113.273 99.5547 113.602 98.8672C113.945 98.1641 114.117 97.375 114.117 96.5C114.117 95.5625 113.945 94.6953 113.602 93.8984C113.273 93.1016 112.75 92.4609 112.031 91.9766C111.312 91.4766 110.375 91.2266 109.219 91.2266H103.828V119H95.6016V84.875H109.219C111.953 84.875 114.305 85.375 116.273 86.375C118.258 87.375 119.781 88.75 120.844 90.5C121.906 92.2344 122.438 94.2188 122.438 96.4531C122.438 98.6562 121.906 100.578 120.844 102.219C119.781 103.859 118.258 105.141 116.273 106.062C114.305 106.969 111.953 107.422 109.219 107.422ZM138.445 119.469C136.383 119.469 134.539 119.148 132.914 118.508C131.289 117.852 129.914 116.953 128.789 115.812C127.68 114.672 126.828 113.359 126.234 111.875C125.656 110.391 125.367 108.82 125.367 107.164V106.273C125.367 104.414 125.625 102.695 126.141 101.117C126.656 99.5234 127.422 98.1328 128.438 96.9453C129.453 95.7578 130.727 94.8359 132.258 94.1797C133.789 93.5078 135.57 93.1719 137.602 93.1719C139.398 93.1719 141.008 93.4609 142.43 94.0391C143.852 94.6172 145.055 95.4453 146.039 96.5234C147.039 97.6016 147.797 98.9062 148.312 100.438C148.844 101.969 149.109 103.688 149.109 105.594V108.805H128.391V103.859H141.398V103.25C141.414 102.406 141.266 101.688 140.953 101.094C140.656 100.5 140.219 100.047 139.641 99.7344C139.062 99.4219 138.359 99.2656 137.531 99.2656C136.672 99.2656 135.961 99.4531 135.398 99.8281C134.852 100.203 134.422 100.719 134.109 101.375C133.812 102.016 133.602 102.758 133.477 103.602C133.352 104.445 133.289 105.336 133.289 106.273V107.164C133.289 108.102 133.414 108.953 133.664 109.719C133.93 110.484 134.305 111.141 134.789 111.688C135.289 112.219 135.883 112.633 136.57 112.93C137.273 113.227 138.07 113.375 138.961 113.375C140.039 113.375 141.102 113.172 142.148 112.766C143.195 112.359 144.094 111.688 144.844 110.75L148.43 115.016C147.914 115.75 147.18 116.461 146.227 117.148C145.289 117.836 144.164 118.398 142.852 118.836C141.539 119.258 140.07 119.469 138.445 119.469ZM160.289 99.9219V119H152.391V93.6406H159.773L160.289 99.9219ZM167.789 93.4531L167.648 100.789C167.336 100.758 166.914 100.719 166.383 100.672C165.852 100.625 165.406 100.602 165.047 100.602C164.125 100.602 163.328 100.711 162.656 100.93C162 101.133 161.453 101.445 161.016 101.867C160.594 102.273 160.281 102.789 160.078 103.414C159.891 104.039 159.805 104.766 159.82 105.594L158.391 104.656C158.391 102.953 158.555 101.406 158.883 100.016C159.227 98.6094 159.711 97.3984 160.336 96.3828C160.961 95.3516 161.719 94.5625 162.609 94.0156C163.5 93.4531 164.5 93.1719 165.609 93.1719C166 93.1719 166.383 93.1953 166.758 93.2422C167.148 93.2891 167.492 93.3594 167.789 93.4531ZM180.703 119H172.758V91.5781C172.758 89.6094 173.156 87.9531 173.953 86.6094C174.75 85.2656 175.875 84.25 177.328 83.5625C178.781 82.8594 180.5 82.5078 182.484 82.5078C183.172 82.5078 183.82 82.5547 184.43 82.6484C185.039 82.7422 185.633 82.8594 186.211 83L186.234 88.8125C185.953 88.7344 185.664 88.6797 185.367 88.6484C185.07 88.6172 184.703 88.6016 184.266 88.6016C183.5 88.6016 182.852 88.7188 182.32 88.9531C181.789 89.1719 181.383 89.5078 181.102 89.9609C180.836 90.3984 180.703 90.9375 180.703 91.5781V119ZM185.625 93.6406V99.125H169.102V93.6406H185.625ZM187.477 106.578V106.086C187.477 104.227 187.742 102.516 188.273 100.953C188.805 99.375 189.586 98.0078 190.617 96.8516C191.648 95.6953 192.922 94.7969 194.438 94.1562C195.953 93.5 197.703 93.1719 199.688 93.1719C201.688 93.1719 203.445 93.5 204.961 94.1562C206.492 94.7969 207.773 95.6953 208.805 96.8516C209.836 98.0078 210.617 99.375 211.148 100.953C211.68 102.516 211.945 104.227 211.945 106.086V106.578C211.945 108.422 211.68 110.133 211.148 111.711C210.617 113.273 209.836 114.641 208.805 115.812C207.773 116.969 206.5 117.867 204.984 118.508C203.469 119.148 201.719 119.469 199.734 119.469C197.75 119.469 195.992 119.148 194.461 118.508C192.93 117.867 191.648 116.969 190.617 115.812C189.586 114.641 188.805 113.273 188.273 111.711C187.742 110.133 187.477 108.422 187.477 106.578ZM195.375 106.086V106.578C195.375 107.531 195.445 108.422 195.586 109.25C195.727 110.078 195.961 110.805 196.289 111.43C196.617 112.039 197.062 112.516 197.625 112.859C198.188 113.203 198.891 113.375 199.734 113.375C200.562 113.375 201.25 113.203 201.797 112.859C202.359 112.516 202.805 112.039 203.133 111.43C203.461 110.805 203.695 110.078 203.836 109.25C203.977 108.422 204.047 107.531 204.047 106.578V106.086C204.047 105.164 203.977 104.297 203.836 103.484C203.695 102.656 203.461 101.93 203.133 101.305C202.805 100.664 202.359 100.164 201.797 99.8047C201.234 99.4453 200.531 99.2656 199.688 99.2656C198.859 99.2656 198.164 99.4453 197.602 99.8047C197.055 100.164 196.617 100.664 196.289 101.305C195.961 101.93 195.727 102.656 195.586 103.484C195.445 104.297 195.375 105.164 195.375 106.086ZM223.43 99.9219V119H215.531V93.6406H222.914L223.43 99.9219ZM230.93 93.4531L230.789 100.789C230.477 100.758 230.055 100.719 229.523 100.672C228.992 100.625 228.547 100.602 228.188 100.602C227.266 100.602 226.469 100.711 225.797 100.93C225.141 101.133 224.594 101.445 224.156 101.867C223.734 102.273 223.422 102.789 223.219 103.414C223.031 104.039 222.945 104.766 222.961 105.594L221.531 104.656C221.531 102.953 221.695 101.406 222.023 100.016C222.367 98.6094 222.852 97.3984 223.477 96.3828C224.102 95.3516 224.859 94.5625 225.75 94.0156C226.641 93.4531 227.641 93.1719 228.75 93.1719C229.141 93.1719 229.523 93.1953 229.898 93.2422C230.289 93.2891 230.633 93.3594 230.93 93.4531ZM241.617 99.0078V119H233.719V93.6406H241.125L241.617 99.0078ZM240.656 105.453L238.852 105.5C238.852 103.719 239.062 102.078 239.484 100.578C239.906 99.0781 240.531 97.7734 241.359 96.6641C242.188 95.5547 243.203 94.6953 244.406 94.0859C245.625 93.4766 247.031 93.1719 248.625 93.1719C249.734 93.1719 250.742 93.3438 251.648 93.6875C252.555 94.0156 253.336 94.5391 253.992 95.2578C254.648 95.9609 255.148 96.8828 255.492 98.0234C255.852 99.1484 256.031 100.5 256.031 102.078V119H248.133V103.086C248.133 102.008 248.008 101.195 247.758 100.648C247.523 100.102 247.18 99.7344 246.727 99.5469C246.273 99.3594 245.719 99.2656 245.062 99.2656C244.375 99.2656 243.758 99.4219 243.211 99.7344C242.664 100.047 242.195 100.484 241.805 101.047C241.43 101.594 241.141 102.242 240.938 102.992C240.75 103.742 240.656 104.562 240.656 105.453ZM255.141 105.453L252.938 105.5C252.938 103.719 253.133 102.078 253.523 100.578C253.93 99.0781 254.531 97.7734 255.328 96.6641C256.141 95.5547 257.148 94.6953 258.352 94.0859C259.555 93.4766 260.953 93.1719 262.547 93.1719C263.703 93.1719 264.766 93.3438 265.734 93.6875C266.703 94.0312 267.539 94.5859 268.242 95.3516C268.945 96.1172 269.492 97.1328 269.883 98.3984C270.273 99.6484 270.469 101.195 270.469 103.039V119H262.547V103.039C262.547 101.992 262.422 101.203 262.172 100.672C261.938 100.125 261.594 99.7578 261.141 99.5703C260.688 99.3672 260.148 99.2656 259.523 99.2656C258.773 99.2656 258.125 99.4219 257.578 99.7344C257.031 100.047 256.57 100.484 256.195 101.047C255.836 101.594 255.57 102.242 255.398 102.992C255.227 103.742 255.141 104.562 255.141 105.453ZM288.164 112.625V102.172C288.164 101.453 288.062 100.836 287.859 100.32C287.656 99.8047 287.336 99.4062 286.898 99.125C286.461 98.8281 285.875 98.6797 285.141 98.6797C284.547 98.6797 284.039 98.7812 283.617 98.9844C283.195 99.1875 282.875 99.4922 282.656 99.8984C282.438 100.305 282.328 100.82 282.328 101.445H274.43C274.43 100.273 274.688 99.1875 275.203 98.1875C275.734 97.1719 276.484 96.2891 277.453 95.5391C278.438 94.7891 279.609 94.2109 280.969 93.8047C282.344 93.3828 283.875 93.1719 285.562 93.1719C287.578 93.1719 289.375 93.5078 290.953 94.1797C292.547 94.8516 293.805 95.8594 294.727 97.2031C295.648 98.5312 296.109 100.203 296.109 102.219V112.602C296.109 114.258 296.203 115.516 296.391 116.375C296.578 117.219 296.844 117.961 297.188 118.602V119H289.266C288.891 118.219 288.609 117.266 288.422 116.141C288.25 115 288.164 113.828 288.164 112.625ZM289.125 103.508L289.172 107.727H285.68C284.945 107.727 284.32 107.828 283.805 108.031C283.305 108.234 282.898 108.516 282.586 108.875C282.289 109.219 282.07 109.609 281.93 110.047C281.805 110.484 281.742 110.945 281.742 111.43C281.742 111.898 281.852 112.32 282.07 112.695C282.305 113.055 282.617 113.336 283.008 113.539C283.398 113.742 283.836 113.844 284.32 113.844C285.195 113.844 285.938 113.68 286.547 113.352C287.172 113.008 287.648 112.594 287.977 112.109C288.305 111.625 288.469 111.172 288.469 110.75L290.203 113.984C289.891 114.609 289.531 115.242 289.125 115.883C288.734 116.523 288.242 117.117 287.648 117.664C287.07 118.195 286.359 118.633 285.516 118.977C284.672 119.305 283.648 119.469 282.445 119.469C280.883 119.469 279.445 119.148 278.133 118.508C276.836 117.867 275.797 116.977 275.016 115.836C274.234 114.68 273.844 113.352 273.844 111.852C273.844 110.539 274.078 109.367 274.547 108.336C275.031 107.305 275.758 106.43 276.727 105.711C277.695 104.992 278.93 104.445 280.43 104.07C281.93 103.695 283.695 103.508 285.727 103.508H289.125ZM308.25 99.0547V119H300.352V93.6406H307.758L308.25 99.0547ZM307.312 105.453L305.461 105.5C305.461 103.562 305.695 101.836 306.164 100.32C306.633 98.7891 307.297 97.4922 308.156 96.4297C309.016 95.3672 310.039 94.5625 311.227 94.0156C312.43 93.4531 313.766 93.1719 315.234 93.1719C316.406 93.1719 317.477 93.3438 318.445 93.6875C319.43 94.0312 320.273 94.5859 320.977 95.3516C321.695 96.1172 322.242 97.1328 322.617 98.3984C323.008 99.6484 323.203 101.195 323.203 103.039V119H315.258V103.016C315.258 102 315.117 101.227 314.836 100.695C314.555 100.148 314.148 99.7734 313.617 99.5703C313.086 99.3672 312.438 99.2656 311.672 99.2656C310.859 99.2656 310.172 99.4219 309.609 99.7344C309.047 100.047 308.594 100.484 308.25 101.047C307.922 101.594 307.68 102.242 307.523 102.992C307.383 103.742 307.312 104.562 307.312 105.453ZM338.297 113.375C339.031 113.375 339.656 113.242 340.172 112.977C340.703 112.695 341.102 112.305 341.367 111.805C341.648 111.289 341.781 110.672 341.766 109.953H349.195C349.211 111.859 348.742 113.531 347.789 114.969C346.852 116.391 345.57 117.5 343.945 118.297C342.336 119.078 340.516 119.469 338.484 119.469C336.5 119.469 334.766 119.148 333.281 118.508C331.797 117.852 330.555 116.945 329.555 115.789C328.57 114.617 327.828 113.25 327.328 111.688C326.844 110.125 326.602 108.43 326.602 106.602V106.062C326.602 104.234 326.844 102.539 327.328 100.977C327.828 99.3984 328.57 98.0312 329.555 96.875C330.555 95.7031 331.789 94.7969 333.258 94.1562C334.742 93.5 336.469 93.1719 338.438 93.1719C340.547 93.1719 342.406 93.5703 344.016 94.3672C345.641 95.1641 346.914 96.3203 347.836 97.8359C348.758 99.3516 349.211 101.188 349.195 103.344H341.766C341.781 102.578 341.664 101.891 341.414 101.281C341.164 100.672 340.773 100.188 340.242 99.8281C339.727 99.4531 339.062 99.2656 338.25 99.2656C337.438 99.2656 336.781 99.4453 336.281 99.8047C335.781 100.164 335.398 100.664 335.133 101.305C334.883 101.93 334.711 102.648 334.617 103.461C334.539 104.273 334.5 105.141 334.5 106.062V106.602C334.5 107.539 334.539 108.422 334.617 109.25C334.711 110.062 334.891 110.781 335.156 111.406C335.422 112.016 335.805 112.5 336.305 112.859C336.805 113.203 337.469 113.375 338.297 113.375ZM364.852 119.469C362.789 119.469 360.945 119.148 359.32 118.508C357.695 117.852 356.32 116.953 355.195 115.812C354.086 114.672 353.234 113.359 352.641 111.875C352.062 110.391 351.773 108.82 351.773 107.164V106.273C351.773 104.414 352.031 102.695 352.547 101.117C353.062 99.5234 353.828 98.1328 354.844 96.9453C355.859 95.7578 357.133 94.8359 358.664 94.1797C360.195 93.5078 361.977 93.1719 364.008 93.1719C365.805 93.1719 367.414 93.4609 368.836 94.0391C370.258 94.6172 371.461 95.4453 372.445 96.5234C373.445 97.6016 374.203 98.9062 374.719 100.438C375.25 101.969 375.516 103.688 375.516 105.594V108.805H354.797V103.859H367.805V103.25C367.82 102.406 367.672 101.688 367.359 101.094C367.062 100.5 366.625 100.047 366.047 99.7344C365.469 99.4219 364.766 99.2656 363.938 99.2656C363.078 99.2656 362.367 99.4531 361.805 99.8281C361.258 100.203 360.828 100.719 360.516 101.375C360.219 102.016 360.008 102.758 359.883 103.602C359.758 104.445 359.695 105.336 359.695 106.273V107.164C359.695 108.102 359.82 108.953 360.07 109.719C360.336 110.484 360.711 111.141 361.195 111.688C361.695 112.219 362.289 112.633 362.977 112.93C363.68 113.227 364.477 113.375 365.367 113.375C366.445 113.375 367.508 113.172 368.555 112.766C369.602 112.359 370.5 111.688 371.25 110.75L374.836 115.016C374.32 115.75 373.586 116.461 372.633 117.148C371.695 117.836 370.57 118.398 369.258 118.836C367.945 119.258 366.477 119.469 364.852 119.469Z" fill="black"/>
<path d="M1134 0H1348C1356.28 0 1363 6.71573 1363 15V148C1363 156.284 1356.28 163 1348 163H1134V0Z" fill="#0F8EEA"/>
<path d="M1266.42 70.75L1255.51 87.1123C1253.98 89.4016 1250.55 89.1881 1249.32 86.7272L1247.68 83.4395C1246.45 80.9786 1243.02 80.7651 1241.49 83.0544L1230.58 99.4167" stroke="white" stroke-width="7.16667" stroke-linecap="round" stroke-linejoin="round"/>
<path d="M1273.58 49.25H1223.42C1219.46 49.25 1216.25 52.4586 1216.25 56.4167V106.583C1216.25 110.541 1219.46 113.75 1223.42 113.75H1273.58C1277.54 113.75 1280.75 110.541 1280.75 106.583V56.4167C1280.75 52.4586 1277.54 49.25 1273.58 49.25Z" stroke="white" stroke-width="7.16667"/>
<path d="M96.9062 49.9219L89.3945 47.2383V44.0859L99.6016 48.375V50.6367L96.9062 49.9219ZM89.3945 52.1719L96.918 49.4297L99.6016 48.7852V51.0352L89.3945 55.3242V52.1719ZM114.543 50.918H110.195V48.1758H114.543C115.215 48.1758 115.762 48.0664 116.184 47.8477C116.605 47.6211 116.914 47.3086 117.109 46.9102C117.305 46.5117 117.402 46.0625 117.402 45.5625C117.402 45.0547 117.305 44.582 117.109 44.1445C116.914 43.707 116.605 43.3555 116.184 43.0898C115.762 42.8242 115.215 42.6914 114.543 42.6914H111.414V57H107.898V39.9375H114.543C115.879 39.9375 117.023 40.1797 117.977 40.6641C118.938 41.1406 119.672 41.8008 120.18 42.6445C120.688 43.4883 120.941 44.4531 120.941 45.5391C120.941 46.6406 120.688 47.5938 120.18 48.3984C119.672 49.2031 118.938 49.8242 117.977 50.2617C117.023 50.6992 115.879 50.918 114.543 50.918ZM126.531 47.0859V57H123.156V44.3203H126.332L126.531 47.0859ZM130.352 44.2383L130.293 47.3672C130.129 47.3438 129.93 47.3242 129.695 47.3086C129.469 47.2852 129.262 47.2734 129.074 47.2734C128.598 47.2734 128.184 47.3359 127.832 47.4609C127.488 47.5781 127.199 47.7539 126.965 47.9883C126.738 48.2227 126.566 48.5078 126.449 48.8438C126.34 49.1797 126.277 49.5625 126.262 49.9922L125.582 49.7812C125.582 48.9609 125.664 48.207 125.828 47.5195C125.992 46.8242 126.23 46.2188 126.543 45.7031C126.863 45.1875 127.254 44.7891 127.715 44.5078C128.176 44.2266 128.703 44.0859 129.297 44.0859C129.484 44.0859 129.676 44.1016 129.871 44.1328C130.066 44.1562 130.227 44.1914 130.352 44.2383ZM131.055 50.7891V50.543C131.055 49.6133 131.188 48.7578 131.453 47.9766C131.719 47.1875 132.105 46.5039 132.613 45.9258C133.121 45.3477 133.746 44.8984 134.488 44.5781C135.23 44.25 136.082 44.0859 137.043 44.0859C138.004 44.0859 138.859 44.25 139.609 44.5781C140.359 44.8984 140.988 45.3477 141.496 45.9258C142.012 46.5039 142.402 47.1875 142.668 47.9766C142.934 48.7578 143.066 49.6133 143.066 50.543V50.7891C143.066 51.7109 142.934 52.5664 142.668 53.3555C142.402 54.1367 142.012 54.8203 141.496 55.4062C140.988 55.9844 140.363 56.4336 139.621 56.7539C138.879 57.0742 138.027 57.2344 137.066 57.2344C136.105 57.2344 135.25 57.0742 134.5 56.7539C133.758 56.4336 133.129 55.9844 132.613 55.4062C132.105 54.8203 131.719 54.1367 131.453 53.3555C131.188 52.5664 131.055 51.7109 131.055 50.7891ZM134.43 50.543V50.7891C134.43 51.3203 134.477 51.8164 134.57 52.2773C134.664 52.7383 134.812 53.1445 135.016 53.4961C135.227 53.8398 135.5 54.1094 135.836 54.3047C136.172 54.5 136.582 54.5977 137.066 54.5977C137.535 54.5977 137.938 54.5 138.273 54.3047C138.609 54.1094 138.879 53.8398 139.082 53.4961C139.285 53.1445 139.434 52.7383 139.527 52.2773C139.629 51.8164 139.68 51.3203 139.68 50.7891V50.543C139.68 50.0273 139.629 49.543 139.527 49.0898C139.434 48.6289 139.281 48.2227 139.07 47.8711C138.867 47.5117 138.598 47.2305 138.262 47.0273C137.926 46.8242 137.52 46.7227 137.043 46.7227C136.566 46.7227 136.16 46.8242 135.824 47.0273C135.496 47.2305 135.227 47.5117 135.016 47.8711C134.812 48.2227 134.664 48.6289 134.57 49.0898C134.477 49.543 134.43 50.0273 134.43 50.543ZM145.328 44.3203H148.715V57.7617C148.715 58.6992 148.543 59.4922 148.199 60.1406C147.855 60.7891 147.359 61.2812 146.711 61.6172C146.062 61.9531 145.277 62.1211 144.355 62.1211C144.066 62.1211 143.785 62.1055 143.512 62.0742C143.23 62.043 142.941 61.9922 142.645 61.9219L142.656 59.332C142.844 59.3633 143.027 59.3867 143.207 59.4023C143.379 59.4258 143.555 59.4375 143.734 59.4375C144.086 59.4375 144.379 59.3789 144.613 59.2617C144.848 59.1445 145.023 58.9609 145.141 58.7109C145.266 58.4688 145.328 58.1523 145.328 57.7617V44.3203ZM145.059 41.0156C145.059 40.5234 145.23 40.1172 145.574 39.7969C145.926 39.4766 146.387 39.3164 146.957 39.3164C147.535 39.3164 147.996 39.4766 148.34 39.7969C148.684 40.1172 148.855 40.5234 148.855 41.0156C148.855 41.5078 148.684 41.9141 148.34 42.2344C147.996 42.5547 147.535 42.7148 146.957 42.7148C146.387 42.7148 145.926 42.5547 145.574 42.2344C145.23 41.9141 145.059 41.5078 145.059 41.0156ZM157.234 57.2344C156.25 57.2344 155.367 57.0781 154.586 56.7656C153.805 56.4453 153.141 56.0039 152.594 55.4414C152.055 54.8789 151.641 54.2266 151.352 53.4844C151.062 52.7344 150.918 51.9375 150.918 51.0938V50.625C150.918 49.6641 151.055 48.7852 151.328 47.9883C151.602 47.1914 151.992 46.5 152.5 45.9141C153.016 45.3281 153.641 44.8789 154.375 44.5664C155.109 44.2461 155.938 44.0859 156.859 44.0859C157.758 44.0859 158.555 44.2344 159.25 44.5312C159.945 44.8281 160.527 45.25 160.996 45.7969C161.473 46.3438 161.832 47 162.074 47.7656C162.316 48.5234 162.438 49.3672 162.438 50.2969V51.7031H152.359V49.4531H159.121V49.1953C159.121 48.7266 159.035 48.3086 158.863 47.9414C158.699 47.5664 158.449 47.2695 158.113 47.0508C157.777 46.832 157.348 46.7227 156.824 46.7227C156.379 46.7227 155.996 46.8203 155.676 47.0156C155.355 47.2109 155.094 47.4844 154.891 47.8359C154.695 48.1875 154.547 48.6016 154.445 49.0781C154.352 49.5469 154.305 50.0625 154.305 50.625V51.0938C154.305 51.6016 154.375 52.0703 154.516 52.5C154.664 52.9297 154.871 53.3008 155.137 53.6133C155.41 53.9258 155.738 54.168 156.121 54.3398C156.512 54.5117 156.953 54.5977 157.445 54.5977C158.055 54.5977 158.621 54.4805 159.145 54.2461C159.676 54.0039 160.133 53.6406 160.516 53.1562L162.156 54.9375C161.891 55.3203 161.527 55.6875 161.066 56.0391C160.613 56.3906 160.066 56.6797 159.426 56.9062C158.785 57.125 158.055 57.2344 157.234 57.2344ZM169.598 54.5977C170.012 54.5977 170.379 54.5195 170.699 54.3633C171.02 54.1992 171.27 53.9727 171.449 53.6836C171.637 53.3867 171.734 53.0391 171.742 52.6406H174.918C174.91 53.5312 174.672 54.3242 174.203 55.0195C173.734 55.707 173.105 56.25 172.316 56.6484C171.527 57.0391 170.645 57.2344 169.668 57.2344C168.684 57.2344 167.824 57.0703 167.09 56.7422C166.363 56.4141 165.758 55.9609 165.273 55.3828C164.789 54.7969 164.426 54.1172 164.184 53.3438C163.941 52.5625 163.82 51.7266 163.82 50.8359V50.4961C163.82 49.5977 163.941 48.7617 164.184 47.9883C164.426 47.207 164.789 46.5273 165.273 45.9492C165.758 45.3633 166.363 44.9062 167.09 44.5781C167.816 44.25 168.668 44.0859 169.645 44.0859C170.684 44.0859 171.594 44.2852 172.375 44.6836C173.164 45.082 173.781 45.6523 174.227 46.3945C174.68 47.1289 174.91 48 174.918 49.0078H171.742C171.734 48.5859 171.645 48.2031 171.473 47.8594C171.309 47.5156 171.066 47.2422 170.746 47.0391C170.434 46.8281 170.047 46.7227 169.586 46.7227C169.094 46.7227 168.691 46.8281 168.379 47.0391C168.066 47.2422 167.824 47.5234 167.652 47.8828C167.48 48.2344 167.359 48.6367 167.289 49.0898C167.227 49.5352 167.195 50.0039 167.195 50.4961V50.8359C167.195 51.3281 167.227 51.8008 167.289 52.2539C167.352 52.707 167.469 53.1094 167.641 53.4609C167.82 53.8125 168.066 54.0898 168.379 54.293C168.691 54.4961 169.098 54.5977 169.598 54.5977ZM183.086 44.3203V46.7109H175.703V44.3203H183.086ZM177.531 41.1914H180.906V53.1797C180.906 53.5469 180.953 53.8281 181.047 54.0234C181.148 54.2188 181.297 54.3555 181.492 54.4336C181.688 54.5039 181.934 54.5391 182.23 54.5391C182.441 54.5391 182.629 54.5312 182.793 54.5156C182.965 54.4922 183.109 54.4688 183.227 54.4453L183.238 56.9297C182.949 57.0234 182.637 57.0977 182.301 57.1523C181.965 57.207 181.594 57.2344 181.188 57.2344C180.445 57.2344 179.797 57.1133 179.242 56.8711C178.695 56.6211 178.273 56.2227 177.977 55.6758C177.68 55.1289 177.531 54.4102 177.531 53.5195V41.1914ZM196.598 46.8867V49.6289H187.691V46.8867H196.598ZM188.734 39.9375V57H185.219V39.9375H188.734ZM199.105 39.9375V57H195.602V39.9375H199.105ZM209.453 53.9648V44.3203H212.828V57H209.652L209.453 53.9648ZM209.828 51.3633L210.824 51.3398C210.824 52.1836 210.727 52.9688 210.531 53.6953C210.336 54.4141 210.043 55.0391 209.652 55.5703C209.262 56.0938 208.77 56.5039 208.176 56.8008C207.582 57.0898 206.883 57.2344 206.078 57.2344C205.461 57.2344 204.891 57.1484 204.367 56.9766C203.852 56.7969 203.406 56.5195 203.031 56.1445C202.664 55.7617 202.375 55.2734 202.164 54.6797C201.961 54.0781 201.859 53.3555 201.859 52.5117V44.3203H205.234V52.5352C205.234 52.9102 205.277 53.2266 205.363 53.4844C205.457 53.7422 205.586 53.9531 205.75 54.1172C205.914 54.2812 206.105 54.3984 206.324 54.4688C206.551 54.5391 206.801 54.5742 207.074 54.5742C207.77 54.5742 208.316 54.4336 208.715 54.1523C209.121 53.8711 209.406 53.4883 209.57 53.0039C209.742 52.5117 209.828 51.9648 209.828 51.3633ZM215.406 39H218.781V54.0938L218.441 57H215.406V39ZM226.809 50.5312V50.7773C226.809 51.7227 226.707 52.5898 226.504 53.3789C226.309 54.168 226.004 54.8516 225.59 55.4297C225.176 56 224.66 56.4453 224.043 56.7656C223.434 57.0781 222.715 57.2344 221.887 57.2344C221.113 57.2344 220.441 57.0781 219.871 56.7656C219.309 56.4531 218.836 56.0117 218.453 55.4414C218.07 54.8711 217.762 54.2031 217.527 53.4375C217.293 52.6719 217.117 51.8359 217 50.9297V50.3906C217.117 49.4844 217.293 48.6484 217.527 47.8828C217.762 47.1172 218.07 46.4492 218.453 45.8789C218.836 45.3086 219.309 44.8672 219.871 44.5547C220.434 44.2422 221.098 44.0859 221.863 44.0859C222.699 44.0859 223.426 44.2461 224.043 44.5664C224.668 44.8789 225.184 45.3242 225.59 45.9023C226.004 46.4727 226.309 47.1523 226.504 47.9414C226.707 48.7227 226.809 49.5859 226.809 50.5312ZM223.434 50.7773V50.5312C223.434 50.0156 223.395 49.5312 223.316 49.0781C223.246 48.6172 223.121 48.2148 222.941 47.8711C222.762 47.5195 222.516 47.2422 222.203 47.0391C221.898 46.8359 221.504 46.7344 221.02 46.7344C220.559 46.7344 220.168 46.8125 219.848 46.9688C219.527 47.125 219.262 47.3438 219.051 47.625C218.848 47.9062 218.695 48.2422 218.594 48.6328C218.492 49.0156 218.43 49.4375 218.406 49.8984V51.4336C218.43 52.0508 218.531 52.5977 218.711 53.0742C218.898 53.543 219.18 53.9141 219.555 54.1875C219.938 54.4531 220.434 54.5859 221.043 54.5859C221.52 54.5859 221.914 54.4922 222.227 54.3047C222.539 54.1172 222.781 53.8516 222.953 53.5078C223.133 53.1641 223.258 52.7617 223.328 52.3008C223.398 51.832 223.434 51.3242 223.434 50.7773Z" fill="#888888"/>
</g>
<defs>
<clipPath id="clip0_9_21">
<rect width="1363" height="163" fill="white"/>
</clipPath>
</defs>
</svg>
