<?xml version="1.0" encoding="utf-8" standalone="no"?>
<!DOCTYPE svg PUBLIC "-//W3C//DTD SVG 1.1//EN"
  "http://www.w3.org/Graphics/SVG/1.1/DTD/svg11.dtd">
<svg xmlns:xlink="http://www.w3.org/1999/xlink" width="288pt" height="355.061372pt" viewBox="0 0 288 355.061372" xmlns="http://www.w3.org/2000/svg" version="1.1">
 <metadata>
  <rdf:RDF xmlns:dc="http://purl.org/dc/elements/1.1/" xmlns:cc="http://creativecommons.org/ns#" xmlns:rdf="http://www.w3.org/1999/02/22-rdf-syntax-ns#">
   <cc:Work>
    <dc:type rdf:resource="http://purl.org/dc/dcmitype/StillImage"/>
    <dc:date>2023-09-15T11:33:23.823100</dc:date>
    <dc:format>image/svg+xml</dc:format>
    <dc:creator>
     <cc:Agent>
      <dc:title>Matplotlib v3.7.3, https://matplotlib.org/</dc:title>
     </cc:Agent>
    </dc:creator>
   </cc:Work>
  </rdf:RDF>
 </metadata>
 <defs>
  <style type="text/css">*{stroke-linejoin: round; stroke-linecap: butt}</style>
 </defs>
 <g id="figure_1">
  <g id="patch_1">
   <path d="M 0 355.061372 
L 288 355.061372 
L 288 0 
L 0 0 
z
" style="fill: #ffffff"/>
  </g>
  <g id="axes_1">
   <g id="patch_2">
    <path d="M 0 355.061372 
L 288 355.061372 
L 288 0 
L 0 0 
z
" style="fill: #212830"/>
   </g>
   <g id="patch_3">
    <path d="M 13.090909 28.991946 
L 14.508697 29.810506 
L 14.508697 41.220672 
L 13.090909 42.039232 
L 13.090909 66.799626 
L 14.508697 67.618186 
L 14.508697 79.028352 
L 13.090909 79.846912 
L 13.090909 104.607305 
L 14.508697 105.425866 
L 14.508697 116.836031 
L 13.090909 117.654592 
L 13.090909 142.414985 
L 14.508697 143.233545 
L 14.508697 154.643711 
L 13.090909 155.462271 
L 13.090909 180.222665 
L 14.508697 181.041225 
L 14.508697 192.451391 
L 13.090909 193.269951 
L 13.090909 218.030344 
L 14.508697 218.848905 
L 14.508697 230.25907 
L 13.090909 231.077631 
L 13.090909 255.838024 
L 14.508697 256.656584 
L 14.508697 282.210699 
L 101.938956 282.210699 
L 101.938956 256.656584 
L 103.356744 255.838024 
L 103.356744 231.077631 
L 101.938956 230.25907 
L 101.938956 225.026584 
L 114.699048 225.026584 
L 184.643256 225.026584 
L 184.643256 236.934184 
L 186.061044 237.752745 
L 186.061044 249.16291 
L 184.643256 249.98147 
L 184.643256 274.741864 
L 186.061044 275.560424 
L 186.061044 286.97059 
L 184.643256 287.78915 
L 184.643256 312.549544 
L 186.061044 313.368104 
L 186.061044 338.922219 
L 273.491303 338.922219 
L 273.491303 313.368104 
L 274.909091 312.549544 
L 274.909091 287.78915 
L 273.491303 286.97059 
L 273.491303 275.560424 
L 274.909091 274.741864 
L 274.909091 249.98147 
L 273.491303 249.16291 
L 273.491303 237.752745 
L 274.909091 236.934184 
L 274.909091 212.173791 
L 273.491303 211.355231 
L 273.491303 199.945065 
L 274.909091 199.126505 
L 274.909091 174.366111 
L 273.491303 173.547551 
L 273.491303 162.137385 
L 274.909091 161.318825 
L 274.909091 136.558431 
L 273.491303 135.739871 
L 273.491303 124.329705 
L 274.909091 123.511145 
L 274.909091 98.750752 
L 273.491303 97.932191 
L 273.491303 86.522026 
L 274.909091 85.703466 
L 274.909091 72.850673 
L 184.643256 72.850673 
L 184.643256 85.703466 
L 186.061044 86.522026 
L 186.061044 97.932191 
L 184.643256 98.750752 
L 184.643256 123.511145 
L 186.061044 124.329705 
L 186.061044 134.760748 
L 101.938956 134.760748 
L 101.938956 130.507384 
L 103.356744 130.507384 
L 103.356744 117.654592 
L 101.938956 116.836031 
L 101.938956 105.425866 
L 103.356744 104.607305 
L 103.356744 79.846912 
L 101.938956 79.028352 
L 101.938956 67.618186 
L 103.356744 66.799626 
L 103.356744 42.039232 
L 101.938956 41.220672 
L 101.938956 29.810506 
L 103.356744 28.991946 
L 103.356744 16.139153 
L 13.090909 16.139153 
L 13.090909 28.991946 
" clip-path="url(#p40f690523f)" style="fill: none; stroke: #00ffff; stroke-width: 0.72; stroke-linejoin: miter"/>
   </g>
   <g id="patch_4">
    <path d="M 20.652445 16.139153 
L 17.816869 17.084345 
" clip-path="url(#p40f690523f)" style="fill: none; stroke: #ffff00; stroke-width: 0.72; stroke-linejoin: miter"/>
   </g>
   <g id="patch_5">
    <path d="M 17.816869 16.139153 
L 17.816869 17.084345 
L 20.652445 17.084345 
L 20.652445 16.139153 
L 17.816869 16.139153 
L 20.652445 17.084345 
" clip-path="url(#p40f690523f)" style="fill: none; stroke: #ffff00; stroke-width: 0.72; stroke-linejoin: miter"/>
   </g>
   <g id="patch_6">
    <path d="M 51.843781 16.139153 
L 49.008205 17.084345 
" clip-path="url(#p40f690523f)" style="fill: none; stroke: #ffff00; stroke-width: 0.72; stroke-linejoin: miter"/>
   </g>
   <g id="patch_7">
    <path d="M 49.008205 16.139153 
L 49.008205 17.084345 
L 51.843781 17.084345 
L 51.843781 16.139153 
L 49.008205 16.139153 
L 51.843781 17.084345 
" clip-path="url(#p40f690523f)" style="fill: none; stroke: #ffff00; stroke-width: 0.72; stroke-linejoin: miter"/>
   </g>
   <g id="patch_8">
    <path d="M 67.439449 16.139153 
L 64.603873 17.084345 
" clip-path="url(#p40f690523f)" style="fill: none; stroke: #ffff00; stroke-width: 0.72; stroke-linejoin: miter"/>
   </g>
   <g id="patch_9">
    <path d="M 64.603873 16.139153 
L 64.603873 17.084345 
L 67.439449 17.084345 
L 67.439449 16.139153 
L 64.603873 16.139153 
L 67.439449 17.084345 
" clip-path="url(#p40f690523f)" style="fill: none; stroke: #ffff00; stroke-width: 0.72; stroke-linejoin: miter"/>
   </g>
   <g id="patch_10">
    <path d="M 98.630784 16.139153 
L 95.795208 17.084345 
" clip-path="url(#p40f690523f)" style="fill: none; stroke: #ffff00; stroke-width: 0.72; stroke-linejoin: miter"/>
   </g>
   <g id="patch_11">
    <path d="M 95.795208 16.139153 
L 95.795208 17.084345 
L 98.630784 17.084345 
L 98.630784 16.139153 
L 95.795208 16.139153 
L 98.630784 17.084345 
" clip-path="url(#p40f690523f)" style="fill: none; stroke: #ffff00; stroke-width: 0.72; stroke-linejoin: miter"/>
   </g>
   <g id="patch_12">
    <path d="M 20.652445 53.946833 
L 17.816869 54.892025 
" clip-path="url(#p40f690523f)" style="fill: none; stroke: #ffff00; stroke-width: 0.72; stroke-linejoin: miter"/>
   </g>
   <g id="patch_13">
    <path d="M 17.816869 53.946833 
L 17.816869 54.892025 
L 20.652445 54.892025 
L 20.652445 53.946833 
L 17.816869 53.946833 
L 20.652445 54.892025 
" clip-path="url(#p40f690523f)" style="fill: none; stroke: #ffff00; stroke-width: 0.72; stroke-linejoin: miter"/>
   </g>
   <g id="patch_14">
    <path d="M 51.843781 53.946833 
L 49.008205 54.892025 
" clip-path="url(#p40f690523f)" style="fill: none; stroke: #ffff00; stroke-width: 0.72; stroke-linejoin: miter"/>
   </g>
   <g id="patch_15">
    <path d="M 49.008205 53.946833 
L 49.008205 54.892025 
L 51.843781 54.892025 
L 51.843781 53.946833 
L 49.008205 53.946833 
L 51.843781 54.892025 
" clip-path="url(#p40f690523f)" style="fill: none; stroke: #ffff00; stroke-width: 0.72; stroke-linejoin: miter"/>
   </g>
   <g id="patch_16">
    <path d="M 67.439449 53.946833 
L 64.603873 54.892025 
" clip-path="url(#p40f690523f)" style="fill: none; stroke: #ffff00; stroke-width: 0.72; stroke-linejoin: miter"/>
   </g>
   <g id="patch_17">
    <path d="M 64.603873 53.946833 
L 64.603873 54.892025 
L 67.439449 54.892025 
L 67.439449 53.946833 
L 64.603873 53.946833 
L 67.439449 54.892025 
" clip-path="url(#p40f690523f)" style="fill: none; stroke: #ffff00; stroke-width: 0.72; stroke-linejoin: miter"/>
   </g>
   <g id="patch_18">
    <path d="M 98.630784 53.946833 
L 95.795208 54.892025 
" clip-path="url(#p40f690523f)" style="fill: none; stroke: #ffff00; stroke-width: 0.72; stroke-linejoin: miter"/>
   </g>
   <g id="patch_19">
    <path d="M 95.795208 53.946833 
L 95.795208 54.892025 
L 98.630784 54.892025 
L 98.630784 53.946833 
L 95.795208 53.946833 
L 98.630784 54.892025 
" clip-path="url(#p40f690523f)" style="fill: none; stroke: #ffff00; stroke-width: 0.72; stroke-linejoin: miter"/>
   </g>
   <g id="patch_20">
    <path d="M 20.652445 91.754513 
L 17.816869 92.699705 
" clip-path="url(#p40f690523f)" style="fill: none; stroke: #ffff00; stroke-width: 0.72; stroke-linejoin: miter"/>
   </g>
   <g id="patch_21">
    <path d="M 17.816869 91.754513 
L 17.816869 92.699705 
L 20.652445 92.699705 
L 20.652445 91.754513 
L 17.816869 91.754513 
L 20.652445 92.699705 
" clip-path="url(#p40f690523f)" style="fill: none; stroke: #ffff00; stroke-width: 0.72; stroke-linejoin: miter"/>
   </g>
   <g id="patch_22">
    <path d="M 51.843781 91.754513 
L 49.008205 92.699705 
" clip-path="url(#p40f690523f)" style="fill: none; stroke: #ffff00; stroke-width: 0.72; stroke-linejoin: miter"/>
   </g>
   <g id="patch_23">
    <path d="M 49.008205 91.754513 
L 49.008205 92.699705 
L 51.843781 92.699705 
L 51.843781 91.754513 
L 49.008205 91.754513 
L 51.843781 92.699705 
" clip-path="url(#p40f690523f)" style="fill: none; stroke: #ffff00; stroke-width: 0.72; stroke-linejoin: miter"/>
   </g>
   <g id="patch_24">
    <path d="M 67.439449 91.754513 
L 64.603873 92.699705 
" clip-path="url(#p40f690523f)" style="fill: none; stroke: #ffff00; stroke-width: 0.72; stroke-linejoin: miter"/>
   </g>
   <g id="patch_25">
    <path d="M 64.603873 91.754513 
L 64.603873 92.699705 
L 67.439449 92.699705 
L 67.439449 91.754513 
L 64.603873 91.754513 
L 67.439449 92.699705 
" clip-path="url(#p40f690523f)" style="fill: none; stroke: #ffff00; stroke-width: 0.72; stroke-linejoin: miter"/>
   </g>
   <g id="patch_26">
    <path d="M 98.630784 91.754513 
L 95.795208 92.699705 
" clip-path="url(#p40f690523f)" style="fill: none; stroke: #ffff00; stroke-width: 0.72; stroke-linejoin: miter"/>
   </g>
   <g id="patch_27">
    <path d="M 95.795208 91.754513 
L 95.795208 92.699705 
L 98.630784 92.699705 
L 98.630784 91.754513 
L 95.795208 91.754513 
L 98.630784 92.699705 
" clip-path="url(#p40f690523f)" style="fill: none; stroke: #ffff00; stroke-width: 0.72; stroke-linejoin: miter"/>
   </g>
   <g id="patch_28">
    <path d="M 192.204792 91.754513 
L 189.369216 92.699705 
" clip-path="url(#p40f690523f)" style="fill: none; stroke: #ffff00; stroke-width: 0.72; stroke-linejoin: miter"/>
   </g>
   <g id="patch_29">
    <path d="M 189.369216 91.754513 
L 189.369216 92.699705 
L 192.204792 92.699705 
L 192.204792 91.754513 
L 189.369216 91.754513 
L 192.204792 92.699705 
" clip-path="url(#p40f690523f)" style="fill: none; stroke: #ffff00; stroke-width: 0.72; stroke-linejoin: miter"/>
   </g>
   <g id="patch_30">
    <path d="M 238.991795 91.754513 
L 236.156219 92.699705 
" clip-path="url(#p40f690523f)" style="fill: none; stroke: #ffff00; stroke-width: 0.72; stroke-linejoin: miter"/>
   </g>
   <g id="patch_31">
    <path d="M 236.156219 91.754513 
L 236.156219 92.699705 
L 238.991795 92.699705 
L 238.991795 91.754513 
L 236.156219 91.754513 
L 238.991795 92.699705 
" clip-path="url(#p40f690523f)" style="fill: none; stroke: #ffff00; stroke-width: 0.72; stroke-linejoin: miter"/>
   </g>
   <g id="patch_32">
    <path d="M 270.183131 91.754513 
L 267.347555 92.699705 
" clip-path="url(#p40f690523f)" style="fill: none; stroke: #ffff00; stroke-width: 0.72; stroke-linejoin: miter"/>
   </g>
   <g id="patch_33">
    <path d="M 267.347555 91.754513 
L 267.347555 92.699705 
L 270.183131 92.699705 
L 270.183131 91.754513 
L 267.347555 91.754513 
L 270.183131 92.699705 
" clip-path="url(#p40f690523f)" style="fill: none; stroke: #ffff00; stroke-width: 0.72; stroke-linejoin: miter"/>
   </g>
   <g id="patch_34">
    <path d="M 220.560551 91.754513 
L 220.560551 92.699705 
L 223.396127 92.699705 
L 223.396127 91.754513 
L 220.560551 91.754513 
L 223.396127 92.699705 
" clip-path="url(#p40f690523f)" style="fill: none; stroke: #ffff00; stroke-width: 0.72; stroke-linejoin: miter"/>
   </g>
   <g id="patch_35">
    <path d="M 223.396127 91.754513 
L 220.560551 92.699705 
" clip-path="url(#p40f690523f)" style="fill: none; stroke: #ffff00; stroke-width: 0.72; stroke-linejoin: miter"/>
   </g>
   <g id="patch_36">
    <path d="M 192.204792 72.850673 
L 189.369216 73.795865 
" clip-path="url(#p40f690523f)" style="fill: none; stroke: #ffff00; stroke-width: 0.72; stroke-linejoin: miter"/>
   </g>
   <g id="patch_37">
    <path d="M 189.369216 72.850673 
L 189.369216 73.795865 
L 192.204792 73.795865 
L 192.204792 72.850673 
L 189.369216 72.850673 
L 192.204792 73.795865 
" clip-path="url(#p40f690523f)" style="fill: none; stroke: #ffff00; stroke-width: 0.72; stroke-linejoin: miter"/>
   </g>
   <g id="patch_38">
    <path d="M 238.991795 72.850673 
L 236.156219 73.795865 
" clip-path="url(#p40f690523f)" style="fill: none; stroke: #ffff00; stroke-width: 0.72; stroke-linejoin: miter"/>
   </g>
   <g id="patch_39">
    <path d="M 236.156219 72.850673 
L 236.156219 73.795865 
L 238.991795 73.795865 
L 238.991795 72.850673 
L 236.156219 72.850673 
L 238.991795 73.795865 
" clip-path="url(#p40f690523f)" style="fill: none; stroke: #ffff00; stroke-width: 0.72; stroke-linejoin: miter"/>
   </g>
   <g id="patch_40">
    <path d="M 270.183131 72.850673 
L 267.347555 73.795865 
" clip-path="url(#p40f690523f)" style="fill: none; stroke: #ffff00; stroke-width: 0.72; stroke-linejoin: miter"/>
   </g>
   <g id="patch_41">
    <path d="M 267.347555 72.850673 
L 267.347555 73.795865 
L 270.183131 73.795865 
L 270.183131 72.850673 
L 267.347555 72.850673 
L 270.183131 73.795865 
" clip-path="url(#p40f690523f)" style="fill: none; stroke: #ffff00; stroke-width: 0.72; stroke-linejoin: miter"/>
   </g>
   <g id="patch_42">
    <path d="M 220.560551 72.850673 
L 220.560551 73.795865 
L 223.396127 73.795865 
L 223.396127 72.850673 
L 220.560551 72.850673 
L 223.396127 73.795865 
" clip-path="url(#p40f690523f)" style="fill: none; stroke: #ffff00; stroke-width: 0.72; stroke-linejoin: miter"/>
   </g>
   <g id="patch_43">
    <path d="M 223.396127 72.850673 
L 220.560551 73.795865 
" clip-path="url(#p40f690523f)" style="fill: none; stroke: #ffff00; stroke-width: 0.72; stroke-linejoin: miter"/>
   </g>
   <g id="patch_44">
    <path d="M 20.652445 129.562192 
L 17.816869 130.507384 
" clip-path="url(#p40f690523f)" style="fill: none; stroke: #ffff00; stroke-width: 0.72; stroke-linejoin: miter"/>
   </g>
   <g id="patch_45">
    <path d="M 17.816869 129.562192 
L 17.816869 130.507384 
L 20.652445 130.507384 
L 20.652445 129.562192 
L 17.816869 129.562192 
L 20.652445 130.507384 
" clip-path="url(#p40f690523f)" style="fill: none; stroke: #ffff00; stroke-width: 0.72; stroke-linejoin: miter"/>
   </g>
   <g id="patch_46">
    <path d="M 51.843781 129.562192 
L 49.008205 130.507384 
" clip-path="url(#p40f690523f)" style="fill: none; stroke: #ffff00; stroke-width: 0.72; stroke-linejoin: miter"/>
   </g>
   <g id="patch_47">
    <path d="M 49.008205 129.562192 
L 49.008205 130.507384 
L 51.843781 130.507384 
L 51.843781 129.562192 
L 49.008205 129.562192 
L 51.843781 130.507384 
" clip-path="url(#p40f690523f)" style="fill: none; stroke: #ffff00; stroke-width: 0.72; stroke-linejoin: miter"/>
   </g>
   <g id="patch_48">
    <path d="M 67.439449 129.562192 
L 64.603873 130.507384 
" clip-path="url(#p40f690523f)" style="fill: none; stroke: #ffff00; stroke-width: 0.72; stroke-linejoin: miter"/>
   </g>
   <g id="patch_49">
    <path d="M 64.603873 129.562192 
L 64.603873 130.507384 
L 67.439449 130.507384 
L 67.439449 129.562192 
L 64.603873 129.562192 
L 67.439449 130.507384 
" clip-path="url(#p40f690523f)" style="fill: none; stroke: #ffff00; stroke-width: 0.72; stroke-linejoin: miter"/>
   </g>
   <g id="patch_50">
    <path d="M 98.630784 129.562192 
L 95.795208 130.507384 
" clip-path="url(#p40f690523f)" style="fill: none; stroke: #ffff00; stroke-width: 0.72; stroke-linejoin: miter"/>
   </g>
   <g id="patch_51">
    <path d="M 95.795208 129.562192 
L 95.795208 130.507384 
L 98.630784 130.507384 
L 98.630784 129.562192 
L 95.795208 129.562192 
L 98.630784 130.507384 
" clip-path="url(#p40f690523f)" style="fill: none; stroke: #ffff00; stroke-width: 0.72; stroke-linejoin: miter"/>
   </g>
   <g id="patch_52">
    <path d="M 129.82212 134.288152 
L 126.986544 135.233344 
" clip-path="url(#p40f690523f)" style="fill: none; stroke: #ffff00; stroke-width: 0.72; stroke-linejoin: miter"/>
   </g>
   <g id="patch_53">
    <path d="M 126.986544 134.288152 
L 126.986544 135.233344 
L 129.82212 135.233344 
L 129.82212 134.288152 
L 126.986544 134.288152 
L 129.82212 135.233344 
" clip-path="url(#p40f690523f)" style="fill: none; stroke: #ffff00; stroke-width: 0.72; stroke-linejoin: miter"/>
   </g>
   <g id="patch_54">
    <path d="M 161.013456 134.288152 
L 158.17788 135.233344 
" clip-path="url(#p40f690523f)" style="fill: none; stroke: #ffff00; stroke-width: 0.72; stroke-linejoin: miter"/>
   </g>
   <g id="patch_55">
    <path d="M 158.17788 134.288152 
L 158.17788 135.233344 
L 161.013456 135.233344 
L 161.013456 134.288152 
L 158.17788 134.288152 
L 161.013456 135.233344 
" clip-path="url(#p40f690523f)" style="fill: none; stroke: #ffff00; stroke-width: 0.72; stroke-linejoin: miter"/>
   </g>
   <g id="patch_56">
    <path d="M 192.204792 129.562192 
L 189.369216 130.507384 
" clip-path="url(#p40f690523f)" style="fill: none; stroke: #ffff00; stroke-width: 0.72; stroke-linejoin: miter"/>
   </g>
   <g id="patch_57">
    <path d="M 189.369216 129.562192 
L 189.369216 130.507384 
L 192.204792 130.507384 
L 192.204792 129.562192 
L 189.369216 129.562192 
L 192.204792 130.507384 
" clip-path="url(#p40f690523f)" style="fill: none; stroke: #ffff00; stroke-width: 0.72; stroke-linejoin: miter"/>
   </g>
   <g id="patch_58">
    <path d="M 238.991795 129.562192 
L 236.156219 130.507384 
" clip-path="url(#p40f690523f)" style="fill: none; stroke: #ffff00; stroke-width: 0.72; stroke-linejoin: miter"/>
   </g>
   <g id="patch_59">
    <path d="M 236.156219 129.562192 
L 236.156219 130.507384 
L 238.991795 130.507384 
L 238.991795 129.562192 
L 236.156219 129.562192 
L 238.991795 130.507384 
" clip-path="url(#p40f690523f)" style="fill: none; stroke: #ffff00; stroke-width: 0.72; stroke-linejoin: miter"/>
   </g>
   <g id="patch_60">
    <path d="M 270.183131 129.562192 
L 267.347555 130.507384 
" clip-path="url(#p40f690523f)" style="fill: none; stroke: #ffff00; stroke-width: 0.72; stroke-linejoin: miter"/>
   </g>
   <g id="patch_61">
    <path d="M 267.347555 129.562192 
L 267.347555 130.507384 
L 270.183131 130.507384 
L 270.183131 129.562192 
L 267.347555 129.562192 
L 270.183131 130.507384 
" clip-path="url(#p40f690523f)" style="fill: none; stroke: #ffff00; stroke-width: 0.72; stroke-linejoin: miter"/>
   </g>
   <g id="patch_62">
    <path d="M 220.560551 129.562192 
L 220.560551 130.507384 
L 223.396127 130.507384 
L 223.396127 129.562192 
L 220.560551 129.562192 
L 223.396127 130.507384 
" clip-path="url(#p40f690523f)" style="fill: none; stroke: #ffff00; stroke-width: 0.72; stroke-linejoin: miter"/>
   </g>
   <g id="patch_63">
    <path d="M 223.396127 129.562192 
L 220.560551 130.507384 
" clip-path="url(#p40f690523f)" style="fill: none; stroke: #ffff00; stroke-width: 0.72; stroke-linejoin: miter"/>
   </g>
   <g id="patch_64">
    <path d="M 192.204792 167.369872 
L 189.369216 168.315064 
" clip-path="url(#p40f690523f)" style="fill: none; stroke: #ffff00; stroke-width: 0.72; stroke-linejoin: miter"/>
   </g>
   <g id="patch_65">
    <path d="M 189.369216 167.369872 
L 189.369216 168.315064 
L 192.204792 168.315064 
L 192.204792 167.369872 
L 189.369216 167.369872 
L 192.204792 168.315064 
" clip-path="url(#p40f690523f)" style="fill: none; stroke: #ffff00; stroke-width: 0.72; stroke-linejoin: miter"/>
   </g>
   <g id="patch_66">
    <path d="M 238.991795 167.369872 
L 236.156219 168.315064 
" clip-path="url(#p40f690523f)" style="fill: none; stroke: #ffff00; stroke-width: 0.72; stroke-linejoin: miter"/>
   </g>
   <g id="patch_67">
    <path d="M 236.156219 167.369872 
L 236.156219 168.315064 
L 238.991795 168.315064 
L 238.991795 167.369872 
L 236.156219 167.369872 
L 238.991795 168.315064 
" clip-path="url(#p40f690523f)" style="fill: none; stroke: #ffff00; stroke-width: 0.72; stroke-linejoin: miter"/>
   </g>
   <g id="patch_68">
    <path d="M 270.183131 167.369872 
L 267.347555 168.315064 
" clip-path="url(#p40f690523f)" style="fill: none; stroke: #ffff00; stroke-width: 0.72; stroke-linejoin: miter"/>
   </g>
   <g id="patch_69">
    <path d="M 267.347555 167.369872 
L 267.347555 168.315064 
L 270.183131 168.315064 
L 270.183131 167.369872 
L 267.347555 167.369872 
L 270.183131 168.315064 
" clip-path="url(#p40f690523f)" style="fill: none; stroke: #ffff00; stroke-width: 0.72; stroke-linejoin: miter"/>
   </g>
   <g id="patch_70">
    <path d="M 220.560551 167.369872 
L 220.560551 168.315064 
L 223.396127 168.315064 
L 223.396127 167.369872 
L 220.560551 167.369872 
L 223.396127 168.315064 
" clip-path="url(#p40f690523f)" style="fill: none; stroke: #ffff00; stroke-width: 0.72; stroke-linejoin: miter"/>
   </g>
   <g id="patch_71">
    <path d="M 223.396127 167.369872 
L 220.560551 168.315064 
" clip-path="url(#p40f690523f)" style="fill: none; stroke: #ffff00; stroke-width: 0.72; stroke-linejoin: miter"/>
   </g>
   <g id="patch_72">
    <path d="M 192.204792 205.177552 
L 189.369216 206.122744 
" clip-path="url(#p40f690523f)" style="fill: none; stroke: #ffff00; stroke-width: 0.72; stroke-linejoin: miter"/>
   </g>
   <g id="patch_73">
    <path d="M 189.369216 205.177552 
L 189.369216 206.122744 
L 192.204792 206.122744 
L 192.204792 205.177552 
L 189.369216 205.177552 
L 192.204792 206.122744 
" clip-path="url(#p40f690523f)" style="fill: none; stroke: #ffff00; stroke-width: 0.72; stroke-linejoin: miter"/>
   </g>
   <g id="patch_74">
    <path d="M 238.991795 205.177552 
L 236.156219 206.122744 
" clip-path="url(#p40f690523f)" style="fill: none; stroke: #ffff00; stroke-width: 0.72; stroke-linejoin: miter"/>
   </g>
   <g id="patch_75">
    <path d="M 236.156219 205.177552 
L 236.156219 206.122744 
L 238.991795 206.122744 
L 238.991795 205.177552 
L 236.156219 205.177552 
L 238.991795 206.122744 
" clip-path="url(#p40f690523f)" style="fill: none; stroke: #ffff00; stroke-width: 0.72; stroke-linejoin: miter"/>
   </g>
   <g id="patch_76">
    <path d="M 270.183131 205.177552 
L 267.347555 206.122744 
" clip-path="url(#p40f690523f)" style="fill: none; stroke: #ffff00; stroke-width: 0.72; stroke-linejoin: miter"/>
   </g>
   <g id="patch_77">
    <path d="M 267.347555 205.177552 
L 267.347555 206.122744 
L 270.183131 206.122744 
L 270.183131 205.177552 
L 267.347555 205.177552 
L 270.183131 206.122744 
" clip-path="url(#p40f690523f)" style="fill: none; stroke: #ffff00; stroke-width: 0.72; stroke-linejoin: miter"/>
   </g>
   <g id="patch_78">
    <path d="M 220.560551 205.177552 
L 220.560551 206.122744 
L 223.396127 206.122744 
L 223.396127 205.177552 
L 220.560551 205.177552 
L 223.396127 206.122744 
" clip-path="url(#p40f690523f)" style="fill: none; stroke: #ffff00; stroke-width: 0.72; stroke-linejoin: miter"/>
   </g>
   <g id="patch_79">
    <path d="M 223.396127 205.177552 
L 220.560551 206.122744 
" clip-path="url(#p40f690523f)" style="fill: none; stroke: #ffff00; stroke-width: 0.72; stroke-linejoin: miter"/>
   </g>
   <g id="patch_80">
    <path d="M 192.204792 242.985231 
L 189.369216 243.930423 
" clip-path="url(#p40f690523f)" style="fill: none; stroke: #ffff00; stroke-width: 0.72; stroke-linejoin: miter"/>
   </g>
   <g id="patch_81">
    <path d="M 189.369216 242.985231 
L 189.369216 243.930423 
L 192.204792 243.930423 
L 192.204792 242.985231 
L 189.369216 242.985231 
L 192.204792 243.930423 
" clip-path="url(#p40f690523f)" style="fill: none; stroke: #ffff00; stroke-width: 0.72; stroke-linejoin: miter"/>
   </g>
   <g id="patch_82">
    <path d="M 238.991795 242.985231 
L 236.156219 243.930423 
" clip-path="url(#p40f690523f)" style="fill: none; stroke: #ffff00; stroke-width: 0.72; stroke-linejoin: miter"/>
   </g>
   <g id="patch_83">
    <path d="M 236.156219 242.985231 
L 236.156219 243.930423 
L 238.991795 243.930423 
L 238.991795 242.985231 
L 236.156219 242.985231 
L 238.991795 243.930423 
" clip-path="url(#p40f690523f)" style="fill: none; stroke: #ffff00; stroke-width: 0.72; stroke-linejoin: miter"/>
   </g>
   <g id="patch_84">
    <path d="M 270.183131 242.985231 
L 267.347555 243.930423 
" clip-path="url(#p40f690523f)" style="fill: none; stroke: #ffff00; stroke-width: 0.72; stroke-linejoin: miter"/>
   </g>
   <g id="patch_85">
    <path d="M 267.347555 242.985231 
L 267.347555 243.930423 
L 270.183131 243.930423 
L 270.183131 242.985231 
L 267.347555 242.985231 
L 270.183131 243.930423 
" clip-path="url(#p40f690523f)" style="fill: none; stroke: #ffff00; stroke-width: 0.72; stroke-linejoin: miter"/>
   </g>
   <g id="patch_86">
    <path d="M 220.560551 242.985231 
L 220.560551 243.930423 
L 223.396127 243.930423 
L 223.396127 242.985231 
L 220.560551 242.985231 
L 223.396127 243.930423 
" clip-path="url(#p40f690523f)" style="fill: none; stroke: #ffff00; stroke-width: 0.72; stroke-linejoin: miter"/>
   </g>
   <g id="patch_87">
    <path d="M 223.396127 242.985231 
L 220.560551 243.930423 
" clip-path="url(#p40f690523f)" style="fill: none; stroke: #ffff00; stroke-width: 0.72; stroke-linejoin: miter"/>
   </g>
   <g id="patch_88">
    <path d="M 192.204792 280.792911 
L 189.369216 281.738103 
" clip-path="url(#p40f690523f)" style="fill: none; stroke: #ffff00; stroke-width: 0.72; stroke-linejoin: miter"/>
   </g>
   <g id="patch_89">
    <path d="M 189.369216 280.792911 
L 189.369216 281.738103 
L 192.204792 281.738103 
L 192.204792 280.792911 
L 189.369216 280.792911 
L 192.204792 281.738103 
" clip-path="url(#p40f690523f)" style="fill: none; stroke: #ffff00; stroke-width: 0.72; stroke-linejoin: miter"/>
   </g>
   <g id="patch_90">
    <path d="M 238.991795 280.792911 
L 236.156219 281.738103 
" clip-path="url(#p40f690523f)" style="fill: none; stroke: #ffff00; stroke-width: 0.72; stroke-linejoin: miter"/>
   </g>
   <g id="patch_91">
    <path d="M 236.156219 280.792911 
L 236.156219 281.738103 
L 238.991795 281.738103 
L 238.991795 280.792911 
L 236.156219 280.792911 
L 238.991795 281.738103 
" clip-path="url(#p40f690523f)" style="fill: none; stroke: #ffff00; stroke-width: 0.72; stroke-linejoin: miter"/>
   </g>
   <g id="patch_92">
    <path d="M 270.183131 280.792911 
L 267.347555 281.738103 
" clip-path="url(#p40f690523f)" style="fill: none; stroke: #ffff00; stroke-width: 0.72; stroke-linejoin: miter"/>
   </g>
   <g id="patch_93">
    <path d="M 267.347555 280.792911 
L 267.347555 281.738103 
L 270.183131 281.738103 
L 270.183131 280.792911 
L 267.347555 280.792911 
L 270.183131 281.738103 
" clip-path="url(#p40f690523f)" style="fill: none; stroke: #ffff00; stroke-width: 0.72; stroke-linejoin: miter"/>
   </g>
   <g id="patch_94">
    <path d="M 220.560551 280.792911 
L 220.560551 281.738103 
L 223.396127 281.738103 
L 223.396127 280.792911 
L 220.560551 280.792911 
L 223.396127 281.738103 
" clip-path="url(#p40f690523f)" style="fill: none; stroke: #ffff00; stroke-width: 0.72; stroke-linejoin: miter"/>
   </g>
   <g id="patch_95">
    <path d="M 223.396127 280.792911 
L 220.560551 281.738103 
" clip-path="url(#p40f690523f)" style="fill: none; stroke: #ffff00; stroke-width: 0.72; stroke-linejoin: miter"/>
   </g>
   <g id="patch_96">
    <path d="M 189.369216 316.710207 
L 190.314408 319.545783 
" clip-path="url(#p40f690523f)" style="fill: none; stroke: #ffff00; stroke-width: 0.72; stroke-linejoin: miter"/>
   </g>
   <g id="patch_97">
    <path d="M 189.369216 319.545783 
L 190.314408 319.545783 
L 190.314408 316.710207 
L 189.369216 316.710207 
L 189.369216 319.545783 
L 190.314408 316.710207 
" clip-path="url(#p40f690523f)" style="fill: none; stroke: #ffff00; stroke-width: 0.72; stroke-linejoin: miter"/>
   </g>
   <g id="patch_98">
    <path d="M 238.991795 318.600591 
L 236.156219 319.545783 
" clip-path="url(#p40f690523f)" style="fill: none; stroke: #ffff00; stroke-width: 0.72; stroke-linejoin: miter"/>
   </g>
   <g id="patch_99">
    <path d="M 236.156219 318.600591 
L 236.156219 319.545783 
L 238.991795 319.545783 
L 238.991795 318.600591 
L 236.156219 318.600591 
L 238.991795 319.545783 
" clip-path="url(#p40f690523f)" style="fill: none; stroke: #ffff00; stroke-width: 0.72; stroke-linejoin: miter"/>
   </g>
   <g id="patch_100">
    <path d="M 270.183131 319.545783 
L 269.237939 316.710207 
" clip-path="url(#p40f690523f)" style="fill: none; stroke: #ffff00; stroke-width: 0.72; stroke-linejoin: miter"/>
   </g>
   <g id="patch_101">
    <path d="M 270.183131 316.710207 
L 269.237939 316.710207 
L 269.237939 319.545783 
L 270.183131 319.545783 
L 270.183131 316.710207 
L 269.237939 319.545783 
" clip-path="url(#p40f690523f)" style="fill: none; stroke: #ffff00; stroke-width: 0.72; stroke-linejoin: miter"/>
   </g>
   <g id="patch_102">
    <path d="M 220.560551 318.600591 
L 220.560551 319.545783 
L 223.396127 319.545783 
L 223.396127 318.600591 
L 220.560551 318.600591 
L 223.396127 319.545783 
" clip-path="url(#p40f690523f)" style="fill: none; stroke: #ffff00; stroke-width: 0.72; stroke-linejoin: miter"/>
   </g>
   <g id="patch_103">
    <path d="M 223.396127 318.600591 
L 220.560551 319.545783 
" clip-path="url(#p40f690523f)" style="fill: none; stroke: #ffff00; stroke-width: 0.72; stroke-linejoin: miter"/>
   </g>
   <g id="patch_104">
    <path d="M 192.204792 337.504431 
L 189.369216 338.449623 
" clip-path="url(#p40f690523f)" style="fill: none; stroke: #ffff00; stroke-width: 0.72; stroke-linejoin: miter"/>
   </g>
   <g id="patch_105">
    <path d="M 189.369216 337.504431 
L 189.369216 338.449623 
L 192.204792 338.449623 
L 192.204792 337.504431 
L 189.369216 337.504431 
L 192.204792 338.449623 
" clip-path="url(#p40f690523f)" style="fill: none; stroke: #ffff00; stroke-width: 0.72; stroke-linejoin: miter"/>
   </g>
   <g id="patch_106">
    <path d="M 238.991795 337.504431 
L 236.156219 338.449623 
" clip-path="url(#p40f690523f)" style="fill: none; stroke: #ffff00; stroke-width: 0.72; stroke-linejoin: miter"/>
   </g>
   <g id="patch_107">
    <path d="M 236.156219 337.504431 
L 236.156219 338.449623 
L 238.991795 338.449623 
L 238.991795 337.504431 
L 236.156219 337.504431 
L 238.991795 338.449623 
" clip-path="url(#p40f690523f)" style="fill: none; stroke: #ffff00; stroke-width: 0.72; stroke-linejoin: miter"/>
   </g>
   <g id="patch_108">
    <path d="M 270.183131 337.504431 
L 267.347555 338.449623 
" clip-path="url(#p40f690523f)" style="fill: none; stroke: #ffff00; stroke-width: 0.72; stroke-linejoin: miter"/>
   </g>
   <g id="patch_109">
    <path d="M 267.347555 337.504431 
L 267.347555 338.449623 
L 270.183131 338.449623 
L 270.183131 337.504431 
L 267.347555 337.504431 
L 270.183131 338.449623 
" clip-path="url(#p40f690523f)" style="fill: none; stroke: #ffff00; stroke-width: 0.72; stroke-linejoin: miter"/>
   </g>
   <g id="patch_110">
    <path d="M 220.560551 337.504431 
L 220.560551 338.449623 
L 223.396127 338.449623 
L 223.396127 337.504431 
L 220.560551 337.504431 
L 223.396127 338.449623 
" clip-path="url(#p40f690523f)" style="fill: none; stroke: #ffff00; stroke-width: 0.72; stroke-linejoin: miter"/>
   </g>
   <g id="patch_111">
    <path d="M 223.396127 337.504431 
L 220.560551 338.449623 
" clip-path="url(#p40f690523f)" style="fill: none; stroke: #ffff00; stroke-width: 0.72; stroke-linejoin: miter"/>
   </g>
   <g id="patch_112">
    <path d="M 20.652445 167.369872 
L 17.816869 168.315064 
" clip-path="url(#p40f690523f)" style="fill: none; stroke: #ffff00; stroke-width: 0.72; stroke-linejoin: miter"/>
   </g>
   <g id="patch_113">
    <path d="M 17.816869 167.369872 
L 17.816869 168.315064 
L 20.652445 168.315064 
L 20.652445 167.369872 
L 17.816869 167.369872 
L 20.652445 168.315064 
" clip-path="url(#p40f690523f)" style="fill: none; stroke: #ffff00; stroke-width: 0.72; stroke-linejoin: miter"/>
   </g>
   <g id="patch_114">
    <path d="M 51.843781 167.369872 
L 49.008205 168.315064 
" clip-path="url(#p40f690523f)" style="fill: none; stroke: #ffff00; stroke-width: 0.72; stroke-linejoin: miter"/>
   </g>
   <g id="patch_115">
    <path d="M 49.008205 167.369872 
L 49.008205 168.315064 
L 51.843781 168.315064 
L 51.843781 167.369872 
L 49.008205 167.369872 
L 51.843781 168.315064 
" clip-path="url(#p40f690523f)" style="fill: none; stroke: #ffff00; stroke-width: 0.72; stroke-linejoin: miter"/>
   </g>
   <g id="patch_116">
    <path d="M 67.439449 167.369872 
L 64.603873 168.315064 
" clip-path="url(#p40f690523f)" style="fill: none; stroke: #ffff00; stroke-width: 0.72; stroke-linejoin: miter"/>
   </g>
   <g id="patch_117">
    <path d="M 64.603873 167.369872 
L 64.603873 168.315064 
L 67.439449 168.315064 
L 67.439449 167.369872 
L 64.603873 167.369872 
L 67.439449 168.315064 
" clip-path="url(#p40f690523f)" style="fill: none; stroke: #ffff00; stroke-width: 0.72; stroke-linejoin: miter"/>
   </g>
   <g id="patch_118">
    <path d="M 98.630784 167.369872 
L 95.795208 168.315064 
" clip-path="url(#p40f690523f)" style="fill: none; stroke: #ffff00; stroke-width: 0.72; stroke-linejoin: miter"/>
   </g>
   <g id="patch_119">
    <path d="M 95.795208 167.369872 
L 95.795208 168.315064 
L 98.630784 168.315064 
L 98.630784 167.369872 
L 95.795208 167.369872 
L 98.630784 168.315064 
" clip-path="url(#p40f690523f)" style="fill: none; stroke: #ffff00; stroke-width: 0.72; stroke-linejoin: miter"/>
   </g>
   <g id="patch_120">
    <path d="M 20.652445 205.177552 
L 17.816869 206.122744 
" clip-path="url(#p40f690523f)" style="fill: none; stroke: #ffff00; stroke-width: 0.72; stroke-linejoin: miter"/>
   </g>
   <g id="patch_121">
    <path d="M 17.816869 205.177552 
L 17.816869 206.122744 
L 20.652445 206.122744 
L 20.652445 205.177552 
L 17.816869 205.177552 
L 20.652445 206.122744 
" clip-path="url(#p40f690523f)" style="fill: none; stroke: #ffff00; stroke-width: 0.72; stroke-linejoin: miter"/>
   </g>
   <g id="patch_122">
    <path d="M 67.439449 205.177552 
L 64.603873 206.122744 
" clip-path="url(#p40f690523f)" style="fill: none; stroke: #ffff00; stroke-width: 0.72; stroke-linejoin: miter"/>
   </g>
   <g id="patch_123">
    <path d="M 64.603873 205.177552 
L 64.603873 206.122744 
L 67.439449 206.122744 
L 67.439449 205.177552 
L 64.603873 205.177552 
L 67.439449 206.122744 
" clip-path="url(#p40f690523f)" style="fill: none; stroke: #ffff00; stroke-width: 0.72; stroke-linejoin: miter"/>
   </g>
   <g id="patch_124">
    <path d="M 98.630784 205.177552 
L 95.795208 206.122744 
" clip-path="url(#p40f690523f)" style="fill: none; stroke: #ffff00; stroke-width: 0.72; stroke-linejoin: miter"/>
   </g>
   <g id="patch_125">
    <path d="M 95.795208 205.177552 
L 95.795208 206.122744 
L 98.630784 206.122744 
L 98.630784 205.177552 
L 95.795208 205.177552 
L 98.630784 206.122744 
" clip-path="url(#p40f690523f)" style="fill: none; stroke: #ffff00; stroke-width: 0.72; stroke-linejoin: miter"/>
   </g>
   <g id="patch_126">
    <path d="M 20.652445 242.985231 
L 17.816869 243.930423 
" clip-path="url(#p40f690523f)" style="fill: none; stroke: #ffff00; stroke-width: 0.72; stroke-linejoin: miter"/>
   </g>
   <g id="patch_127">
    <path d="M 17.816869 242.985231 
L 17.816869 243.930423 
L 20.652445 243.930423 
L 20.652445 242.985231 
L 17.816869 242.985231 
L 20.652445 243.930423 
" clip-path="url(#p40f690523f)" style="fill: none; stroke: #ffff00; stroke-width: 0.72; stroke-linejoin: miter"/>
   </g>
   <g id="patch_128">
    <path d="M 51.843781 242.985231 
L 49.008205 243.930423 
" clip-path="url(#p40f690523f)" style="fill: none; stroke: #ffff00; stroke-width: 0.72; stroke-linejoin: miter"/>
   </g>
   <g id="patch_129">
    <path d="M 49.008205 242.985231 
L 49.008205 243.930423 
L 51.843781 243.930423 
L 51.843781 242.985231 
L 49.008205 242.985231 
L 51.843781 243.930423 
" clip-path="url(#p40f690523f)" style="fill: none; stroke: #ffff00; stroke-width: 0.72; stroke-linejoin: miter"/>
   </g>
   <g id="patch_130">
    <path d="M 67.439449 242.985231 
L 64.603873 243.930423 
" clip-path="url(#p40f690523f)" style="fill: none; stroke: #ffff00; stroke-width: 0.72; stroke-linejoin: miter"/>
   </g>
   <g id="patch_131">
    <path d="M 64.603873 242.985231 
L 64.603873 243.930423 
L 67.439449 243.930423 
L 67.439449 242.985231 
L 64.603873 242.985231 
L 67.439449 243.930423 
" clip-path="url(#p40f690523f)" style="fill: none; stroke: #ffff00; stroke-width: 0.72; stroke-linejoin: miter"/>
   </g>
   <g id="patch_132">
    <path d="M 98.630784 242.985231 
L 95.795208 243.930423 
" clip-path="url(#p40f690523f)" style="fill: none; stroke: #ffff00; stroke-width: 0.72; stroke-linejoin: miter"/>
   </g>
   <g id="patch_133">
    <path d="M 95.795208 242.985231 
L 95.795208 243.930423 
L 98.630784 243.930423 
L 98.630784 242.985231 
L 95.795208 242.985231 
L 98.630784 243.930423 
" clip-path="url(#p40f690523f)" style="fill: none; stroke: #ffff00; stroke-width: 0.72; stroke-linejoin: miter"/>
   </g>
   <g id="patch_134">
    <path d="M 20.652445 280.792911 
L 17.816869 281.738103 
" clip-path="url(#p40f690523f)" style="fill: none; stroke: #ffff00; stroke-width: 0.72; stroke-linejoin: miter"/>
   </g>
   <g id="patch_135">
    <path d="M 17.816869 280.792911 
L 17.816869 281.738103 
L 20.652445 281.738103 
L 20.652445 280.792911 
L 17.816869 280.792911 
L 20.652445 281.738103 
" clip-path="url(#p40f690523f)" style="fill: none; stroke: #ffff00; stroke-width: 0.72; stroke-linejoin: miter"/>
   </g>
   <g id="patch_136">
    <path d="M 51.843781 280.792911 
L 49.008205 281.738103 
" clip-path="url(#p40f690523f)" style="fill: none; stroke: #ffff00; stroke-width: 0.72; stroke-linejoin: miter"/>
   </g>
   <g id="patch_137">
    <path d="M 49.008205 280.792911 
L 49.008205 281.738103 
L 51.843781 281.738103 
L 51.843781 280.792911 
L 49.008205 280.792911 
L 51.843781 281.738103 
" clip-path="url(#p40f690523f)" style="fill: none; stroke: #ffff00; stroke-width: 0.72; stroke-linejoin: miter"/>
   </g>
   <g id="patch_138">
    <path d="M 67.439449 280.792911 
L 64.603873 281.738103 
" clip-path="url(#p40f690523f)" style="fill: none; stroke: #ffff00; stroke-width: 0.72; stroke-linejoin: miter"/>
   </g>
   <g id="patch_139">
    <path d="M 64.603873 280.792911 
L 64.603873 281.738103 
L 67.439449 281.738103 
L 67.439449 280.792911 
L 64.603873 280.792911 
L 67.439449 281.738103 
" clip-path="url(#p40f690523f)" style="fill: none; stroke: #ffff00; stroke-width: 0.72; stroke-linejoin: miter"/>
   </g>
   <g id="patch_140">
    <path d="M 98.630784 280.792911 
L 95.795208 281.738103 
" clip-path="url(#p40f690523f)" style="fill: none; stroke: #ffff00; stroke-width: 0.72; stroke-linejoin: miter"/>
   </g>
   <g id="patch_141">
    <path d="M 95.795208 280.792911 
L 95.795208 281.738103 
L 98.630784 281.738103 
L 98.630784 280.792911 
L 95.795208 280.792911 
L 98.630784 281.738103 
" clip-path="url(#p40f690523f)" style="fill: none; stroke: #ffff00; stroke-width: 0.72; stroke-linejoin: miter"/>
   </g>
   <g id="patch_142">
    <path d="M 115.64424 203.287168 
L 116.589432 206.122744 
" clip-path="url(#p40f690523f)" style="fill: none; stroke: #ffff00; stroke-width: 0.72; stroke-linejoin: miter"/>
   </g>
   <g id="patch_143">
    <path d="M 115.64424 206.122744 
L 116.589432 206.122744 
L 116.589432 203.287168 
L 115.64424 203.287168 
L 115.64424 206.122744 
L 116.589432 203.287168 
" clip-path="url(#p40f690523f)" style="fill: none; stroke: #ffff00; stroke-width: 0.72; stroke-linejoin: miter"/>
   </g>
   <g id="patch_144">
    <path d="M 158.650476 182.96554 
L 158.650476 182.020348 
" clip-path="url(#p40f690523f)" style="fill: none; stroke: #ff00ff; stroke-width: 0.72; stroke-linejoin: miter"/>
   </g>
   <g id="line2d_1">
    <path d="M 158.650476 150.120118 
L 158.650476 148.938628 
" clip-path="url(#p40f690523f)" style="fill: none; stroke: #ff00ff; stroke-width: 0.72; stroke-linecap: square"/>
   </g>
   <g id="line2d_2">
    <path d="M 158.650476 148.938628 
L 116.116836 148.938628 
" clip-path="url(#p40f690523f)" style="fill: none; stroke: #ff00ff; stroke-width: 0.72; stroke-linecap: square"/>
   </g>
   <g id="line2d_3">
    <path d="M 116.116836 148.938628 
L 116.116836 174.931408 
" clip-path="url(#p40f690523f)" style="fill: none; stroke: #ff00ff; stroke-width: 0.72; stroke-linecap: square"/>
   </g>
   <g id="line2d_4">
    <path d="M 116.116836 182.020348 
L 116.116836 182.96554 
" clip-path="url(#p40f690523f)" style="fill: none; stroke: #ff00ff; stroke-width: 0.72; stroke-linecap: square"/>
   </g>
   <g id="line2d_5">
    <path d="M 116.116836 182.96554 
L 171.883164 182.96554 
" clip-path="url(#p40f690523f)" style="fill: none; stroke: #ff00ff; stroke-width: 0.72; stroke-linecap: square"/>
   </g>
   <g id="line2d_6">
    <path d="M 171.883164 182.96554 
L 171.883164 210.376108 
" clip-path="url(#p40f690523f)" style="fill: none; stroke: #ff00ff; stroke-width: 0.72; stroke-linecap: square"/>
   </g>
   <g id="line2d_7">
    <path d="M 171.883164 210.376108 
L 138.801444 210.376108 
" clip-path="url(#p40f690523f)" style="fill: none; stroke: #ff00ff; stroke-width: 0.72; stroke-linecap: square"/>
   </g>
   <g id="line2d_8">
    <path d="M 138.801444 210.376108 
L 138.801444 204.23236 
" clip-path="url(#p40f690523f)" style="fill: none; stroke: #ff00ff; stroke-width: 0.72; stroke-linecap: square"/>
   </g>
   <g id="line2d_9">
    <path d="M 138.801444 204.23236 
L 138.801444 205.650148 
" clip-path="url(#p40f690523f)" style="fill: none; stroke: #ff00ff; stroke-width: 0.72; stroke-linecap: square"/>
   </g>
   <g id="line2d_10">
    <path d="M 138.801444 205.650148 
L 171.883164 205.650148 
" clip-path="url(#p40f690523f)" style="fill: none; stroke: #ff00ff; stroke-width: 0.72; stroke-linecap: square"/>
   </g>
   <g id="line2d_11">
    <path d="M 171.883164 205.650148 
L 171.883164 190.527076 
" clip-path="url(#p40f690523f)" style="fill: none; stroke: #ff00ff; stroke-width: 0.72; stroke-linecap: square"/>
   </g>
   <g id="line2d_12">
    <path d="M 171.883164 190.527076 
L 138.801444 190.527076 
" clip-path="url(#p40f690523f)" style="fill: none; stroke: #ff00ff; stroke-width: 0.72; stroke-linecap: square"/>
   </g>
   <g id="line2d_13">
    <path d="M 138.801444 190.527076 
L 138.801444 199.5064 
" clip-path="url(#p40f690523f)" style="fill: none; stroke: #ff00ff; stroke-width: 0.72; stroke-linecap: square"/>
   </g>
   <g id="line2d_14">
    <path d="M 138.801444 199.5064 
L 138.801444 182.96554 
" clip-path="url(#p40f690523f)" style="fill: none; stroke: #ff00ff; stroke-width: 0.72; stroke-linecap: square"/>
   </g>
   <g id="line2d_15">
    <path d="M 158.650476 173.041024 
L 143.527404 173.041024 
" clip-path="url(#p40f690523f)" style="fill: none; stroke: #ff00ff; stroke-width: 0.72; stroke-linecap: square"/>
   </g>
   <g id="line2d_16">
    <path d="M 143.527404 173.041024 
L 143.527404 148.938628 
" clip-path="url(#p40f690523f)" style="fill: none; stroke: #ff00ff; stroke-width: 0.72; stroke-linecap: square"/>
   </g>
   <g id="line2d_17">
    <path d="M 116.116836 182.96554 
L 116.116836 194.307844 
" clip-path="url(#p40f690523f)" style="fill: none; stroke: #ff00ff; stroke-width: 0.72; stroke-linecap: square"/>
   </g>
   <g id="line2d_18">
    <path d="M 116.116836 194.307844 
L 117.534624 194.307844 
" clip-path="url(#p40f690523f)" style="fill: none; stroke: #ff00ff; stroke-width: 0.72; stroke-linecap: square"/>
   </g>
   <g id="line2d_19">
    <path d="M 126.041352 194.307844 
L 128.876928 194.307844 
" clip-path="url(#p40f690523f)" style="fill: none; stroke: #ff00ff; stroke-width: 0.72; stroke-linecap: square"/>
   </g>
   <g id="line2d_20">
    <path d="M 137.383656 194.307844 
L 138.801444 194.307844 
" clip-path="url(#p40f690523f)" style="fill: none; stroke: #ff00ff; stroke-width: 0.72; stroke-linecap: square"/>
   </g>
   <g id="patch_145">
    <path d="M 144 149.411224 
L 158.17788 149.411224 
L 158.17788 172.568428 
L 144 172.568428 
L 144 149.411224 
" clip-path="url(#p40f690523f)" style="fill: none; stroke: #00ffff; stroke-width: 0.72; stroke-linejoin: miter"/>
   </g>
   <g id="patch_146">
    <path d="M 138.328848 183.438136 
L 116.589432 183.438136 
L 116.589432 193.835248 
L 138.328848 193.835248 
L 138.328848 183.438136 
" clip-path="url(#p40f690523f)" style="fill: none; stroke: #00ffff; stroke-width: 0.72; stroke-linejoin: miter"/>
   </g>
   <g id="line2d_21">
    <path d="M 143.054808 162.643912 
L 129.82212 162.643912 
" clip-path="url(#p40f690523f)" style="fill: none; stroke: #00ffff; stroke-width: 0.72; stroke-linecap: square"/>
   </g>
   <g id="line2d_22">
    <path d="M 129.349524 163.116508 
L 130.767312 163.116508 
" clip-path="url(#p40f690523f)" style="fill: none; stroke: #ff00ff; stroke-width: 0.72; stroke-linecap: square"/>
   </g>
   <g id="line2d_23">
    <path d="M 142.109616 163.116508 
L 143.527404 163.116508 
" clip-path="url(#p40f690523f)" style="fill: none; stroke: #ff00ff; stroke-width: 0.72; stroke-linecap: square"/>
   </g>
   <g id="line2d_24">
    <path d="M 129.349524 148.938628 
L 129.349524 172.568428 
" clip-path="url(#p40f690523f)" style="fill: none; stroke: #ff00ff; stroke-width: 0.72; stroke-linecap: square"/>
   </g>
   <g id="patch_147">
    <path d="M 129.82212 149.411224 
L 143.054808 149.411224 
L 129.82212 162.643912 
L 129.82212 149.411224 
L 143.054808 162.643912 
L 143.054808 149.411224 
" clip-path="url(#p40f690523f)" style="fill: none; stroke: #00ffff; stroke-width: 0.72; stroke-linejoin: miter"/>
   </g>
   <g id="line2d_25">
    <path d="M 158.650476 159.572038 
L 158.650476 162.407614 
" clip-path="url(#p40f690523f)" style="fill: none; stroke: #ff00ff; stroke-width: 0.72; stroke-linecap: square"/>
   </g>
   <g id="line2d_26">
    <path d="M 158.650476 174.931408 
L 158.650476 171.859534 
" clip-path="url(#p40f690523f)" style="fill: none; stroke: #ff00ff; stroke-width: 0.72; stroke-linecap: square"/>
   </g>
   <g id="patch_148">
    <path d="M 51.843781 205.177552 
L 49.008205 206.122744 
" clip-path="url(#p40f690523f)" style="fill: none; stroke: #ffff00; stroke-width: 0.72; stroke-linejoin: miter"/>
   </g>
   <g id="patch_149">
    <path d="M 49.008205 205.177552 
L 49.008205 206.122744 
L 51.843781 206.122744 
L 51.843781 205.177552 
L 49.008205 205.177552 
L 51.843781 206.122744 
" clip-path="url(#p40f690523f)" style="fill: none; stroke: #ffff00; stroke-width: 0.72; stroke-linejoin: miter"/>
   </g>
  </g>
 </g>
 <defs>
  <clipPath id="p40f690523f">
   <rect x="0" y="0" width="288" height="355.061372" fill="#fffff"/>
  </clipPath>
 </defs>
</svg>
