<svg
            width="369"
            height="166"
            viewBox="0 0 369 166"
            fill="none"
            xmlns="http://www.w3.org/2000/svg">
            <path
              d="M33.7124 12.9055H27.0717C26.8823 11.8165 26.5331 10.8518 26.0241 10.0114C25.5152 9.15909 24.8819 8.43703 24.1243 7.84517C23.3667 7.25331 22.5026 6.80942 21.532 6.51349C20.5732 6.20573 19.5374 6.05185 18.4247 6.05185C16.4479 6.05185 14.696 6.54901 13.169 7.54332C11.642 8.5258 10.4465 9.96993 9.58239 11.8757C8.71828 13.7696 8.28622 16.0838 8.28622 18.8182C8.28622 21.5999 8.71828 23.9437 9.58239 25.8494C10.4583 27.7434 11.6539 29.1757 13.169 30.1463C14.696 31.1051 16.442 31.5845 18.407 31.5845C19.496 31.5845 20.514 31.4425 21.4609 31.1584C22.4197 30.8625 23.2779 30.4304 24.0355 29.8622C24.8049 29.294 25.45 28.5956 25.9709 27.767C26.5036 26.9384 26.8705 25.9915 27.0717 24.9261L33.7124 24.9616C33.4638 26.6899 32.9252 28.3116 32.0966 29.8267C31.2798 31.3419 30.2086 32.6795 28.8828 33.8395C27.5571 34.9877 26.0064 35.8873 24.2308 36.5384C22.4553 37.1776 20.4844 37.4972 18.3182 37.4972C15.1222 37.4972 12.2694 36.7573 9.75994 35.2777C7.25047 33.7981 5.27367 31.6615 3.82955 28.8679C2.38542 26.0743 1.66335 22.7244 1.66335 18.8182C1.66335 14.9001 2.39134 11.5502 3.8473 8.76847C5.30327 5.97491 7.28598 3.8383 9.79545 2.35866C12.3049 0.879023 15.1458 0.139203 18.3182 0.139203C20.3423 0.139203 22.2244 0.423294 23.9645 0.991475C25.7045 1.55966 27.2552 2.39418 28.6165 3.49503C29.9777 4.58404 31.0964 5.92164 31.9723 7.50781C32.8601 9.08215 33.4401 10.8814 33.7124 12.9055ZM51.3571 37.5327C48.6937 37.5327 46.3855 36.9467 44.4324 35.7749C42.4792 34.603 40.9641 32.9635 39.8869 30.8565C38.8216 28.7495 38.2889 26.2874 38.2889 23.4702C38.2889 20.6529 38.8216 18.1849 39.8869 16.0661C40.9641 13.9472 42.4792 12.3018 44.4324 11.13C46.3855 9.9581 48.6937 9.37216 51.3571 9.37216C54.0204 9.37216 56.3287 9.9581 58.2818 11.13C60.2349 12.3018 61.7441 13.9472 62.8095 16.0661C63.8867 18.1849 64.4252 20.6529 64.4252 23.4702C64.4252 26.2874 63.8867 28.7495 62.8095 30.8565C61.7441 32.9635 60.2349 34.603 58.2818 35.7749C56.3287 36.9467 54.0204 37.5327 51.3571 37.5327ZM51.3926 32.3835C52.8367 32.3835 54.0441 31.987 55.0147 31.1939C55.9854 30.389 56.7074 29.3118 57.1809 27.9624C57.6663 26.6129 57.9089 25.1096 57.9089 23.4524C57.9089 21.7834 57.6663 20.2741 57.1809 18.9247C56.7074 17.5634 55.9854 16.4804 55.0147 15.6754C54.0441 14.8705 52.8367 14.468 51.3926 14.468C49.9129 14.468 48.6819 14.8705 47.6994 15.6754C46.7288 16.4804 46.0008 17.5634 45.5154 18.9247C45.042 20.2741 44.8052 21.7834 44.8052 23.4524C44.8052 25.1096 45.042 26.6129 45.5154 27.9624C46.0008 29.3118 46.7288 30.389 47.6994 31.1939C48.6819 31.987 49.9129 32.3835 51.3926 32.3835ZM76.3082 0.636363V37H69.8807V0.636363H76.3082ZM89.3453 0.636363V37H82.9178V0.636363H89.3453ZM103.803 37.5504C102.075 37.5504 100.518 37.2427 99.1332 36.6271C97.7601 35.9998 96.671 35.0765 95.8661 33.8572C95.073 32.638 94.6765 31.1347 94.6765 29.3473C94.6765 27.8085 94.9606 26.536 95.5288 25.5298C96.0969 24.5237 96.8723 23.7188 97.8548 23.1151C98.8372 22.5114 99.944 22.0556 101.175 21.7479C102.418 21.4283 103.702 21.1974 105.028 21.0554C106.626 20.8897 107.922 20.7417 108.917 20.6115C109.911 20.4695 110.633 20.2564 111.083 19.9723C111.544 19.6764 111.775 19.2206 111.775 18.6051V18.4986C111.775 17.161 111.379 16.1252 110.586 15.3913C109.792 14.6574 108.65 14.2905 107.159 14.2905C105.584 14.2905 104.336 14.6338 103.412 15.3203C102.501 16.0069 101.885 16.8177 101.566 17.7528L95.5643 16.9006C96.0378 15.2434 96.819 13.8584 97.908 12.7457C98.997 11.6212 100.329 10.7808 101.903 10.2244C103.477 9.65625 105.217 9.37216 107.123 9.37216C108.437 9.37216 109.745 9.52604 111.047 9.83381C112.349 10.1416 113.539 10.6506 114.616 11.3608C115.693 12.0592 116.557 13.0121 117.208 14.2195C117.871 15.4268 118.203 16.9361 118.203 18.7472V37H112.024V33.2536H111.811C111.42 34.0111 110.87 34.7214 110.159 35.3842C109.461 36.0353 108.579 36.562 107.514 36.9645C106.46 37.3551 105.223 37.5504 103.803 37.5504ZM105.472 32.8274C106.762 32.8274 107.881 32.5729 108.828 32.0639C109.775 31.5431 110.503 30.8565 111.012 30.0043C111.533 29.152 111.793 28.2228 111.793 27.2166V24.0028C111.592 24.1686 111.248 24.3224 110.763 24.4645C110.29 24.6065 109.757 24.7308 109.165 24.8374C108.573 24.9439 107.987 25.0386 107.407 25.1214C106.827 25.2043 106.324 25.2753 105.898 25.3345C104.939 25.4647 104.081 25.6778 103.324 25.9737C102.566 26.2696 101.968 26.6839 101.53 27.2166C101.092 27.7375 100.873 28.4122 100.873 29.2408C100.873 30.4245 101.305 31.3182 102.169 31.9219C103.033 32.5256 104.134 32.8274 105.472 32.8274ZM124.95 37V0.636363H131.377V14.2372H131.644C131.975 13.5743 132.443 12.87 133.047 12.1243C133.65 11.3667 134.467 10.7216 135.497 10.1889C136.527 9.64441 137.841 9.37216 139.439 9.37216C141.546 9.37216 143.445 9.91075 145.138 10.9879C146.843 12.0533 148.192 13.6335 149.186 15.7287C150.193 17.812 150.696 20.3688 150.696 23.3991C150.696 26.3939 150.204 28.9389 149.222 31.0341C148.239 33.1293 146.902 34.7273 145.209 35.8281C143.516 36.929 141.599 37.4794 139.456 37.4794C137.894 37.4794 136.598 37.219 135.568 36.6982C134.538 36.1773 133.709 35.55 133.082 34.8161C132.467 34.0703 131.987 33.366 131.644 32.7031H131.271V37H124.95ZM131.253 23.3636C131.253 25.1274 131.502 26.6721 131.999 27.9979C132.508 29.3236 133.236 30.3594 134.183 31.1051C135.142 31.839 136.302 32.206 137.663 32.206C139.083 32.206 140.273 31.8272 141.232 31.0696C142.191 30.3002 142.913 29.2526 143.398 27.9268C143.895 26.5893 144.144 25.0682 144.144 23.3636C144.144 21.6709 143.901 20.1676 143.416 18.8537C142.931 17.5398 142.208 16.5099 141.25 15.7642C140.291 15.0185 139.095 14.6456 137.663 14.6456C136.29 14.6456 135.124 15.0066 134.165 15.7287C133.206 16.4508 132.478 17.4628 131.981 18.7649C131.496 20.067 131.253 21.5999 131.253 23.3636ZM168.056 37.5327C165.393 37.5327 163.085 36.9467 161.132 35.7749C159.178 34.603 157.663 32.9635 156.586 30.8565C155.521 28.7495 154.988 26.2874 154.988 23.4702C154.988 20.6529 155.521 18.1849 156.586 16.0661C157.663 13.9472 159.178 12.3018 161.132 11.13C163.085 9.9581 165.393 9.37216 168.056 9.37216C170.72 9.37216 173.028 9.9581 174.981 11.13C176.934 12.3018 178.443 13.9472 179.509 16.0661C180.586 18.1849 181.124 20.6529 181.124 23.4702C181.124 26.2874 180.586 28.7495 179.509 30.8565C178.443 32.9635 176.934 34.603 174.981 35.7749C173.028 36.9467 170.72 37.5327 168.056 37.5327ZM168.092 32.3835C169.536 32.3835 170.743 31.987 171.714 31.1939C172.685 30.389 173.407 29.3118 173.88 27.9624C174.365 26.6129 174.608 25.1096 174.608 23.4524C174.608 21.7834 174.365 20.2741 173.88 18.9247C173.407 17.5634 172.685 16.4804 171.714 15.6754C170.743 14.8705 169.536 14.468 168.092 14.468C166.612 14.468 165.381 14.8705 164.399 15.6754C163.428 16.4804 162.7 17.5634 162.215 18.9247C161.741 20.2741 161.504 21.7834 161.504 23.4524C161.504 25.1096 161.741 26.6129 162.215 27.9624C162.7 29.3118 163.428 30.389 164.399 31.1939C165.381 31.987 166.612 32.3835 168.092 32.3835ZM186.58 37V9.72727H192.812V14.2727H193.096C193.593 12.6984 194.446 11.4851 195.653 10.6328C196.872 9.7687 198.263 9.33665 199.826 9.33665C200.181 9.33665 200.577 9.3544 201.015 9.38991C201.465 9.41359 201.838 9.45502 202.134 9.5142V15.4268C201.862 15.3321 201.43 15.2493 200.838 15.1783C200.258 15.0954 199.695 15.054 199.151 15.054C197.979 15.054 196.926 15.3085 195.99 15.8175C195.067 16.3146 194.339 17.0071 193.806 17.8949C193.274 18.7827 193.007 19.8066 193.007 20.9666V37H186.58ZM213.764 37.5504C212.036 37.5504 210.479 37.2427 209.094 36.6271C207.721 35.9998 206.632 35.0765 205.827 33.8572C205.034 32.638 204.637 31.1347 204.637 29.3473C204.637 27.8085 204.922 26.536 205.49 25.5298C206.058 24.5237 206.833 23.7188 207.816 23.1151C208.798 22.5114 209.905 22.0556 211.136 21.7479C212.379 21.4283 213.663 21.1974 214.989 21.0554C216.587 20.8897 217.883 20.7417 218.877 20.6115C219.872 20.4695 220.594 20.2564 221.044 19.9723C221.505 19.6764 221.736 19.2206 221.736 18.6051V18.4986C221.736 17.161 221.34 16.1252 220.547 15.3913C219.753 14.6574 218.611 14.2905 217.12 14.2905C215.545 14.2905 214.297 14.6338 213.373 15.3203C212.462 16.0069 211.846 16.8177 211.527 17.7528L205.525 16.9006C205.999 15.2434 206.78 13.8584 207.869 12.7457C208.958 11.6212 210.29 10.7808 211.864 10.2244C213.438 9.65625 215.178 9.37216 217.084 9.37216C218.398 9.37216 219.706 9.52604 221.008 9.83381C222.31 10.1416 223.5 10.6506 224.577 11.3608C225.654 12.0592 226.518 13.0121 227.169 14.2195C227.832 15.4268 228.164 16.9361 228.164 18.7472V37H221.985V33.2536H221.772C221.381 34.0111 220.831 34.7214 220.12 35.3842C219.422 36.0353 218.54 36.562 217.475 36.9645C216.421 37.3551 215.184 37.5504 213.764 37.5504ZM215.433 32.8274C216.723 32.8274 217.842 32.5729 218.789 32.0639C219.736 31.5431 220.464 30.8565 220.973 30.0043C221.493 29.152 221.754 28.2228 221.754 27.2166V24.0028C221.553 24.1686 221.209 24.3224 220.724 24.4645C220.251 24.6065 219.718 24.7308 219.126 24.8374C218.534 24.9439 217.948 25.0386 217.368 25.1214C216.788 25.2043 216.285 25.2753 215.859 25.3345C214.9 25.4647 214.042 25.6778 213.284 25.9737C212.527 26.2696 211.929 26.6839 211.491 27.2166C211.053 27.7375 210.834 28.4122 210.834 29.2408C210.834 30.4245 211.266 31.3182 212.13 31.9219C212.994 32.5256 214.095 32.8274 215.433 32.8274ZM248.245 9.72727V14.6989H232.567V9.72727H248.245ZM236.438 3.19318H242.865V28.7969C242.865 29.661 242.996 30.3239 243.256 30.7855C243.528 31.2353 243.883 31.5431 244.321 31.7088C244.759 31.8745 245.245 31.9574 245.777 31.9574C246.18 31.9574 246.547 31.9278 246.878 31.8686C247.221 31.8094 247.482 31.7562 247.659 31.7088L248.743 36.7337C248.399 36.852 247.908 36.9822 247.269 37.1243C246.641 37.2663 245.872 37.3492 244.961 37.3729C243.351 37.4202 241.901 37.1776 240.61 36.6449C239.32 36.1004 238.296 35.2599 237.539 34.1236C236.793 32.9872 236.426 31.5668 236.438 29.8622V3.19318ZM265.402 37.5327C262.667 37.5327 260.306 36.9645 258.317 35.8281C256.34 34.6799 254.819 33.0582 253.754 30.9631C252.689 28.8561 252.156 26.3762 252.156 23.5234C252.156 20.718 252.689 18.2559 253.754 16.1371C254.831 14.0064 256.335 12.3492 258.264 11.1655C260.193 9.96993 262.46 9.37216 265.064 9.37216C266.745 9.37216 268.331 9.64441 269.823 10.1889C271.326 10.7216 272.652 11.5502 273.8 12.6747C274.96 13.7992 275.872 15.2315 276.535 16.9716C277.198 18.6998 277.529 20.7595 277.529 23.1506V25.1214H255.175V20.7891H271.368C271.356 19.558 271.09 18.4631 270.569 17.5043C270.048 16.5336 269.32 15.7701 268.385 15.2138C267.461 14.6574 266.384 14.3793 265.153 14.3793C263.839 14.3793 262.685 14.6989 261.691 15.3381C260.697 15.9654 259.921 16.794 259.365 17.8239C258.82 18.8419 258.542 19.9605 258.53 21.1797V24.9616C258.53 26.5478 258.82 27.9091 259.4 29.0455C259.98 30.17 260.791 31.0341 261.833 31.6378C262.875 32.2296 264.094 32.5256 265.491 32.5256C266.426 32.5256 267.272 32.3954 268.03 32.1349C268.787 31.8627 269.444 31.4661 270.001 30.9453C270.557 30.4245 270.977 29.7794 271.261 29.0099L277.263 29.6847C276.884 31.2708 276.162 32.6558 275.096 33.8395C274.043 35.0114 272.693 35.9228 271.048 36.5739C269.403 37.2131 267.521 37.5327 265.402 37.5327ZM299.735 37L294.749 20.6364H297.391L300.928 33.1648H301.099L304.593 20.6364H307.278L310.729 33.1222H310.9L314.437 20.6364H317.079L312.093 37H309.621L306.042 24.429H305.786L302.207 37H299.735ZM320.403 37V20.6364H322.917V37H320.403ZM321.681 17.9091C321.191 17.9091 320.768 17.7422 320.413 17.4084C320.065 17.0746 319.891 16.6733 319.891 16.2045C319.891 15.7358 320.065 15.3345 320.413 15.0007C320.768 14.6669 321.191 14.5 321.681 14.5C322.171 14.5 322.59 14.6669 322.938 15.0007C323.293 15.3345 323.471 15.7358 323.471 16.2045C323.471 16.6733 323.293 17.0746 322.938 17.4084C322.59 17.7422 322.171 17.9091 321.681 17.9091ZM334.638 20.6364V22.767H326.158V20.6364H334.638ZM328.63 16.7159H331.144V32.3125C331.144 33.0227 331.247 33.5554 331.453 33.9105C331.666 34.2585 331.936 34.4929 332.263 34.6136C332.596 34.7273 332.948 34.7841 333.317 34.7841C333.594 34.7841 333.822 34.7699 333.999 34.7415C334.177 34.706 334.319 34.6776 334.425 34.6562L334.937 36.9148C334.766 36.9787 334.528 37.0426 334.223 37.1065C333.917 37.1776 333.53 37.2131 333.062 37.2131C332.351 37.2131 331.655 37.0604 330.974 36.755C330.299 36.4496 329.738 35.9844 329.29 35.3594C328.85 34.7344 328.63 33.946 328.63 32.9943V16.7159ZM341.286 27.1562V37H338.772V15.1818H341.286V23.1932H341.499C341.883 22.348 342.458 21.6768 343.225 21.1797C343.999 20.6754 345.029 20.4233 346.314 20.4233C347.43 20.4233 348.406 20.647 349.244 21.0945C350.082 21.5348 350.732 22.2131 351.194 23.1293C351.662 24.0384 351.897 25.196 351.897 26.6023V37H349.383V26.7727C349.383 25.473 349.045 24.468 348.371 23.7578C347.703 23.0405 346.776 22.6818 345.59 22.6818C344.766 22.6818 344.028 22.8558 343.374 23.2038C342.728 23.5518 342.216 24.0597 341.84 24.7273C341.471 25.3949 341.286 26.2045 341.286 27.1562ZM0.988636 67.1584V61.6364H30.0014V67.1584H18.7621V98H12.228V67.1584H0.988636ZM43.4292 98.5327C40.6948 98.5327 38.3333 97.9645 36.3446 96.8281C34.3678 95.6799 32.8468 94.0582 31.7814 91.9631C30.7161 89.8561 30.1834 87.3762 30.1834 84.5234C30.1834 81.718 30.7161 79.2559 31.7814 77.1371C32.8586 75.0064 34.3619 73.3492 36.2914 72.1655C38.2208 70.9699 40.4876 70.3722 43.0918 70.3722C44.7727 70.3722 46.3588 70.6444 47.8503 71.1889C49.3536 71.7216 50.6794 72.5502 51.8276 73.6747C52.9876 74.7992 53.8991 76.2315 54.562 77.9716C55.2248 79.6998 55.5563 81.7595 55.5563 84.1506V86.1214H33.2019V81.7891H49.3951C49.3832 80.558 49.1169 79.4631 48.5961 78.5043C48.0752 77.5336 47.3472 76.7701 46.4121 76.2138C45.4888 75.6574 44.4116 75.3793 43.1806 75.3793C41.8667 75.3793 40.7125 75.6989 39.7182 76.3381C38.7239 76.9654 37.9486 77.794 37.3922 78.8239C36.8477 79.8419 36.5695 80.9605 36.5577 82.1797V85.9616C36.5577 87.5478 36.8477 88.9091 37.4277 90.0455C38.0078 91.17 38.8186 92.0341 39.8603 92.6378C40.9019 93.2296 42.1212 93.5256 43.5179 93.5256C44.4531 93.5256 45.2994 93.3954 46.057 93.1349C46.8146 92.8627 47.4715 92.4661 48.0279 91.9453C48.5842 91.4245 49.0044 90.7794 49.2885 90.0099L55.29 90.6847C54.9112 92.2708 54.1891 93.6558 53.1238 94.8395C52.0703 96.0114 50.7208 96.9228 49.0755 97.5739C47.4301 98.2131 45.548 98.5327 43.4292 98.5327ZM68.842 98.5504C67.1138 98.5504 65.5572 98.2427 64.1722 97.6271C62.7991 96.9998 61.7101 96.0765 60.9052 94.8572C60.1121 93.638 59.7156 92.1347 59.7156 90.3473C59.7156 88.8085 59.9996 87.536 60.5678 86.5298C61.136 85.5237 61.9113 84.7188 62.8938 84.1151C63.8763 83.5114 64.9831 83.0556 66.2141 82.7479C67.457 82.4283 68.7414 82.1974 70.0671 82.0554C71.6651 81.8897 72.9613 81.7417 73.9556 81.6115C74.9499 81.4695 75.672 81.2564 76.1218 80.9723C76.5835 80.6764 76.8143 80.2206 76.8143 79.6051V79.4986C76.8143 78.161 76.4177 77.1252 75.6246 76.3913C74.8316 75.6574 73.6893 75.2905 72.1978 75.2905C70.6235 75.2905 69.3746 75.6338 68.4513 76.3203C67.5399 77.0069 66.9244 77.8177 66.6048 78.7528L60.6033 77.9006C61.0768 76.2434 61.8581 74.8584 62.9471 73.7457C64.0361 72.6212 65.3678 71.7808 66.9421 71.2244C68.5165 70.6562 70.2565 70.3722 72.1623 70.3722C73.4762 70.3722 74.7842 70.526 76.0863 70.8338C77.3884 71.1416 78.578 71.6506 79.6552 72.3608C80.7324 73.0592 81.5965 74.0121 82.2475 75.2195C82.9104 76.4268 83.2418 77.9361 83.2418 79.7472V98H77.0629V94.2536H76.8498C76.4592 95.0111 75.9087 95.7214 75.1985 96.3842C74.5001 97.0353 73.6183 97.562 72.5529 97.9645C71.4994 98.3551 70.2624 98.5504 68.842 98.5504ZM70.511 93.8274C71.8013 93.8274 72.9199 93.5729 73.8668 93.0639C74.8138 92.5431 75.5418 91.8565 76.0508 91.0043C76.5716 90.152 76.832 89.2228 76.832 88.2166V85.0028C76.6308 85.1686 76.2875 85.3224 75.8022 85.4645C75.3287 85.6065 74.796 85.7308 74.2042 85.8374C73.6123 85.9439 73.0264 86.0386 72.4464 86.1214C71.8664 86.2043 71.3633 86.2753 70.9371 86.3345C69.9783 86.4647 69.1201 86.6778 68.3626 86.9737C67.605 87.2696 67.0072 87.6839 66.5692 88.2166C66.1313 88.7375 65.9123 89.4122 65.9123 90.2408C65.9123 91.4245 66.3443 92.3182 67.2085 92.9219C68.0726 93.5256 69.1734 93.8274 70.511 93.8274ZM89.7049 98V70.7273H95.8484V75.3615H96.168C96.7362 73.799 97.6772 72.5798 98.9911 71.7038C100.305 70.8161 101.873 70.3722 103.696 70.3722C105.543 70.3722 107.1 70.822 108.366 71.7216C109.645 72.6094 110.544 73.8227 111.065 75.3615H111.349C111.953 73.8464 112.971 72.639 114.403 71.7393C115.847 70.8279 117.558 70.3722 119.534 70.3722C122.044 70.3722 124.092 71.1652 125.678 72.7514C127.264 74.3376 128.057 76.6518 128.057 79.6939V98H121.612V80.6882C121.612 78.9955 121.162 77.7585 120.262 76.9773C119.363 76.1842 118.262 75.7876 116.96 75.7876C115.409 75.7876 114.196 76.273 113.32 77.2436C112.456 78.2024 112.024 79.4512 112.024 80.9901V98H105.721V80.4219C105.721 79.0133 105.294 77.8887 104.442 77.0483C103.602 76.2079 102.501 75.7876 101.14 75.7876C100.216 75.7876 99.3758 76.0244 98.6183 76.4979C97.8607 76.9595 97.257 77.6165 96.8072 78.4688C96.3574 79.3092 96.1325 80.2917 96.1325 81.4162V98H89.7049ZM156.133 77.9361L150.274 78.5753C150.108 77.9834 149.818 77.4271 149.404 76.9062C149.001 76.3854 148.457 75.9652 147.77 75.6456C147.084 75.326 146.243 75.1662 145.249 75.1662C143.912 75.1662 142.787 75.4562 141.876 76.0362C140.976 76.6162 140.532 77.3679 140.544 78.2912C140.532 79.0843 140.822 79.7294 141.414 80.2266C142.018 80.7237 143.012 81.1321 144.397 81.4517L149.049 82.446C151.629 83.0024 153.547 83.8842 154.802 85.0916C156.068 86.299 156.707 87.8793 156.719 89.8324C156.707 91.5488 156.204 93.0639 155.21 94.3778C154.228 95.6799 152.86 96.6979 151.108 97.4318C149.357 98.1657 147.344 98.5327 145.072 98.5327C141.733 98.5327 139.046 97.8343 137.01 96.4375C134.974 95.0289 133.761 93.0698 133.371 90.5604L139.638 89.9567C139.922 91.1877 140.526 92.117 141.449 92.7443C142.373 93.3717 143.574 93.6854 145.054 93.6854C146.581 93.6854 147.806 93.3717 148.729 92.7443C149.664 92.117 150.132 91.3416 150.132 90.4183C150.132 89.6371 149.83 88.992 149.226 88.483C148.635 87.974 147.711 87.5833 146.456 87.3111L141.805 86.3345C139.189 85.79 137.253 84.8726 135.998 83.5824C134.744 82.2803 134.122 80.6349 134.134 78.6463C134.122 76.9654 134.578 75.5095 135.501 74.2784C136.436 73.0355 137.733 72.0767 139.39 71.402C141.059 70.7154 142.982 70.3722 145.16 70.3722C148.356 70.3722 150.872 71.0528 152.706 72.4141C154.553 73.7753 155.695 75.616 156.133 77.9361ZM175.08 98V81.6364H177.595V98H175.08ZM176.359 78.9091C175.869 78.9091 175.446 78.7422 175.091 78.4084C174.743 78.0746 174.569 77.6733 174.569 77.2045C174.569 76.7358 174.743 76.3345 175.091 76.0007C175.446 75.6669 175.869 75.5 176.359 75.5C176.849 75.5 177.268 75.6669 177.616 76.0007C177.971 76.3345 178.149 76.7358 178.149 77.2045C178.149 77.6733 177.971 78.0746 177.616 78.4084C177.268 78.7422 176.849 78.9091 176.359 78.9091ZM184.714 88.1562V98H182.2V81.6364H184.629V84.1932H184.842C185.225 83.3622 185.808 82.6946 186.589 82.1903C187.37 81.679 188.379 81.4233 189.614 81.4233C190.722 81.4233 191.692 81.6506 192.523 82.1051C193.354 82.5526 194 83.2344 194.462 84.1506C194.923 85.0597 195.154 86.2102 195.154 87.6023V98H192.64V87.7727C192.64 86.4872 192.306 85.4858 191.638 84.7685C190.971 84.044 190.055 83.6818 188.89 83.6818C188.087 83.6818 187.37 83.8558 186.738 84.2038C186.113 84.5518 185.619 85.0597 185.257 85.7273C184.895 86.3949 184.714 87.2045 184.714 88.1562ZM2.58665 159V122.636H16.223C19.0166 122.636 21.3603 123.157 23.2543 124.199C25.16 125.241 26.5982 126.673 27.5689 128.496C28.5514 130.307 29.0426 132.366 29.0426 134.675C29.0426 137.007 28.5514 139.078 27.5689 140.889C26.5864 142.7 25.1364 144.127 23.2188 145.168C21.3011 146.198 18.9396 146.713 16.1342 146.713H7.09659V141.298H15.2464C16.88 141.298 18.2176 141.013 19.2592 140.445C20.3009 139.877 21.0703 139.096 21.5675 138.102C22.0765 137.107 22.331 135.965 22.331 134.675C22.331 133.384 22.0765 132.248 21.5675 131.266C21.0703 130.283 20.295 129.52 19.2415 128.975C18.1998 128.419 16.8563 128.141 15.2109 128.141H9.17401V159H2.58665ZM34.4803 159V131.727H40.7125V136.273H40.9966C41.4938 134.698 42.3461 133.485 43.5534 132.633C44.7727 131.769 46.1635 131.337 47.726 131.337C48.0811 131.337 48.4777 131.354 48.9157 131.39C49.3655 131.414 49.7383 131.455 50.0343 131.514V137.427C49.762 137.332 49.33 137.249 48.7381 137.178C48.1581 137.095 47.5958 137.054 47.0513 137.054C45.8794 137.054 44.8259 137.308 43.8908 137.817C42.9675 138.315 42.2395 139.007 41.7069 139.895C41.1742 140.783 40.9078 141.807 40.9078 142.967V159H34.4803ZM65.0778 159.533C62.4144 159.533 60.1062 158.947 58.1531 157.775C56.1999 156.603 54.6848 154.964 53.6076 152.857C52.5423 150.75 52.0096 148.287 52.0096 145.47C52.0096 142.653 52.5423 140.185 53.6076 138.066C54.6848 135.947 56.1999 134.302 58.1531 133.13C60.1062 131.958 62.4144 131.372 65.0778 131.372C67.7411 131.372 70.0494 131.958 72.0025 133.13C73.9556 134.302 75.4648 135.947 76.5302 138.066C77.6074 140.185 78.146 142.653 78.146 145.47C78.146 148.287 77.6074 150.75 76.5302 152.857C75.4648 154.964 73.9556 156.603 72.0025 157.775C70.0494 158.947 67.7411 159.533 65.0778 159.533ZM65.1133 154.384C66.5574 154.384 67.7648 153.987 68.7354 153.194C69.7061 152.389 70.4281 151.312 70.9016 149.962C71.387 148.613 71.6296 147.11 71.6296 145.452C71.6296 143.783 71.387 142.274 70.9016 140.925C70.4281 139.563 69.7061 138.48 68.7354 137.675C67.7648 136.871 66.5574 136.468 65.1133 136.468C63.6336 136.468 62.4026 136.871 61.4201 137.675C60.4495 138.48 59.7215 139.563 59.2362 140.925C58.7627 142.274 58.5259 143.783 58.5259 145.452C58.5259 147.11 58.7627 148.613 59.2362 149.962C59.7215 151.312 60.4495 152.389 61.4201 153.194C62.4026 153.987 63.6336 154.384 65.1133 154.384ZM97.4153 131.727V136.699H81.2931V131.727H97.4153ZM85.3237 159V129.153C85.3237 127.318 85.7025 125.791 86.46 124.572C87.2295 123.353 88.2593 122.441 89.5495 121.837C90.8398 121.234 92.2721 120.932 93.8464 120.932C94.9591 120.932 95.9475 121.021 96.8116 121.198C97.6757 121.376 98.3149 121.536 98.7292 121.678L97.4508 126.649C97.1786 126.566 96.8353 126.483 96.421 126.401C96.0067 126.306 95.545 126.259 95.036 126.259C93.8405 126.259 92.9941 126.549 92.497 127.129C92.0117 127.697 91.769 128.513 91.769 129.579V159H85.3237ZM113.498 159.533C110.763 159.533 108.402 158.964 106.413 157.828C104.436 156.68 102.915 155.058 101.85 152.963C100.784 150.856 100.252 148.376 100.252 145.523C100.252 142.718 100.784 140.256 101.85 138.137C102.927 136.006 104.43 134.349 106.36 133.165C108.289 131.97 110.556 131.372 113.16 131.372C114.841 131.372 116.427 131.644 117.919 132.189C119.422 132.722 120.748 133.55 121.896 134.675C123.056 135.799 123.967 137.232 124.63 138.972C125.293 140.7 125.625 142.759 125.625 145.151V147.121H103.27V142.789H119.463C119.452 141.558 119.185 140.463 118.664 139.504C118.144 138.534 117.416 137.77 116.48 137.214C115.557 136.657 114.48 136.379 113.249 136.379C111.935 136.379 110.781 136.699 109.787 137.338C108.792 137.965 108.017 138.794 107.461 139.824C106.916 140.842 106.638 141.96 106.626 143.18V146.962C106.626 148.548 106.916 149.909 107.496 151.045C108.076 152.17 108.887 153.034 109.929 153.638C110.97 154.23 112.19 154.526 113.586 154.526C114.521 154.526 115.368 154.395 116.125 154.135C116.883 153.863 117.54 153.466 118.096 152.945C118.653 152.424 119.073 151.779 119.357 151.01L125.358 151.685C124.98 153.271 124.257 154.656 123.192 155.839C122.139 157.011 120.789 157.923 119.144 158.574C117.498 159.213 115.616 159.533 113.498 159.533ZM152.618 138.936L146.758 139.575C146.593 138.983 146.303 138.427 145.888 137.906C145.486 137.385 144.941 136.965 144.255 136.646C143.568 136.326 142.728 136.166 141.733 136.166C140.396 136.166 139.271 136.456 138.36 137.036C137.46 137.616 137.016 138.368 137.028 139.291C137.016 140.084 137.306 140.729 137.898 141.227C138.502 141.724 139.496 142.132 140.881 142.452L145.533 143.446C148.114 144.002 150.031 144.884 151.286 146.092C152.553 147.299 153.192 148.879 153.204 150.832C153.192 152.549 152.689 154.064 151.694 155.378C150.712 156.68 149.345 157.698 147.593 158.432C145.841 159.166 143.829 159.533 141.556 159.533C138.218 159.533 135.531 158.834 133.495 157.438C131.459 156.029 130.246 154.07 129.855 151.56L136.123 150.957C136.407 152.188 137.01 153.117 137.934 153.744C138.857 154.372 140.059 154.685 141.538 154.685C143.065 154.685 144.29 154.372 145.214 153.744C146.149 153.117 146.616 152.342 146.616 151.418C146.616 150.637 146.314 149.992 145.711 149.483C145.119 148.974 144.196 148.583 142.941 148.311L138.289 147.335C135.673 146.79 133.738 145.873 132.483 144.582C131.228 143.28 130.607 141.635 130.618 139.646C130.607 137.965 131.062 136.509 131.986 135.278C132.921 134.036 134.217 133.077 135.874 132.402C137.543 131.715 139.467 131.372 141.645 131.372C144.841 131.372 147.356 132.053 149.191 133.414C151.037 134.775 152.18 136.616 152.618 138.936ZM180.059 138.936L174.2 139.575C174.034 138.983 173.744 138.427 173.33 137.906C172.927 137.385 172.383 136.965 171.696 136.646C171.01 136.326 170.169 136.166 169.175 136.166C167.837 136.166 166.713 136.456 165.801 137.036C164.902 137.616 164.458 138.368 164.47 139.291C164.458 140.084 164.748 140.729 165.34 141.227C165.943 141.724 166.938 142.132 168.323 142.452L172.975 143.446C175.555 144.002 177.473 144.884 178.727 146.092C179.994 147.299 180.633 148.879 180.645 150.832C180.633 152.549 180.13 154.064 179.136 155.378C178.153 156.68 176.786 157.698 175.034 158.432C173.282 159.166 171.27 159.533 168.997 159.533C165.659 159.533 162.972 158.834 160.936 157.438C158.9 156.029 157.687 154.07 157.296 151.56L163.564 150.957C163.848 152.188 164.452 153.117 165.375 153.744C166.298 154.372 167.5 154.685 168.98 154.685C170.507 154.685 171.732 154.372 172.655 153.744C173.59 153.117 174.058 152.342 174.058 151.418C174.058 150.637 173.756 149.992 173.152 149.483C172.56 148.974 171.637 148.583 170.382 148.311L165.73 147.335C163.114 146.79 161.179 145.873 159.924 144.582C158.669 143.28 158.048 141.635 158.06 139.646C158.048 137.965 158.504 136.509 159.427 135.278C160.362 134.036 161.658 133.077 163.316 132.402C164.985 131.715 166.908 131.372 169.086 131.372C172.282 131.372 174.798 132.053 176.632 133.414C178.479 134.775 179.621 136.616 180.059 138.936ZM185.945 159V131.727H192.373V159H185.945ZM189.177 127.857C188.159 127.857 187.283 127.519 186.549 126.844C185.815 126.158 185.448 125.335 185.448 124.376C185.448 123.406 185.815 122.583 186.549 121.908C187.283 121.222 188.159 120.879 189.177 120.879C190.206 120.879 191.082 121.222 191.805 121.908C192.538 122.583 192.905 123.406 192.905 124.376C192.905 125.335 192.538 126.158 191.805 126.844C191.082 127.519 190.206 127.857 189.177 127.857ZM210.879 159.533C208.215 159.533 205.907 158.947 203.954 157.775C202.001 156.603 200.486 154.964 199.408 152.857C198.343 150.75 197.81 148.287 197.81 145.47C197.81 142.653 198.343 140.185 199.408 138.066C200.486 135.947 202.001 134.302 203.954 133.13C205.907 131.958 208.215 131.372 210.879 131.372C213.542 131.372 215.85 131.958 217.803 133.13C219.756 134.302 221.266 135.947 222.331 138.066C223.408 140.185 223.947 142.653 223.947 145.47C223.947 148.287 223.408 150.75 222.331 152.857C221.266 154.964 219.756 156.603 217.803 157.775C215.85 158.947 213.542 159.533 210.879 159.533ZM210.914 154.384C212.358 154.384 213.566 153.987 214.536 153.194C215.507 152.389 216.229 151.312 216.702 149.962C217.188 148.613 217.43 147.11 217.43 145.452C217.43 143.783 217.188 142.274 216.702 140.925C216.229 139.563 215.507 138.48 214.536 137.675C213.566 136.871 212.358 136.468 210.914 136.468C209.434 136.468 208.203 136.871 207.221 137.675C206.25 138.48 205.522 139.563 205.037 140.925C204.563 142.274 204.327 143.783 204.327 145.452C204.327 147.11 204.563 148.613 205.037 149.962C205.522 151.312 206.25 152.389 207.221 153.194C208.203 153.987 209.434 154.384 210.914 154.384ZM235.83 143.02V159H229.402V131.727H235.546V136.362H235.865C236.493 134.835 237.493 133.621 238.866 132.722C240.251 131.822 241.961 131.372 243.997 131.372C245.879 131.372 247.519 131.775 248.916 132.58C250.324 133.384 251.413 134.55 252.183 136.077C252.964 137.604 253.349 139.457 253.337 141.635V159H246.909V142.629C246.909 140.806 246.436 139.38 245.489 138.35C244.554 137.32 243.258 136.805 241.6 136.805C240.476 136.805 239.476 137.054 238.6 137.551C237.735 138.036 237.055 138.741 236.558 139.664C236.072 140.587 235.83 141.706 235.83 143.02ZM267.719 159.55C265.991 159.55 264.434 159.243 263.049 158.627C261.676 158 260.587 157.076 259.782 155.857C258.989 154.638 258.593 153.135 258.593 151.347C258.593 149.808 258.877 148.536 259.445 147.53C260.013 146.524 260.788 145.719 261.771 145.115C262.753 144.511 263.86 144.056 265.091 143.748C266.334 143.428 267.618 143.197 268.944 143.055C270.542 142.89 271.838 142.742 272.833 142.612C273.827 142.469 274.549 142.256 274.999 141.972C275.46 141.676 275.691 141.221 275.691 140.605V140.499C275.691 139.161 275.295 138.125 274.502 137.391C273.709 136.657 272.566 136.29 271.075 136.29C269.5 136.29 268.252 136.634 267.328 137.32C266.417 138.007 265.801 138.818 265.482 139.753L259.48 138.901C259.954 137.243 260.735 135.858 261.824 134.746C262.913 133.621 264.245 132.781 265.819 132.224C267.393 131.656 269.133 131.372 271.039 131.372C272.353 131.372 273.661 131.526 274.963 131.834C276.265 132.142 277.455 132.651 278.532 133.361C279.609 134.059 280.473 135.012 281.124 136.219C281.787 137.427 282.119 138.936 282.119 140.747V159H275.94V155.254H275.727C275.336 156.011 274.786 156.721 274.075 157.384C273.377 158.035 272.495 158.562 271.43 158.964C270.376 159.355 269.139 159.55 267.719 159.55ZM269.388 154.827C270.678 154.827 271.797 154.573 272.744 154.064C273.691 153.543 274.419 152.857 274.928 152.004C275.449 151.152 275.709 150.223 275.709 149.217V146.003C275.508 146.169 275.164 146.322 274.679 146.464C274.206 146.607 273.673 146.731 273.081 146.837C272.489 146.944 271.903 147.039 271.323 147.121C270.743 147.204 270.24 147.275 269.814 147.335C268.855 147.465 267.997 147.678 267.24 147.974C266.482 148.27 265.884 148.684 265.446 149.217C265.008 149.737 264.789 150.412 264.789 151.241C264.789 152.424 265.221 153.318 266.085 153.922C266.95 154.526 268.05 154.827 269.388 154.827ZM295.009 122.636V159H288.582V122.636H295.009ZM318.387 159L313.402 142.636H316.044L319.581 155.165H319.751L323.245 142.636H325.93L329.382 155.122H329.552L333.089 142.636H335.731L330.745 159H328.274L324.694 146.429H324.439L320.859 159H318.387ZM343.87 159.384C342.833 159.384 341.892 159.188 341.047 158.798C340.202 158.4 339.531 157.828 339.034 157.082C338.537 156.33 338.288 155.42 338.288 154.355C338.288 153.418 338.473 152.658 338.842 152.075C339.211 151.486 339.705 151.024 340.323 150.69C340.941 150.357 341.623 150.108 342.368 149.945C343.121 149.774 343.877 149.639 344.637 149.54C345.632 149.412 346.438 149.316 347.056 149.252C347.681 149.181 348.135 149.064 348.419 148.901C348.711 148.737 348.856 148.453 348.856 148.048V147.963C348.856 146.912 348.569 146.095 347.993 145.513C347.425 144.93 346.562 144.639 345.404 144.639C344.204 144.639 343.263 144.902 342.581 145.428C341.9 145.953 341.42 146.514 341.143 147.111L338.757 146.259C339.183 145.264 339.751 144.49 340.461 143.936C341.179 143.375 341.96 142.984 342.805 142.764C343.657 142.537 344.495 142.423 345.319 142.423C345.845 142.423 346.449 142.487 347.13 142.615C347.819 142.736 348.483 142.988 349.123 143.371C349.769 143.755 350.305 144.334 350.731 145.108C351.157 145.882 351.37 146.919 351.37 148.219V159H348.856V156.784H348.728C348.558 157.139 348.274 157.519 347.876 157.924C347.478 158.329 346.949 158.673 346.289 158.957C345.628 159.241 344.822 159.384 343.87 159.384ZM344.254 157.125C345.248 157.125 346.086 156.93 346.768 156.539C347.457 156.148 347.975 155.644 348.324 155.026C348.679 154.408 348.856 153.759 348.856 153.077V150.776C348.75 150.903 348.515 151.021 348.153 151.127C347.798 151.227 347.386 151.315 346.917 151.393C346.456 151.464 346.005 151.528 345.564 151.585C345.131 151.635 344.779 151.678 344.51 151.713C343.856 151.798 343.245 151.937 342.677 152.129C342.116 152.313 341.662 152.594 341.314 152.97C340.973 153.339 340.802 153.844 340.802 154.483C340.802 155.357 341.125 156.017 341.772 156.464C342.425 156.905 343.252 157.125 344.254 157.125ZM356.993 165.136C356.567 165.136 356.187 165.101 355.853 165.03C355.519 164.966 355.288 164.902 355.16 164.838L355.8 162.622C356.41 162.778 356.95 162.835 357.419 162.793C357.888 162.75 358.303 162.54 358.665 162.164C359.035 161.795 359.372 161.195 359.677 160.364L360.146 159.085L354.095 142.636H356.822L361.339 155.676H361.51L366.027 142.636H368.754L361.808 161.386C361.496 162.232 361.108 162.931 360.647 163.485C360.185 164.046 359.649 164.462 359.038 164.732C358.434 165.001 357.753 165.136 356.993 165.136Z"
              fill="white"
            />
          </svg>